# https://github.com/mikedh/trimesh
v 0.05053000 0.01721600 -0.07079100
v 0.03746900 -0.01761700 -0.07079100
v 0.03746900 -0.01761700 -0.07030700
v 0.03746900 0.01770000 -0.07030700
v 0.05101500 -0.01616600 -0.07030700
v 0.05053000 -0.01665000 -0.07127400
v 0.03746900 0.01672800 -0.07127400
v 0.05101500 0.01624800 -0.07030700
v 0.05053000 0.01624800 -0.07127400
v 0.03746900 -0.01665000 -0.07127400
v 0.03940400 0.01431000 0.00806500
v 0.03505000 -0.01616300 -0.00305900
v 0.03214700 -0.01422800 -0.00015600
v 0.03505000 0.00657000 -0.01515400
v 0.03214700 0.01237500 0.00709800
v 0.03940400 -0.00987200 0.01339000
v 0.03940400 -0.00552000 -0.01563600
v 0.03214700 -0.00116800 0.01387200
v 0.03214700 -0.00745500 -0.01225100
v 0.03940400 0.01334200 -0.00983000
v 0.03214700 0.01237500 -0.00692700
v 0.03940400 0.00512000 0.01580700
v 0.03940400 -0.01519500 -0.00644400
v 0.03505000 -0.01422800 0.00855100
v 0.03505000 0.01624500 -0.00305900
v 0.03505000 0.00898700 0.01387200
v 0.03166300 0.00512000 0.00516500
v 0.03940400 -0.01567800 0.00516500
v 0.03505000 -0.00261700 0.01629300
v 0.03214700 0.00028200 -0.01418600
v 0.03505000 -0.01326000 -0.00983000
v 0.03214700 -0.00697000 0.01242200
v 0.03940400 0.00512000 -0.01563600
v 0.03505000 -0.00358500 -0.01612200
v 0.03940400 0.01624500 0.00274400
v 0.03505000 0.01527800 0.00613000
v 0.03166300 -0.00552000 -0.00499400
v 0.03505000 0.01334200 -0.00983000
v 0.03505000 -0.00842300 0.01435700
v 0.03214700 0.00705200 0.01242200
v 0.03940400 -0.00261700 0.01629300
v 0.03505000 0.00221700 0.01629300
v 0.03214700 0.00705200 -0.01225100
v 0.03505000 -0.00939000 -0.01370100
v 0.03940400 -0.00939000 -0.01370100
v 0.03214700 -0.01229300 0.00709800
v 0.03505000 -0.01616300 0.00323000
v 0.03214700 -0.01229300 -0.00692700
v 0.03166300 0.00608400 -0.00402700
v 0.03214700 0.01382500 0.00129400
v 0.03166300 -0.00552000 0.00468000
v 0.03940400 0.01576000 -0.00499400
v 0.03505000 0.01285700 0.01048600
v 0.03940400 0.00995400 0.01339000
v 0.03940400 0.00947200 -0.01370100
v 0.03940400 -0.01616300 -0.00305900
v 0.03505000 0.00366700 -0.01612200
v 0.03505000 0.01624500 0.00274400
v 0.05343400 0.01673100 -0.06788500
v 0.05149900 -0.01858500 -0.06788500
v 0.05149900 -0.01713000 -0.06933600
v 0.05149900 0.01866700 -0.02966800
v 0.05343400 -0.01713000 -0.02966800
v 0.05149900 -0.01858500 -0.02966800
v 0.05149900 0.01818200 -0.06836900
v 0.05343400 -0.01713000 -0.06740200
v 0.05343400 0.01721200 -0.02966800
v 0.05198300 0.01624600 -0.06982300
v 0.05198300 0.01866700 -0.06740200
v 0.05343400 -0.01374600 -0.06836900
v 0.05198300 -0.01858500 -0.06788500
v 0.05198300 -0.01616400 -0.06982300
v 0.05343400 0.01769600 -0.02870000
v 0.03988800 -0.02052000 -0.02966800
v 0.05004500 -0.02052000 -0.02966800
v 0.03988800 -0.02052000 -0.02724900
v 0.03988800 0.02011100 -0.02966800
v 0.05343400 0.01769600 -0.02724900
v 0.03988800 0.02060200 -0.02724900
v 0.05343400 -0.01761400 -0.02724900
v 0.05343400 0.01720900 -0.02966800
v 0.05343400 -0.01713100 -0.02966800
v 0.05053000 0.02060200 -0.02870000
v 0.05053000 -0.02052000 -0.02724900
v 0.05053000 0.02060200 -0.02724900
v -0.00607300 0.04237300 -0.05821200
v -0.04284200 0.00124700 -0.05869600
v -0.04284200 0.00124700 -0.05821200
v -0.00607300 -0.04228300 -0.05821200
v -0.03074200 -0.02824500 -0.05676100
v -0.00607300 0.04091500 -0.05676100
v -0.03703300 0.01963500 -0.05676100
v -0.00607300 -0.04083200 -0.05676100
v -0.02156000 0.03752600 -0.05869600
v -0.01284700 -0.04131300 -0.05869600
v -0.03703300 -0.02244400 -0.05869600
v -0.00607300 0.04237300 -0.05869600
v -0.04090200 -0.00794300 -0.05676100
v -0.03751900 0.02156600 -0.05869600
v -0.02494000 0.03365600 -0.05676100
v -0.00607300 -0.04228300 -0.05869600
v -0.02252800 -0.03696300 -0.05821200
v -0.01430100 -0.03938200 -0.05676100
v -0.04042000 0.01043700 -0.05676100
v -0.03364200 0.02736600 -0.05821200
v -0.03993700 -0.01665200 -0.05821200
v -0.01381500 0.03946500 -0.05676100
v -0.04187000 0.01092600 -0.05821200
v -0.02784400 -0.03309300 -0.05869600
v -0.03509600 -0.02293300 -0.05676100
v -0.04235200 -0.00842400 -0.05869600
v 0.05149900 -0.00745800 -0.02628000
v 0.05053100 0.00754000 -0.02241100
v 0.04714400 0.00754000 -0.02241100
v 0.04714400 0.00754000 -0.02724900
v 0.04714400 -0.00745800 -0.02241100
v 0.04714400 -0.00745800 -0.02724900
v 0.05149900 0.00657100 -0.02724900
v 0.05149900 -0.00552100 -0.02241100
v 0.05149900 -0.00648900 -0.02724900
v 0.05149900 0.00560400 -0.02241100
v 0.02875700 -0.03116000 -0.05724500
v -0.00606900 -0.04277500 -0.05869600
v 0.00602300 -0.04277500 -0.05869600
v -0.00606900 0.00173400 -0.05821200
v 0.03746400 -0.00262700 -0.05869600
v -0.00606900 0.00173400 -0.05676100
v -0.00558700 -0.04132000 -0.05676100
v 0.03746400 0.00173400 -0.05676100
v 0.03698300 -0.02245000 -0.05869600
v 0.03746400 -0.01859000 -0.05676100
v 0.01521600 -0.03889700 -0.05676100
v 0.02247000 -0.03696700 -0.05869600
v 0.03746400 0.00173400 -0.05821200
v -0.00606900 -0.03696700 -0.05869600
v 0.03165900 -0.00262700 -0.05869600
v 0.02150300 -0.03599600 -0.05676100
v 0.00554100 -0.04132000 -0.05676100
v 0.01424900 -0.04083600 -0.05821200
v 0.03359400 -0.02729100 -0.05821200
v 0.03311300 0.02785500 -0.05869600
v 0.00554100 0.04285700 -0.05821200
v 0.00554100 0.04285700 -0.05869600
v 0.03359400 0.02495200 -0.05676100
v 0.03746400 0.00270400 -0.05869600
v -0.00606900 0.04092100 -0.05676100
v -0.00606900 0.04237000 -0.05869600
v 0.01714700 0.03801900 -0.05676100
v 0.03746400 0.02060500 -0.05772800
v 0.02247000 0.03704900 -0.05821200
v -0.00606900 0.03656600 -0.05869600
v 0.03165900 0.00270400 -0.05869600
v 0.03746400 0.02060500 -0.05869600
v 0.00554100 0.04140400 -0.05676100
v 0.01424900 0.04092100 -0.05869600
v 0.03746400 0.01867300 -0.05676100
v 0.02778900 0.03124400 -0.05676100
v 0.05149900 -0.01906700 -0.05676200
v 0.03746900 -0.01858400 -0.07030600
v 0.03746900 -0.01084400 -0.07030600
v 0.03746900 -0.01084400 -0.05676200
v 0.05149900 -0.01084400 -0.07030600
v 0.03746900 -0.02003600 -0.05821400
v 0.05053000 -0.02003600 -0.06788600
v 0.04617600 -0.01084400 -0.05724600
v 0.05101200 -0.01761700 -0.07030600
v 0.03988800 -0.02003600 -0.05676200
v 0.05149900 -0.01665000 -0.05676200
v 0.03746900 -0.02003600 -0.06788600
v 0.05053000 -0.02003600 -0.05676200
v 0.05149900 -0.01084400 -0.06788600
v 0.05149900 -0.01906700 -0.06788600
v 0.05004700 -0.01955100 -0.06933800
v 0.02150300 -0.00213500 -0.00596200
v 0.02053500 0.00221700 0.00613200
v 0.01521400 0.00221700 0.00613200
v 0.01521400 -0.00600600 0.00274600
v 0.01473000 0.00512100 -0.00402500
v 0.02150300 0.00608900 -0.00208800
v 0.02150300 -0.00503800 0.00419600
v 0.01473000 -0.00503800 -0.00402500
v 0.01473000 0.00608900 0.00225900
v 0.02150300 -0.00600600 -0.00257500
v 0.01473000 -0.00310300 0.00564800
v 0.02150300 0.00463700 0.00468100
v 0.01521400 0.00270100 -0.00596200
v 0.02150300 0.00366900 -0.00547700
v 0.02150300 -0.00213500 0.00613200
v 0.01521400 -0.00068300 -0.00644400
v 0.02150300 0.00608900 0.00225900
v 0.01908300 -0.00649000 -0.00063900
v 0.04714300 0.00270300 -0.02724900
v 0.04375700 0.01624700 -0.01467000
v 0.04714400 0.01624700 -0.01515400
v 0.03988800 0.01624700 -0.02724900
v 0.03940400 0.00222000 -0.01467000
v 0.03988900 0.00222000 -0.02724900
v 0.04714400 0.01576300 -0.02724900
v 0.03988800 0.01624700 -0.01467000
v 0.04279100 0.00222000 -0.01467000
v 0.04714300 0.00318800 -0.02240900
v 0.03166300 0.00415300 -0.00596200
v 0.02150300 -0.00649000 -0.00354400
v 0.02198800 -0.00552200 -0.00499400
v 0.02150300 0.00657200 -0.00209200
v 0.03166300 -0.00649000 -0.00209200
v 0.03166300 0.00657200 -0.00209200
v 0.02150300 0.00221700 -0.00692900
v 0.03166300 -0.00213500 -0.00692900
v 0.02150300 -0.00649000 -0.00209200
v 0.02150300 -0.00213500 -0.00692900
v 0.03166300 -0.00552200 -0.00499400
v 0.02150300 0.00608800 -0.00402700
v 0.03166300 0.00221700 -0.00692900
v 0.03988800 -0.02052000 -0.04128100
v 0.04375800 0.02011900 -0.02966800
v 0.04375800 0.02011900 -0.05676100
v 0.03988800 0.02011900 -0.02966800
v 0.04375800 -0.02052000 -0.02966800
v 0.03988800 -0.02003500 -0.05676100
v 0.04375800 -0.02003500 -0.05676100
v 0.03988800 0.02011900 -0.05676100
v 0.03988800 0.02979300 0.01435300
v 0.03988800 0.01624800 -0.02724900
v 0.03988800 0.02108700 -0.02724900
v 0.04762800 0.03221300 0.00758400
v 0.04762800 0.01624800 0.02838800
v 0.04762800 0.01866800 -0.02724900
v 0.03988800 0.01624800 0.02838800
v 0.03988800 0.03124500 -0.01079600
v 0.04762800 0.02979300 -0.01418400
v 0.04714400 0.01624800 -0.02676400
v 0.04762800 0.02592400 0.02064300
v 0.03988800 0.03269700 -0.00402200
v 0.04762800 0.03269700 -0.00354200
v 0.03988800 0.02108700 0.02548000
v 0.04762800 0.02108700 -0.02724900
v 0.03988800 0.03269700 0.00419600
v 0.03988800 0.02834000 -0.01708700
v 0.04762800 0.01866800 0.02741800
v 0.04762800 0.02979300 0.01435300
v 0.03988800 0.02543900 0.02112800
v 0.04762800 0.03172800 -0.00934800
v 0.04762800 0.02640500 -0.01998900
v -0.03171600 -0.03019400 -0.05869700
v -0.04429200 -0.00358800 -0.06643500
v -0.04429200 -0.00358800 -0.05966500
v -0.03703500 0.00125100 -0.05869700
v -0.02881200 -0.02341900 -0.07224100
v -0.03800200 -0.02341900 -0.07127300
v -0.03703500 0.00125100 -0.07224100
v -0.02881200 -0.02341900 -0.05869700
v -0.04332300 0.00125100 -0.07224100
v -0.02881200 -0.03358300 -0.07127300
v -0.04090500 -0.01761200 -0.05966500
v -0.04332300 0.00125100 -0.05869700
v -0.04235500 -0.01374900 -0.07127300
v -0.02929800 -0.03358300 -0.05966500
v -0.03703500 -0.02293400 -0.07224100
v -0.03413500 -0.02874100 -0.05966500
v -0.04429200 0.00125100 -0.07127300
v -0.03365100 -0.02922900 -0.07127300
v -0.04042000 -0.01664700 -0.05869700
v -0.04380700 -0.00794200 -0.05966500
v -0.04380700 -0.00745800 -0.07127300
v -0.03703500 -0.02487400 -0.05966500
v -0.02929800 -0.03213000 -0.07224100
v -0.02881200 -0.03213000 -0.05869700
v -0.04138800 -0.01374900 -0.07224100
v -0.04429200 0.00125100 -0.05966500
v -0.01913300 -0.03986900 -0.05918100
v -0.02832400 -0.02390700 -0.05869700
v -0.02832400 -0.02390700 -0.07224100
v -0.00607500 -0.03648300 -0.05869700
v -0.00607500 -0.04277200 -0.07224100
v -0.02880900 -0.03358500 -0.07127300
v -0.00607500 -0.03648300 -0.07224100
v -0.02880900 -0.03261800 -0.05869700
v -0.00607500 -0.04374100 -0.05966500
v -0.01430100 -0.04228800 -0.07078900
v -0.02348800 -0.03793400 -0.07127300
v -0.02880900 -0.03406400 -0.05966500
v -0.02880900 -0.03261800 -0.07224100
v -0.01285000 -0.04180500 -0.05869700
v -0.01671800 -0.04132200 -0.05966500
v -0.02880900 -0.02390700 -0.07224100
v -0.00752900 -0.04374100 -0.07127300
v -0.01043100 -0.04325500 -0.05966500
v -0.02348800 -0.03793400 -0.06063300
v -0.01623500 -0.04035300 -0.07224100
v -0.02880900 -0.02390700 -0.05869700
v -0.00607500 -0.04277200 -0.05869700
v -0.03413500 0.02736900 -0.05869700
v -0.04429000 0.00125100 -0.07127300
v -0.04429000 0.00125100 -0.05966500
v -0.02687600 0.02544000 -0.07224100
v -0.03848500 0.02253600 -0.07127300
v -0.02687600 0.03414500 -0.05869700
v -0.02784600 0.03463200 -0.07127300
v -0.04187200 0.01528300 -0.05966500
v -0.02687600 0.02544000 -0.05869700
v -0.04187200 0.01189800 -0.07224100
v -0.03558400 0.02688900 -0.05966500
v -0.04332300 0.00995900 -0.07127300
v -0.02687600 0.03366400 -0.07224100
v -0.04332300 0.00512200 -0.05869700
v -0.02929700 0.03366400 -0.05966500
v -0.03316800 0.02979300 -0.07127300
v -0.04380700 0.00754200 -0.05966500
v -0.04235500 0.01383100 -0.07127300
v -0.03848500 0.02253600 -0.05966500
v -0.03606600 0.02446900 -0.07224100
v -0.04042000 0.01673500 -0.05869700
v -0.02687600 0.03559800 -0.06208500
v -0.00607300 0.04382500 -0.05966500
v -0.00607300 0.04285400 -0.05869700
v -0.02639200 0.02592400 -0.07224100
v -0.02639200 0.02592400 -0.05869700
v -0.00607300 0.03656500 -0.07224100
v -0.01768200 0.04092000 -0.07127300
v -0.00607300 0.03656500 -0.05869700
v -0.00607300 0.04285400 -0.07224100
v -0.02687600 0.03415100 -0.07224100
v -0.02251900 0.03850000 -0.05966500
v -0.02687600 0.03415100 -0.05869700
v -0.01042900 0.04333900 -0.06498700
v -0.02348800 0.03801800 -0.07127300
v -0.01768200 0.04092000 -0.05966500
v -0.00704200 0.04382500 -0.07127300
v -0.02687600 0.02592400 -0.05869700
v -0.02687600 0.02592400 -0.07224100
v -0.01671500 0.04043800 -0.05869700
v -0.01381500 0.04140500 -0.07224100
v 0.04375800 0.00947800 -0.03499300
v 0.04617800 0.00657200 -0.04998200
v 0.04714600 0.00657200 -0.04998200
v 0.05149900 0.01914900 -0.02966800
v 0.05149900 0.01914900 -0.05676100
v 0.05149900 0.00899400 -0.02966800
v 0.05149900 0.00851000 -0.04949700
v 0.04617800 0.00657200 -0.03015600
v 0.04375800 0.01528000 -0.05676100
v 0.04375800 0.00657200 -0.04031300
v 0.05053100 0.02011900 -0.05676100
v 0.04714800 0.00851000 -0.05336600
v 0.05053100 0.02011900 -0.02966800
v 0.05149900 0.01673200 -0.05676100
v 0.04472500 0.00996000 -0.02966800
v 0.04714600 0.00657200 -0.03015600
v 0.05149900 0.00947800 -0.05143500
v 0.05294900 -0.01907200 0.02402500
v 0.04666100 -0.03261400 -0.00547600
v 0.03988800 -0.03212700 -0.00740900
v 0.05343400 -0.01616600 -0.02724900
v 0.03988800 -0.01616600 0.02838800
v 0.03988800 -0.01616600 -0.02724900
v 0.05053000 -0.03164600 0.00903300
v 0.03988800 -0.02874300 0.01629200
v 0.05343400 -0.02971100 -0.00402700
v 0.05053300 -0.02632300 -0.01998900
v 0.05343400 -0.01616800 0.02499500
v 0.03988800 -0.02100600 -0.02724900
v 0.05053000 -0.02584000 0.02063800
v 0.03988800 -0.03261400 0.00468100
v 0.05343400 -0.02729100 0.01289900
v 0.05053300 -0.03164600 -0.00934800
v 0.03988800 -0.02825700 -0.01708700
v 0.05053300 -0.02100600 -0.02724900
v 0.05004700 -0.01713500 0.02838800
v 0.03988800 -0.02052300 0.02596400
v 0.05343400 -0.02486800 -0.01708100
v 0.05053000 -0.03261400 0.00419600
v 0.05053000 -0.02874300 0.01629200
v 0.03988800 -0.03116100 0.01096600
v 0.03988800 -0.02584000 0.02064300
v 0.05053300 -0.03019400 -0.01321500
v 0.05053000 -0.02052300 0.02596400
v 0.05343400 -0.02970900 0.00419600
v 0.03988800 -0.03067800 -0.01225100
v 0.05053300 -0.03261400 -0.00451200
v 0.05343400 -0.01810300 -0.02675900
v 0.05343400 -0.02825700 -0.01031700
v 0.05149900 -0.00358400 0.03129000
v 0.05246600 -0.01616300 -0.02724900
v 0.05343400 -0.01616300 -0.02724900
v 0.05246600 0.01624200 -0.02724900
v 0.05343400 0.01624800 0.02499900
v 0.05343400 -0.01616300 0.02499300
v 0.05149900 0.01624200 0.02450600
v 0.05149900 -0.00600100 -0.02724300
v 0.05149900 -0.01616300 0.02693600
v 0.05343400 0.01624200 -0.02724900
v 0.05149900 0.00705100 -0.02628100
v 0.05343400 0.00415100 0.02983500
v 0.05198200 -0.01616300 -0.02724300
v 0.05198200 0.01624200 -0.02724300
v 0.05149900 0.01285700 0.02886700
v 0.05343400 -0.00793600 0.02886700
v 0.00602000 -0.04374100 -0.05918100
v -0.00607200 -0.04277400 -0.07224100
v -0.00607200 -0.03648600 -0.07224100
v 0.00795600 -0.03648600 -0.07224100
v -0.00607200 -0.03697000 -0.05869700
v 0.00795600 -0.03648600 -0.05869700
v 0.00747100 -0.04374100 -0.07127300
v -0.00462000 -0.04422600 -0.05966500
v 0.00795600 -0.04277400 -0.05869700
v -0.00558700 -0.04422600 -0.07127300
v -0.00607200 -0.04325700 -0.05869700
v 0.00795600 -0.04229000 -0.07224100
v 0.00505300 -0.04422600 -0.07127300
v -0.00607200 -0.03648600 -0.06111700
v 0.00457000 -0.04422600 -0.05966500
v 0.00795600 -0.04374100 -0.05966500
v 0.01569800 -0.04083800 -0.05869700
v 0.03408200 -0.02826100 -0.05966500
v 0.03408200 -0.02826100 -0.07127300
v 0.00844300 -0.03600000 -0.07224100
v 0.02101900 -0.03938600 -0.07127300
v 0.02392200 -0.02826100 -0.05869700
v 0.00795700 -0.03648400 -0.05869700
v 0.00795700 -0.04325700 -0.07127300
v 0.02392200 -0.02826100 -0.07224100
v 0.02634100 -0.03600000 -0.05966500
v 0.00795700 -0.04325700 -0.05918100
v 0.02150300 -0.03793500 -0.07224100
v 0.01667000 -0.04132100 -0.05966500
v 0.02827400 -0.03455300 -0.07127300
v 0.01231200 -0.04277300 -0.07127300
v 0.03262900 -0.02923100 -0.05869700
v 0.00795700 -0.04228800 -0.07224100
v 0.03262900 -0.02874700 -0.07224100
v 0.03408200 -0.02874700 -0.05966500
v 0.01037600 -0.04325700 -0.05966500
v 0.00844300 -0.03600000 -0.05869700
v 0.02343600 -0.03793500 -0.05966500
v 0.03359700 -0.02777600 -0.07224100
v 0.03746900 -0.02003700 -0.05869700
v 0.03117900 -0.02003700 -0.05869700
v 0.03311200 -0.02826100 -0.05869700
v 0.02440600 -0.02826100 -0.07224100
v 0.03117900 -0.02003700 -0.07224100
v 0.02440600 -0.02777600 -0.05869700
v 0.03746900 -0.02197200 -0.07224100
v 0.03698400 -0.02487400 -0.06063300
v 0.03746900 -0.02003700 -0.07224100
v 0.03408000 -0.02826100 -0.07127300
v 0.03698400 -0.02487400 -0.07127300
v 0.02440600 -0.02826100 -0.05869700
v 0.03553300 -0.02680900 -0.05966500
v 0.02440600 -0.02777600 -0.07224100
v 0.03069500 -0.01567800 -0.06837100
v 0.03746900 -0.00358900 -0.05869700
v 0.03746900 0.00173400 -0.06885300
v 0.03746900 -0.02003600 -0.07224100
v 0.03166300 0.00173400 -0.07224100
v 0.03117900 -0.02003600 -0.05869700
v 0.03166300 -0.00358900 -0.05869700
v 0.03746900 -0.02003600 -0.05869700
v 0.03117900 -0.02003600 -0.07224100
v 0.03746900 0.00173400 -0.07224100
v 0.03069500 -0.00649100 -0.05918100
v 0.03069500 -0.00697700 -0.06837100
v 0.03166300 0.00173400 -0.06982100
v 0.03069500 -0.01616200 -0.05869700
v 0.03069500 0.00657300 -0.06788700
v 0.03746900 0.02060200 -0.05869700
v 0.03746900 0.02060200 -0.07224100
v 0.03117900 0.02060200 -0.07224100
v 0.03166300 0.00367000 -0.05869700
v 0.03117900 0.02060200 -0.05869700
v 0.03746900 0.00367000 -0.05869700
v 0.03069500 0.01576400 -0.05869700
v 0.03069500 0.00608900 -0.06014900
v 0.03698400 0.00173400 -0.06885300
v 0.03069500 0.01672900 -0.06740300
v 0.02779300 0.02398800 -0.06256700
v 0.03746900 0.02302300 -0.06256700
v 0.03698400 0.02447200 -0.05966500
v 0.03408200 0.02689200 -0.07224100
v 0.03069600 0.02060200 -0.07224100
v 0.02585700 0.02689200 -0.07224100
v 0.02585700 0.02689200 -0.05869700
v 0.03069600 0.02060200 -0.05869700
v 0.03456300 0.02689200 -0.05869700
v 0.03698400 0.02060200 -0.05869700
v 0.03553200 0.02689200 -0.07127300
v 0.03698400 0.02447200 -0.07127300
v 0.02924300 0.03318000 -0.05918100
v 0.00989200 0.03559900 -0.07224100
v 0.00989200 0.03559900 -0.05869700
v 0.02537200 0.02689200 -0.05869700
v 0.03359400 0.02689200 -0.07224100
v 0.02585700 0.03608400 -0.07127300
v 0.02537200 0.02689200 -0.07224100
v 0.03505000 0.02737700 -0.05966500
v 0.02440400 0.03608400 -0.05869700
v 0.03408200 0.02882700 -0.07127300
v 0.00989200 0.03608400 -0.07224100
v 0.03408200 0.02689200 -0.05869700
v 0.02585700 0.03511500 -0.07224100
v 0.02875500 0.03414900 -0.06208500
v 0.00989200 0.03608400 -0.05869700
v 0.02827500 0.03463100 -0.07127300
v 0.02682500 0.03559900 -0.05966500
v 0.03505000 0.02689200 -0.07127300
v 0.03408200 0.02882700 -0.05966500
v 0.01666200 0.04140500 -0.06595100
v -0.00607300 0.03656800 -0.07224100
v -0.00607300 0.03656800 -0.05869700
v -0.00413700 0.04430800 -0.07127300
v 0.02537400 0.03608400 -0.07127300
v 0.01424600 0.04140500 -0.05869700
v 0.02488700 0.03608400 -0.05918100
v 0.00989000 0.04334000 -0.07127300
v 0.00360500 0.04430800 -0.05966500
v -0.00607300 0.04285600 -0.07224100
v 0.02053500 0.03850400 -0.07224100
v 0.00795700 0.03608400 -0.07224100
v 0.02246800 0.03850400 -0.05966500
v 0.01037100 0.04334000 -0.05966500
v -0.00510400 0.04334000 -0.05869700
v 0.00844400 0.03608400 -0.05869700
v 0.02246800 0.03850400 -0.07127300
v 0.00408800 0.04430800 -0.07127300
v 0.00408800 0.04334000 -0.07224100
v 0.01666200 0.04140500 -0.07127300
v -0.00413700 0.04430800 -0.05966500
v 0.02537400 0.03656800 -0.05966500
v 0.02392100 0.03656800 -0.05869700
v 0.01521300 0.04188800 -0.05966500
v 0.04714400 -0.00939200 -0.06353400
v 0.05149900 0.00270200 -0.06788800
v 0.05149900 0.00270200 -0.07030700
v 0.03746900 0.00270200 -0.07030700
v 0.05149900 -0.01084400 -0.07030700
v 0.03746900 -0.01084400 -0.07030700
v 0.03746900 -0.00455300 -0.06353400
v 0.03746900 -0.01084400 -0.06353400
v 0.05149900 -0.01084400 -0.06788800
v 0.04617600 -0.00455300 -0.06353400
v 0.03746900 0.00270200 -0.06885500
v 0.04617600 -0.01084400 -0.06353400
v 0.04762700 -0.00745500 -0.06353400
v 0.05101200 0.01914900 -0.06885500
v 0.04617600 0.00463900 -0.06353400
v 0.03746900 0.02011900 -0.06353400
v 0.03746900 0.01818000 -0.07030700
v 0.05149900 0.01914900 -0.06353400
v 0.03746900 0.00463900 -0.06353400
v 0.05149900 0.01624700 -0.07030700
v 0.05053000 0.02011900 -0.06788800
v 0.03746900 0.02011900 -0.06788800
v 0.05004700 0.01866600 -0.07030700
v 0.05149900 0.01672900 -0.06353400
v 0.05053000 0.02011900 -0.06353400
v 0.03746900 0.00270200 -0.06837200
v 0.04714400 -0.01084400 -0.06208200
v 0.05053000 0.00173400 -0.05676100
v 0.05149900 -0.00358800 -0.05676100
v 0.03746900 -0.01084400 -0.05676100
v 0.03746900 -0.00455500 -0.06353400
v 0.03746900 0.00173400 -0.05676100
v 0.04617600 -0.00455500 -0.06353400
v 0.04617600 -0.01084400 -0.05724500
v 0.03746900 0.00173400 -0.05821200
v 0.04714400 -0.00939300 -0.06353400
v 0.05053000 0.00173400 -0.05772900
v 0.05149900 -0.00648900 -0.05676100
v 0.03746900 0.02011900 -0.05821200
v 0.05149900 0.00367300 -0.05724500
v 0.05149900 0.01673000 -0.06353400
v 0.05053000 0.02011900 -0.05676100
v 0.03746900 0.01818100 -0.05676100
v 0.02924200 -0.00310400 0.00661700
v 0.02150300 -0.00697400 -0.00209200
v 0.02150300 -0.00697400 0.00226400
v 0.02150300 -0.00020100 0.00710100
v 0.03166300 -0.00358700 -0.00209200
v 0.03166300 -0.00697400 0.00178000
v 0.03166300 -0.00020100 0.00710100
v 0.02150300 -0.00358700 -0.00209200
v 0.02150300 -0.00020100 0.00419700
v 0.03166300 -0.00697400 -0.00209200
v 0.02150300 -0.00407000 0.00613200
v 0.03166300 -0.00020100 0.00419700
v 0.03166300 -0.00552200 0.00468100
v 0.02489100 0.00415300 0.00613200
v 0.02150300 0.00366900 -0.00209200
v 0.03166300 0.00366900 -0.00209200
v 0.03166300 0.00705600 0.00178000
v 0.02150300 0.00705600 -0.00209200
v 0.02150300 0.00608800 0.00419700
v 0.03166300 0.00463600 0.00564700
v 0.03166300 0.00657100 -0.00209200
v 0.04569300 -0.00891000 -0.02966800
v 0.04762800 -0.02052000 -0.04756600
v 0.04375800 -0.02003600 -0.05676100
v 0.05149900 -0.00939400 -0.05143500
v 0.05004700 -0.02052000 -0.02966800
v 0.04375800 -0.02003600 -0.02966800
v 0.04375800 -0.00842500 -0.04418000
v 0.05149900 -0.01906800 -0.05676100
v 0.05149900 -0.00891000 -0.02966800
v 0.04666300 -0.00842500 -0.05337100
v 0.05149900 -0.01906800 -0.02966800
v 0.04375800 -0.01568200 -0.05676100
v 0.04375800 -0.00842500 -0.03596400
v 0.05149900 -0.01665000 -0.05676100
v 0.05053100 -0.02003600 -0.05676100
v 0.04472500 -0.02052000 -0.02966800
v 0.04472500 -0.00987900 -0.02966800
v 0.04714700 -0.00842500 -0.02966800
v 0.05149900 -0.00891000 -0.05046700
v 0.04279100 -0.01616600 -0.02724900
v 0.04279100 0.00221800 -0.01467000
v 0.03940400 0.00221800 -0.01467000
v 0.03988800 -0.01616600 -0.01467000
v 0.04714400 -0.01616600 -0.01515400
v 0.04714300 -0.00262100 -0.02724900
v 0.03988900 0.00221800 -0.02724900
v 0.04714400 -0.01568000 -0.02724900
v 0.04520900 0.00076600 -0.01467000
v 0.04279100 0.00221800 -0.02724900
v 0.04714300 -0.00310500 -0.02240900
v 0.03940400 -0.00649000 -0.01515400
v 0.05101500 0.02931100 -0.01418600
v 0.05343400 0.02931100 0.00419800
v 0.05343400 0.02882700 0.00419800
v 0.04762800 0.03221300 0.00419800
v 0.04762800 0.02882700 -0.00644200
v 0.05053100 0.03269700 -0.00354600
v 0.04762800 0.03173000 -0.00934600
v 0.04956400 0.02882700 0.00419800
v 0.04762800 0.02882700 -0.01515400
v 0.05343400 0.02882700 -0.00595900
v 0.05053100 0.03269700 0.00371300
v 0.05343400 0.02979500 -0.00354600
v 0.04762800 0.02592300 0.02064700
v 0.05198100 0.01624800 0.00419800
v 0.04762800 0.01866700 0.00806900
v 0.05053100 0.03221400 0.00419800
v 0.05343400 0.02931000 0.00662000
v 0.04762800 0.03221400 0.00419800
v 0.05053100 0.02689100 0.01919600
v 0.05343400 0.01624800 0.00419800
v 0.05053100 0.01915200 0.02693400
v 0.05343400 0.02398900 0.01823000
v 0.05053100 0.03075900 0.01193800
v 0.04762800 0.02157100 0.00565200
v 0.05343400 0.02931000 0.00419800
v 0.04762800 0.02979400 0.01435600
v 0.04714300 -0.00503800 0.02403400
v 0.04617600 0.00415200 0.03274200
v 0.04762800 0.00705200 0.03225800
v 0.03988800 0.01624500 0.02403400
v 0.03988800 -0.01616300 0.02887100
v 0.03988800 0.00415200 0.03274200
v 0.04762800 -0.01422800 0.02983800
v 0.03988800 -0.01616300 0.02403400
v 0.04762800 0.01624500 0.02596900
v 0.03988800 0.01624500 0.02887100
v 0.04762800 -0.01616300 0.02596900
v 0.03988800 -0.00697000 0.03225800
v 0.04762800 -0.00407000 0.03274200
v 0.04762800 0.01576000 0.02887100
v 0.04714300 0.00512000 0.02403400
v 0.04714300 0.01624500 0.02500300
v 0.04714300 -0.01616300 0.02500300
v 0.03988800 0.01189000 0.03080600
v 0.04762800 -0.00939000 0.03177400
v 0.04762800 0.01334200 0.03032300
v 0.04762800 -0.01616300 0.02887100
v 0.05149900 0.00657200 -0.05289100
v 0.04375800 -0.00649000 -0.05676100
v 0.05149900 -0.00649000 -0.05676100
v 0.04375800 -0.00649000 -0.05240700
v 0.04375800 0.00753800 -0.05676100
v 0.04375800 0.00753800 -0.05240800
v 0.05149900 -0.00552100 -0.05240700
v 0.05149900 0.00705500 -0.05676100
v 0.04714600 0.00802400 -0.05192300
v 0.05198100 0.02882700 -0.01273500
v 0.04956400 0.01624800 -0.02724900
v 0.05343400 0.01624800 -0.02724900
v 0.05343400 0.01624800 -0.00402700
v 0.04762800 0.02011900 -0.00596300
v 0.04762800 0.02834300 -0.01708800
v 0.05343400 0.02882700 -0.00402700
v 0.04762800 0.02108800 -0.02724900
v 0.04762800 0.02882700 -0.00693200
v 0.05053100 0.02592100 -0.02047500
v 0.04762800 0.01866900 -0.00789800
v 0.05343400 0.01818500 -0.02676200
v 0.04956400 0.02882700 -0.00451100
v 0.05198100 0.01624800 -0.00402700
v 0.04762800 0.01818500 -0.02724900
v 0.05343400 0.02495600 -0.01708800
v 0.05004700 0.02108800 -0.02724900
v 0.05053100 0.02882700 -0.01612000
v 0.05149900 0.01624800 0.02451700
v 0.05004600 0.00367000 0.03274200
v 0.05004600 0.00705900 0.03225800
v 0.04762800 0.01576400 0.02596900
v 0.04956300 -0.00116800 0.02887000
v 0.04762800 -0.00116800 0.03274200
v 0.05149900 -0.00116800 0.03177300
v 0.04762800 0.01431200 0.02983900
v 0.05149900 0.01576400 0.02790500
v 0.05149900 -0.00068400 0.02887000
v 0.04762800 -0.00116800 0.03080600
v 0.04956300 0.01527800 0.02451700
v 0.04762800 0.00705900 0.03225800
v 0.04520900 -0.01616300 0.01484100
v 0.04714400 0.00560200 0.02403400
v 0.04714400 0.00850500 0.02306400
v 0.04520900 0.00560200 0.02403400
v 0.04520900 0.01624500 0.01484100
v 0.04714400 -0.01616300 0.01484100
v 0.04714400 0.01624500 0.01484100
v 0.04714400 -0.00842300 0.02306400
v 0.04520900 -0.01326000 0.02064700
v 0.04520900 0.01479200 0.01967800
v 0.04520900 -0.00552000 0.02403400
v 0.04714400 -0.01616300 0.01822800
v 0.04714400 0.01624500 0.01822800
v 0.05053100 -0.01616600 0.02838900
v 0.05053100 -0.00116800 0.03274200
v 0.05149900 -0.01519700 0.02451700
v 0.04762800 -0.01616600 0.02596900
v 0.04762800 -0.01181200 0.03080600
v 0.05149900 -0.01035800 0.03032300
v 0.05149900 -0.00116800 0.02887000
v 0.05004600 -0.00890800 0.03177300
v 0.04956300 -0.01519700 0.02451700
v 0.04520900 0.01479200 0.01967700
v 0.03988800 -0.01616300 -0.01467000
v 0.03940400 -0.01422800 -0.00837700
v 0.03988800 0.01624500 -0.01467000
v 0.04230700 -0.01616300 0.02403400
v 0.04520900 -0.00745500 -0.01321500
v 0.04520900 -0.01616300 0.01822600
v 0.04375800 0.01624500 -0.01467000
v 0.04375800 -0.01616300 -0.01467000
v 0.04520900 0.00559900 0.02403400
v 0.03940400 0.01189000 0.01145600
v 0.04520900 0.01285700 -0.00789300
v 0.03940400 0.00753700 -0.01467000
v 0.04520900 0.01624500 0.01822600
v 0.03940400 -0.00600200 0.01532400
v 0.04520900 -0.01519500 -0.00064100
v 0.04520900 -0.00551700 0.02403400
v 0.04520900 0.00173200 -0.01467000
v 0.03940400 0.01624500 -0.00161100
v 0.04230700 0.01624500 0.02403400
v 0.03940400 -0.01616300 0.00226500
v 0.03940400 -0.00745500 -0.01467000
v 0.04520900 0.01479200 -0.00161100
v 0.05198200 0.01624800 -0.00402700
v 0.05198200 0.02882700 0.00419800
v 0.05198200 0.01624800 0.00419800
v 0.05198200 0.02882700 -0.00402700
v 0.04375800 -0.00842500 -0.04369400
v 0.05149900 -0.00649000 -0.05337400
v 0.05149900 -0.00697400 -0.05337400
v 0.04714600 -0.00697400 -0.02966800
v 0.04714600 -0.00842500 -0.02966800
v 0.04714600 -0.00842500 -0.05288900
v 0.04375800 -0.00649000 -0.03934500
v 0.05149900 -0.00745800 -0.05627500
v 0.04375800 -0.00745800 -0.05676100
v 0.04375800 -0.00842500 -0.03644400
f 2 7 10
f 2 3 4
f 4 3 5
f 5 3 6
f 3 2 6
f 2 4 7
f 4 1 7
f 1 4 8
f 4 5 8
f 5 6 8
f 8 6 9
f 7 1 9
f 6 7 9
f 1 8 9
f 6 2 10
f 7 6 10
f 50 15 58
f 11 16 17
f 11 17 20
f 16 11 22
f 17 16 23
f 23 16 28
f 16 24 28
f 23 12 31
f 29 18 32
f 20 17 33
f 19 30 34
f 33 17 34
f 11 20 35
f 11 35 36
f 30 19 37
f 21 25 38
f 24 16 39
f 32 24 39
f 29 32 39
f 15 27 40
f 27 18 40
f 16 22 41
f 39 16 41
f 29 39 41
f 22 26 42
f 18 29 42
f 26 40 42
f 40 18 42
f 41 22 42
f 29 41 42
f 38 14 43
f 21 38 43
f 31 19 44
f 19 34 44
f 34 17 44
f 17 23 45
f 23 31 45
f 44 17 45
f 31 44 45
f 24 32 46
f 13 12 47
f 28 24 47
f 46 13 47
f 24 46 47
f 12 13 48
f 31 12 48
f 19 31 48
f 13 37 48
f 37 19 48
f 37 27 49
f 30 37 49
f 21 43 49
f 43 30 49
f 25 21 50
f 27 15 50
f 21 49 50
f 49 27 50
f 18 27 51
f 32 18 51
f 37 13 51
f 27 37 51
f 13 46 51
f 46 32 51
f 35 20 52
f 25 35 52
f 20 38 52
f 38 25 52
f 36 15 53
f 11 36 53
f 15 40 53
f 40 26 53
f 22 11 54
f 26 22 54
f 11 53 54
f 53 26 54
f 33 14 55
f 20 33 55
f 14 38 55
f 38 20 55
f 12 23 56
f 23 28 56
f 47 12 56
f 28 47 56
f 14 33 57
f 34 30 57
f 33 34 57
f 43 14 57
f 30 43 57
f 35 25 58
f 36 35 58
f 15 36 58
f 25 50 58
f 71 61 72
f 61 60 62
f 62 60 64
f 63 62 64
f 61 62 65
f 59 63 66
f 63 59 67
f 62 63 67
f 61 65 68
f 65 62 69
f 67 59 69
f 62 67 69
f 59 68 69
f 68 65 69
f 59 66 70
f 68 59 70
f 60 61 71
f 64 60 71
f 63 64 71
f 66 63 71
f 66 71 72
f 61 68 72
f 70 66 72
f 68 70 72
f 83 79 85
f 74 75 76
f 75 74 77
f 74 76 77
f 77 76 79
f 76 78 79
f 73 78 80
f 78 76 80
f 75 77 81
f 73 80 81
f 81 80 82
f 75 81 82
f 78 73 83
f 77 79 83
f 73 81 83
f 81 77 83
f 76 75 84
f 80 76 84
f 82 80 84
f 75 82 84
f 79 78 85
f 78 83 85
f 106 98 111
f 89 86 91
f 90 91 92
f 89 91 93
f 91 90 93
f 87 94 95
f 87 95 96
f 86 89 97
f 94 86 97
f 95 94 97
f 90 92 98
f 94 87 99
f 92 91 100
f 89 95 101
f 97 89 101
f 95 97 101
f 89 93 103
f 93 90 103
f 95 89 103
f 90 102 103
f 102 95 103
f 88 98 104
f 98 92 104
f 99 92 105
f 94 99 105
f 100 94 105
f 92 100 105
f 91 86 107
f 86 94 107
f 94 100 107
f 100 91 107
f 87 88 108
f 99 87 108
f 92 99 108
f 88 104 108
f 104 92 108
f 90 96 109
f 96 95 109
f 102 90 109
f 95 102 109
f 96 90 110
f 90 98 110
f 106 96 110
f 98 106 110
f 88 87 111
f 87 96 111
f 98 88 111
f 96 106 111
f 119 118 121
f 114 113 115
f 113 114 116
f 114 115 116
f 112 116 117
f 116 115 117
f 115 113 118
f 117 115 118
f 116 112 119
f 113 116 119
f 112 118 119
f 112 117 120
f 118 112 120
f 117 118 120
f 118 113 121
f 113 119 121
f 133 130 140
f 124 123 126
f 125 123 127
f 123 124 128
f 127 123 128
f 127 128 129
f 125 127 129
f 124 126 130
f 129 128 131
f 126 129 131
f 130 126 131
f 131 128 132
f 124 130 133
f 126 125 134
f 129 126 134
f 125 129 134
f 123 125 135
f 126 123 135
f 126 135 136
f 125 126 136
f 135 125 136
f 122 131 137
f 131 132 137
f 133 122 137
f 128 124 138
f 132 128 138
f 132 138 139
f 124 133 139
f 137 132 139
f 133 137 139
f 138 124 139
f 131 122 140
f 130 131 140
f 122 133 140
f 150 148 157
f 143 141 145
f 127 144 146
f 125 127 146
f 144 127 129
f 127 125 129
f 142 143 147
f 143 145 147
f 146 142 147
f 125 146 147
f 146 144 148
f 141 144 149
f 129 145 149
f 147 145 151
f 125 147 151
f 145 125 152
f 151 145 152
f 125 151 152
f 145 141 153
f 141 149 153
f 149 145 153
f 142 146 154
f 146 148 154
f 154 148 155
f 141 143 155
f 143 142 155
f 150 141 155
f 148 150 155
f 142 154 155
f 144 129 156
f 149 144 156
f 129 149 156
f 125 145 134
f 145 129 134
f 129 125 134
f 144 141 157
f 148 144 157
f 141 150 157
f 172 164 173
f 160 159 161
f 159 160 162
f 160 161 162
f 161 159 163
f 162 161 165
f 159 162 166
f 158 161 167
f 161 163 167
f 163 164 167
f 161 158 168
f 158 162 168
f 165 161 168
f 163 159 169
f 164 163 169
f 164 158 170
f 158 167 170
f 167 164 170
f 162 165 171
f 168 162 171
f 165 168 171
f 162 158 172
f 158 164 172
f 166 162 172
f 166 172 173
f 159 166 173
f 169 159 173
f 164 169 173
f 181 183 191
f 174 179 180
f 178 181 182
f 179 178 182
f 174 180 183
f 181 174 183
f 177 180 184
f 181 177 184
f 182 181 184
f 176 182 184
f 176 175 185
f 180 179 185
f 182 176 185
f 178 179 187
f 179 174 187
f 186 178 187
f 175 176 188
f 176 184 188
f 184 180 188
f 185 175 188
f 180 185 188
f 174 181 189
f 181 178 189
f 178 186 189
f 187 174 189
f 186 187 189
f 179 182 190
f 185 179 190
f 182 185 190
f 180 177 191
f 177 181 191
f 183 180 191
f 194 200 201
f 193 194 195
f 195 192 197
f 196 195 197
f 194 192 198
f 195 194 198
f 192 195 198
f 193 195 199
f 195 196 199
f 196 193 199
f 194 193 200
f 193 196 200
f 197 192 200
f 196 197 200
f 192 194 201
f 200 192 201
f 209 208 214
f 206 202 207
f 205 206 207
f 203 205 208
f 202 206 209
f 205 203 210
f 206 205 210
f 203 206 210
f 204 203 211
f 203 208 211
f 209 204 211
f 208 209 211
f 203 204 212
f 206 203 212
f 209 206 212
f 204 209 212
f 207 202 213
f 205 207 213
f 202 208 213
f 208 205 213
f 208 202 214
f 202 209 214
f 219 218 74
f 216 217 218
f 217 216 219
f 216 218 219
f 215 218 220
f 219 215 221
f 217 219 221
f 220 217 221
f 215 220 221
f 218 217 222
f 217 220 222
f 220 218 222
f 218 215 74
f 215 219 74
f 239 231 244
f 225 224 223
f 224 225 228
f 226 227 228
f 223 224 229
f 224 227 229
f 225 223 230
f 226 228 231
f 227 224 232
f 224 228 232
f 228 227 232
f 227 226 233
f 230 223 234
f 226 231 235
f 223 229 236
f 228 225 237
f 231 228 237
f 223 226 238
f 234 223 238
f 226 235 238
f 235 234 238
f 225 230 239
f 230 231 239
f 229 227 240
f 227 233 240
f 236 229 240
f 233 236 240
f 226 223 241
f 223 233 241
f 233 226 241
f 233 223 242
f 223 236 242
f 236 233 242
f 231 230 243
f 230 234 243
f 235 231 243
f 234 235 243
f 237 225 244
f 231 237 244
f 225 239 244
f 256 261 270
f 248 249 251
f 248 245 252
f 249 248 252
f 248 251 253
f 251 249 253
f 249 252 254
f 245 248 256
f 248 253 256
f 250 255 257
f 253 249 259
f 258 245 260
f 246 247 261
f 256 253 261
f 254 258 262
f 250 259 262
f 258 260 262
f 245 256 263
f 247 246 264
f 256 247 264
f 257 255 264
f 255 263 264
f 263 256 264
f 246 261 265
f 261 253 265
f 264 246 265
f 257 264 265
f 255 250 266
f 260 245 266
f 250 262 266
f 262 260 266
f 263 255 266
f 245 263 266
f 249 254 267
f 259 249 267
f 254 262 267
f 262 259 267
f 252 245 268
f 254 252 268
f 245 258 268
f 258 254 268
f 250 257 269
f 253 259 269
f 259 250 269
f 265 253 269
f 257 265 269
f 247 256 270
f 261 247 270
f 284 288 292
f 273 272 274
f 273 274 277
f 274 275 277
f 275 273 277
f 274 272 278
f 275 274 279
f 271 278 282
f 278 276 282
f 276 281 282
f 273 275 283
f 276 278 283
f 281 276 283
f 274 278 284
f 278 271 284
f 281 280 285
f 284 271 285
f 272 273 286
f 273 283 286
f 283 278 286
f 275 279 287
f 280 287 288
f 285 280 288
f 284 285 288
f 287 279 288
f 271 282 289
f 282 281 289
f 285 271 289
f 281 285 289
f 280 281 290
f 283 275 290
f 281 283 290
f 275 287 290
f 287 280 290
f 278 272 291
f 272 286 291
f 286 278 291
f 279 274 292
f 274 284 292
f 288 279 292
f 311 300 313
f 295 294 248
f 293 248 298
f 296 248 251
f 248 294 251
f 248 296 301
f 296 298 301
f 298 248 301
f 296 251 302
f 298 296 305
f 299 298 305
f 296 302 305
f 248 293 306
f 295 248 306
f 293 298 307
f 298 299 307
f 303 293 307
f 303 307 308
f 297 303 308
f 299 305 308
f 307 299 308
f 294 295 309
f 304 294 309
f 300 304 309
f 295 306 309
f 306 300 309
f 300 297 310
f 297 302 310
f 304 300 310
f 302 304 310
f 297 300 311
f 293 303 311
f 303 297 311
f 302 297 312
f 305 302 312
f 297 308 312
f 308 305 312
f 251 294 253
f 302 251 253
f 294 304 253
f 304 302 253
f 306 293 313
f 300 306 313
f 293 311 313
f 320 329 333
f 315 316 319
f 318 317 319
f 316 318 321
f 319 316 321
f 318 319 321
f 315 319 322
f 319 317 322
f 322 317 323
f 318 316 325
f 314 323 325
f 324 314 325
f 323 314 327
f 314 324 327
f 327 324 328
f 315 326 328
f 326 320 328
f 320 327 328
f 315 322 329
f 326 315 329
f 320 326 329
f 317 318 330
f 318 325 330
f 325 323 330
f 323 317 331
f 317 330 331
f 330 323 331
f 316 315 332
f 325 316 332
f 324 325 332
f 328 324 332
f 315 328 332
f 322 323 333
f 327 320 333
f 323 327 333
f 329 322 333
f 345 347 350
f 338 337 339
f 217 334 216
f 339 337 216
f 338 339 340
f 335 336 341
f 334 217 342
f 217 338 342
f 335 341 343
f 342 335 343
f 334 342 343
f 337 338 344
f 338 217 344
f 217 216 344
f 336 335 345
f 335 342 345
f 216 337 346
f 337 344 346
f 344 216 346
f 338 340 347
f 342 338 347
f 345 342 347
f 216 334 348
f 339 216 348
f 341 339 348
f 343 341 348
f 334 343 348
f 336 340 349
f 340 339 349
f 339 341 349
f 341 336 349
f 340 336 350
f 336 345 350
f 347 340 350
f 376 371 382
f 353 355 356
f 355 354 356
f 355 353 358
f 354 355 361
f 359 354 361
f 353 356 362
f 356 354 362
f 353 352 364
f 358 353 364
f 361 351 365
f 359 361 365
f 351 363 365
f 352 353 366
f 353 362 367
f 362 360 367
f 362 354 368
f 360 362 368
f 351 361 369
f 361 355 369
f 355 358 370
f 369 355 370
f 354 359 371
f 364 352 372
f 357 364 372
f 357 365 373
f 365 363 373
f 364 357 374
f 358 364 374
f 357 373 374
f 373 358 374
f 370 358 375
f 358 373 375
f 373 363 375
f 367 360 376
f 360 371 376
f 363 351 377
f 351 369 377
f 369 370 377
f 375 363 377
f 370 375 377
f 365 357 378
f 359 365 378
f 357 372 378
f 366 353 379
f 353 367 379
f 376 366 379
f 367 376 379
f 352 366 380
f 366 359 380
f 372 352 380
f 359 378 380
f 378 372 380
f 368 354 381
f 360 368 381
f 354 371 381
f 371 360 381
f 359 366 382
f 371 359 382
f 366 376 382
f 388 394 398
f 385 384 386
f 384 385 388
f 386 384 390
f 383 389 390
f 384 388 391
f 383 390 391
f 385 386 392
f 386 387 392
f 388 385 392
f 390 389 393
f 392 387 394
f 388 392 394
f 390 384 395
f 384 391 395
f 391 390 395
f 387 386 396
f 389 387 396
f 386 390 396
f 393 389 396
f 390 393 396
f 389 383 397
f 387 389 397
f 383 394 397
f 394 387 397
f 391 388 398
f 383 391 398
f 394 383 398
f 399 413 414
f 400 401 402
f 401 400 403
f 402 401 404
f 404 403 407
f 402 404 407
f 408 406 409
f 403 400 409
f 406 399 409
f 407 403 409
f 399 407 409
f 400 408 409
f 400 402 410
f 402 407 410
f 408 400 411
f 406 408 411
f 400 410 411
f 410 405 411
f 401 403 412
f 404 401 412
f 403 404 412
f 399 406 413
f 406 411 413
f 413 411 414
f 407 399 414
f 410 407 414
f 405 410 414
f 411 405 414
f 415 427 436
f 416 417 420
f 415 420 421
f 420 417 423
f 418 420 423
f 415 421 425
f 421 422 425
f 418 423 426
f 424 419 428
f 419 426 428
f 426 419 429
f 419 427 429
f 416 420 430
f 420 415 430
f 415 424 430
f 421 418 431
f 422 421 431
f 418 426 431
f 429 422 431
f 426 429 431
f 423 417 432
f 426 423 432
f 417 428 432
f 428 426 432
f 417 416 433
f 428 417 433
f 424 428 433
f 416 430 433
f 430 424 433
f 415 425 434
f 425 422 434
f 427 415 434
f 422 429 434
f 429 427 434
f 420 418 435
f 418 421 435
f 421 420 435
f 424 415 436
f 419 424 436
f 427 419 436
f 443 442 451
f 438 439 440
f 439 438 442
f 437 441 442
f 440 439 443
f 439 442 443
f 437 442 444
f 444 438 445
f 442 438 446
f 438 444 446
f 444 442 446
f 441 437 447
f 440 441 447
f 437 444 448
f 444 445 448
f 447 437 448
f 441 440 449
f 440 443 449
f 443 441 449
f 438 440 450
f 445 438 450
f 440 447 450
f 448 445 450
f 447 448 450
f 442 441 451
f 441 443 451
f 458 462 465
f 454 453 455
f 453 454 458
f 457 453 458
f 455 453 459
f 453 457 459
f 457 455 459
f 456 455 460
f 455 457 460
f 454 455 461
f 455 456 461
f 456 454 461
f 460 452 463
f 456 460 463
f 452 462 463
f 462 456 463
f 454 456 464
f 458 454 464
f 456 462 464
f 462 458 464
f 457 458 465
f 452 460 465
f 460 457 465
f 462 452 465
f 473 471 476
f 468 467 461
f 467 468 469
f 468 461 469
f 467 469 471
f 470 467 471
f 461 467 472
f 467 470 472
f 466 469 456
f 469 461 456
f 470 471 473
f 466 456 474
f 456 470 474
f 473 466 474
f 470 473 474
f 461 472 475
f 472 470 475
f 456 461 475
f 470 456 475
f 469 466 476
f 471 469 476
f 466 473 476
f 480 487 488
f 481 477 482
f 480 481 482
f 482 477 483
f 480 482 483
f 477 481 484
f 483 477 484
f 481 480 468
f 484 481 468
f 480 483 485
f 483 484 485
f 485 484 486
f 478 479 486
f 468 478 486
f 484 468 486
f 479 485 486
f 485 479 487
f 480 485 487
f 479 478 488
f 478 468 488
f 468 480 488
f 487 479 488
f 505 489 507
f 491 490 492
f 492 490 495
f 493 492 495
f 490 493 495
f 491 492 497
f 490 491 499
f 493 490 499
f 497 494 499
f 492 493 500
f 497 492 500
f 489 497 500
f 498 493 501
f 493 499 501
f 499 494 501
f 491 497 503
f 499 491 503
f 497 499 503
f 498 501 504
f 501 494 504
f 502 504 505
f 494 497 505
f 497 489 505
f 504 494 505
f 493 498 506
f 498 496 506
f 500 493 506
f 496 500 506
f 496 498 507
f 489 500 507
f 500 496 507
f 498 504 507
f 504 502 507
f 502 505 507
f 527 521 531
f 509 510 315
f 509 315 517
f 315 511 517
f 509 517 518
f 509 518 519
f 510 509 519
f 512 514 519
f 518 512 519
f 516 513 521
f 510 513 522
f 315 510 522
f 513 516 522
f 513 510 523
f 510 519 523
f 519 514 523
f 512 518 524
f 508 520 524
f 511 516 525
f 521 515 525
f 516 521 525
f 517 511 526
f 518 517 526
f 511 525 526
f 525 515 526
f 515 521 527
f 508 524 527
f 524 518 527
f 526 515 527
f 518 526 527
f 511 315 528
f 516 511 528
f 315 522 528
f 522 516 528
f 514 512 529
f 512 524 529
f 524 520 529
f 520 513 530
f 513 523 530
f 523 514 530
f 514 529 530
f 529 520 530
f 520 508 531
f 513 520 531
f 521 513 531
f 508 527 531
f 541 532 544
f 533 534 535
f 534 533 536
f 535 534 536
f 535 536 537
f 535 537 538
f 538 537 539
f 537 536 539
f 532 538 539
f 539 536 540
f 536 533 540
f 533 538 541
f 538 532 541
f 533 535 542
f 538 533 542
f 535 538 542
f 532 539 543
f 539 540 543
f 540 532 543
f 540 533 544
f 532 540 544
f 533 541 544
f 533 550 557
f 535 547 548
f 534 535 548
f 547 546 549
f 546 547 550
f 547 535 550
f 534 548 551
f 545 549 551
f 549 534 551
f 535 534 533
f 534 549 533
f 546 550 533
f 549 545 552
f 548 547 553
f 547 552 553
f 553 552 554
f 545 551 554
f 551 548 554
f 552 545 554
f 548 553 554
f 549 546 555
f 533 549 555
f 546 533 555
f 547 549 556
f 552 547 556
f 549 552 556
f 550 535 557
f 535 533 557
f 567 560 569
f 560 559 561
f 561 559 563
f 562 561 563
f 562 564 539
f 558 561 539
f 561 562 539
f 561 558 565
f 563 559 566
f 562 563 566
f 564 562 566
f 539 564 567
f 558 539 567
f 559 560 568
f 566 559 568
f 564 566 568
f 560 567 568
f 567 564 568
f 560 561 569
f 565 558 569
f 561 565 569
f 558 567 569
f 222 570 574
f 566 563 570
f 338 563 559
f 563 566 559
f 566 570 550
f 550 570 547
f 549 550 547
f 550 549 546
f 566 550 546
f 563 338 222
f 547 570 222
f 549 338 571
f 338 559 571
f 338 549 556
f 549 547 556
f 547 222 556
f 546 549 572
f 549 571 572
f 572 571 568
f 559 566 568
f 566 546 568
f 571 559 568
f 546 572 568
f 222 338 573
f 338 556 573
f 556 222 573
f 570 563 574
f 563 222 574
f 575 585 587
f 576 577 578
f 577 576 580
f 578 575 581
f 580 579 581
f 576 578 582
f 579 576 582
f 579 582 583
f 578 581 583
f 582 578 583
f 576 579 584
f 580 576 584
f 579 580 584
f 578 577 585
f 575 578 585
f 581 579 586
f 579 583 586
f 583 581 586
f 577 580 587
f 581 575 587
f 580 581 587
f 585 577 587
f 592 591 595
f 583 589 590
f 581 590 591
f 589 583 592
f 590 589 592
f 591 592 593
f 592 583 593
f 593 583 578
f 581 588 578
f 583 581 578
f 588 593 578
f 588 581 594
f 581 591 594
f 591 593 594
f 593 588 594
f 583 590 586
f 590 581 586
f 581 583 586
f 591 590 595
f 590 592 595
f 605 613 614
f 600 596 601
f 598 601 602
f 596 600 604
f 603 599 604
f 604 600 606
f 603 604 606
f 598 602 607
f 603 598 607
f 602 605 607
f 602 601 608
f 605 602 608
f 599 603 609
f 605 599 609
f 603 607 609
f 607 605 609
f 597 598 610
f 600 597 610
f 598 603 610
f 606 600 610
f 603 606 610
f 598 597 611
f 597 600 611
f 600 601 611
f 601 598 611
f 601 596 612
f 596 608 612
f 608 601 612
f 596 604 613
f 608 596 613
f 605 608 613
f 604 599 614
f 599 605 614
f 613 604 614
f 621 356 626
f 616 617 618
f 618 615 619
f 617 616 621
f 620 615 621
f 615 618 356
f 621 615 356
f 619 615 622
f 620 619 622
f 615 620 622
f 616 618 623
f 618 619 623
f 621 616 624
f 620 621 624
f 616 623 624
f 623 620 624
f 619 620 625
f 623 619 625
f 620 623 625
f 618 617 626
f 617 621 626
f 356 618 626
f 637 628 638
f 629 628 630
f 631 630 633
f 632 627 633
f 630 632 633
f 629 630 634
f 630 631 634
f 631 629 634
f 629 631 635
f 633 627 635
f 631 633 635
f 628 629 636
f 635 627 636
f 629 635 636
f 630 628 637
f 632 630 637
f 632 637 638
f 627 632 638
f 628 636 638
f 636 627 638
f 645 649 652
f 640 387 227
f 639 641 227
f 641 640 227
f 641 639 644
f 642 640 644
f 640 642 646
f 387 640 646
f 643 387 646
f 227 387 647
f 639 227 647
f 645 639 647
f 645 647 648
f 387 643 648
f 647 387 648
f 648 643 649
f 643 642 649
f 642 644 649
f 645 648 649
f 640 641 650
f 641 644 650
f 644 640 650
f 642 643 651
f 646 642 651
f 643 646 651
f 644 639 652
f 639 645 652
f 649 644 652
f 663 659 673
f 654 655 658
f 656 657 658
f 656 653 660
f 657 656 660
f 655 659 661
f 656 658 662
f 661 656 662
f 657 660 663
f 653 661 663
f 661 659 663
f 658 657 664
f 655 654 665
f 654 658 665
f 659 655 665
f 658 664 665
f 655 661 666
f 661 662 666
f 653 656 667
f 661 653 667
f 661 667 668
f 656 661 668
f 667 656 668
f 660 653 669
f 653 663 669
f 663 660 669
f 658 655 670
f 662 658 670
f 657 659 671
f 664 657 671
f 659 665 671
f 665 664 671
f 655 666 672
f 666 662 672
f 670 655 672
f 662 670 672
f 659 657 673
f 657 663 673
f 681 678 682
f 675 676 677
f 676 675 678
f 675 677 678
f 678 677 679
f 676 674 680
f 677 676 680
f 674 676 681
f 676 678 681
f 679 677 682
f 678 679 682
f 680 674 682
f 677 680 682
f 674 681 682
f 698 692 700
f 684 685 686
f 686 685 689
f 685 684 690
f 687 688 690
f 688 687 691
f 689 683 691
f 687 690 693
f 689 685 694
f 691 687 695
f 689 691 695
f 684 686 696
f 686 689 696
f 693 684 696
f 687 693 696
f 695 687 696
f 689 695 696
f 690 684 697
f 684 693 697
f 693 690 697
f 683 689 698
f 689 694 698
f 694 692 698
f 685 690 699
f 690 688 699
f 688 692 699
f 694 685 699
f 692 694 699
f 688 691 700
f 691 683 700
f 692 688 700
f 683 698 700
f 708 706 713
f 703 702 707
f 702 706 707
f 706 705 707
f 704 706 708
f 701 704 709
f 707 701 709
f 703 707 709
f 708 703 709
f 704 708 709
f 701 707 710
f 707 705 710
f 704 705 711
f 705 706 711
f 706 704 711
f 704 701 712
f 705 704 712
f 701 710 712
f 710 705 712
f 702 703 713
f 706 702 713
f 703 708 713
f 718 723 726
f 715 716 717
f 714 717 718
f 716 715 719
f 714 718 719
f 716 719 720
f 719 718 720
f 719 715 721
f 717 714 722
f 717 716 723
f 718 717 723
f 715 717 724
f 721 715 724
f 722 721 724
f 717 722 724
f 714 719 725
f 719 721 725
f 721 722 725
f 722 714 725
f 716 720 726
f 720 718 726
f 723 716 726
f 705 729 735
f 729 727 730
f 706 728 705
f 730 727 731
f 706 730 731
f 705 728 707
f 727 729 732
f 707 728 732
f 729 707 732
f 729 705 733
f 707 729 733
f 705 707 733
f 730 706 711
f 706 705 711
f 705 730 711
f 728 706 734
f 731 727 734
f 706 731 734
f 727 732 734
f 732 728 734
f 729 730 735
f 730 705 735
f 749 747 758
f 740 737 742
f 741 736 742
f 737 739 743
f 739 656 743
f 740 656 660
f 737 740 660
f 742 737 744
f 737 743 744
f 656 740 745
f 742 736 745
f 736 741 747
f 739 737 748
f 738 746 748
f 743 656 749
f 736 747 749
f 660 656 750
f 746 738 750
f 656 746 750
f 741 742 751
f 742 744 751
f 744 741 751
f 740 742 752
f 745 740 752
f 742 745 752
f 741 744 753
f 744 743 753
f 747 741 753
f 743 747 753
f 656 739 754
f 746 656 754
f 739 748 754
f 748 746 754
f 745 736 755
f 656 745 755
f 736 749 755
f 749 656 755
f 738 737 756
f 737 660 756
f 750 738 756
f 660 750 756
f 737 738 757
f 738 748 757
f 748 737 757
f 747 743 758
f 743 749 758
f 760 689 762
f 629 760 646
f 760 629 689
f 629 646 689
f 646 759 686
f 759 689 686
f 689 646 686
f 760 759 761
f 646 760 761
f 759 646 761
f 759 760 762
f 689 759 762
f 769 763 772
f 765 764 766
f 765 766 767
f 767 763 768
f 766 764 769
f 675 763 769
f 764 675 769
f 764 765 770
f 675 764 770
f 765 767 770
f 767 768 770
f 770 768 771
f 763 675 771
f 768 763 771
f 675 770 771
f 763 767 772
f 767 766 772
f 766 769 772

