# https://github.com/mikedh/trimesh
v 0.03903800 0.02979800 0.01480100
v -0.05623100 0.02582800 0.00488000
v -0.05623100 0.02582800 0.00752700
v -0.01189800 0.04038000 0.01149800
v -0.05027200 0.02582800 0.02009700
v 0.03506500 0.03707300 0.00488000
v 0.01323400 0.02582800 0.00488000
v 0.03572700 0.03641000 0.01811000
v 0.03903800 0.02582800 0.02009700
v -0.03505300 0.03707300 0.01744800
v -0.03505300 0.03707300 0.00488000
v 0.03903800 0.03112000 0.00488000
v 0.01058600 0.04038000 0.00752700
v -0.05027200 0.03244300 0.00686500
v 0.01058600 0.04038000 0.01215800
v -0.01322200 0.03905700 0.00488000
v 0.03903800 0.02582800 0.01678800
v -0.05027200 0.02649100 0.02009700
v -0.03571500 0.03641000 0.01811000
v 0.03704200 0.02715200 0.02009700
v -0.05027200 0.03045900 0.01347900
v 0.03506500 0.03707300 0.01744800
v -0.01058300 0.04038000 0.00752700
v -0.05027200 0.03244300 0.00488000
v 0.01323400 0.03905700 0.00488000
v 0.03704200 0.03508900 0.01811000
v 0.03903800 0.03045900 0.00554300
v -0.03703900 0.02715200 0.02009700
v 0.03903800 0.03244300 0.00488000
v 0.01191000 0.04038000 0.01149800
v -0.05623100 0.02649100 0.00752700
v -0.05292100 0.02649100 0.01612600
v -0.01124500 0.04038000 0.01215800
v 0.04433100 0.00332900 0.00355700
v -0.00131900 -0.02576800 -0.00372000
v -0.00131900 -0.02576800 0.00421800
v 0.00463700 0.03773100 -0.00504300
v 0.03903600 -0.03238400 -0.00570600
v -0.00131900 0.03177500 0.00488000
v 0.03705200 0.03508300 -0.00570600
v 0.03506800 -0.03702100 0.00488000
v 0.02514300 0.04633600 0.00421800
v 0.00463700 -0.03768100 -0.00570600
v 0.03903600 0.03243500 0.00488000
v -0.00131900 0.03177500 -0.00570600
v 0.00529900 -0.03768100 0.00488000
v 0.04433100 0.00134900 -0.00438000
v 0.02448200 0.04633600 -0.00438000
v 0.03903600 -0.03238400 0.00488000
v 0.03506800 -0.03702100 -0.00570600
v 0.01323900 -0.03900900 -0.00570600
v 0.01985300 0.04633600 0.00157000
v 0.03903600 0.03243500 -0.00570600
v -0.00131900 -0.02510800 -0.00570600
v 0.00529900 0.03773100 0.00488000
v 0.04433100 -0.00195000 0.00421800
v 0.02778900 0.04633600 0.00223400
v 0.00927100 -0.03900900 0.00488000
v 0.00927100 0.03905100 -0.00570600
v 0.04433100 -0.00393000 -0.00239600
v -0.00131900 -0.02510800 0.00488000
v 0.02580500 0.04236000 0.00488000
v 0.02778900 0.04633600 -0.00239600
v 0.03903600 0.03309500 0.00091000
v 0.04433100 0.00398100 -0.00239600
v 0.01985300 0.04633600 -0.00173500
v 0.03903600 -0.03304400 -0.00239600
v 0.01323900 -0.03900900 0.00488000
v 0.03506800 0.03706300 -0.00570600
v 0.02249800 0.04633600 0.00421800
v 0.04433100 -0.00393000 0.00223400
v 0.00927100 -0.03900900 -0.00570600
v 0.00463700 0.03773100 -0.00570600
v 0.00133100 -0.03172400 -0.00504300
v 0.03705200 0.03508300 0.00488000
v 0.03903800 -0.02974900 0.01480400
v -0.05424600 -0.02842500 0.00488000
v -0.05424600 -0.02842500 0.00818900
v -0.01190500 -0.04033200 0.00818900
v -0.03571900 -0.03636100 0.01811000
v 0.03903800 -0.03107200 0.00488000
v 0.03506600 -0.03702300 0.01745000
v -0.03703400 -0.02776400 0.01877300
v 0.03704700 -0.02776400 0.01877300
v 0.03506600 -0.03702300 0.00488000
v 0.01323300 -0.02776400 0.00488000
v -0.03505300 -0.03702300 0.00488000
v 0.01125200 -0.04033200 0.01215600
v -0.05027400 -0.02776400 0.01745000
v -0.05027400 -0.03239400 0.00752600
v 0.01323300 -0.03900700 0.00488000
v -0.05424600 -0.02776400 0.00488000
v 0.03903800 -0.02776400 0.01347900
v -0.03505300 -0.03702300 0.01745000
v 0.03572300 -0.03636100 0.01811000
v -0.01124700 -0.04033200 0.01215600
v 0.01190900 -0.04033200 0.00818900
v -0.03505300 -0.03041000 0.01877300
v -0.01322900 -0.03900700 0.00488000
v -0.05093200 -0.02974900 0.01414100
v 0.03903800 -0.03239400 0.00686500
v -0.05027400 -0.03239400 0.00488000
v 0.03704700 -0.02974900 0.01877300
v 0.03704700 -0.03503800 0.01811000
v 0.01058500 -0.04033200 0.00752600
v 0.03903800 -0.02776400 0.01745000
v -0.05027400 -0.02842500 0.01745000
v -0.02050300 0.04633600 0.00289400
v -0.03836800 -0.03370800 -0.01628700
v -0.03704400 -0.03503100 -0.01827500
v -0.00529000 -0.03767800 0.00488000
v -0.00131900 0.03575000 -0.01827500
v -0.00131900 -0.03635400 -0.01827500
v -0.03836800 -0.03238400 0.00488000
v -0.03704400 0.03507900 -0.01827500
v -0.00131900 0.03177100 0.00488000
v -0.03836800 0.03243300 0.00488000
v -0.03836800 0.02714000 -0.01893700
v -0.00131900 -0.02510600 0.00488000
v -0.01190500 -0.04032400 -0.00835100
v -0.02645800 0.04633600 -0.00372300
v -0.03505700 -0.03701600 0.00488000
v -0.00131900 -0.02973800 -0.01893700
v -0.00131900 0.03905800 -0.01033200
v -0.03836800 -0.02709100 -0.01893700
v -0.00131900 0.02912500 -0.01893700
v -0.03505700 -0.03701600 -0.01761100
v -0.00529000 0.03772600 0.00488000
v -0.00131900 -0.03900100 -0.01298300
v -0.02778200 0.04633600 0.00222900
v -0.03572000 0.03641100 -0.01827500
v -0.02513400 0.04633600 0.00421800
v -0.00926100 -0.03900100 0.00488000
v -0.00131900 0.03706400 -0.01761100
v -0.02381100 0.04633600 -0.00438500
v -0.00793700 -0.04032400 -0.01165600
v -0.03836800 0.03375600 -0.01298300
v -0.03704400 0.03507900 0.00488000
v -0.00131900 -0.03767800 -0.00702900
v -0.02050300 0.04633600 -0.00306100
v -0.02579800 0.04235800 0.00488000
v -0.00131900 0.03905800 -0.01298300
v -0.01322900 -0.03900100 0.00488000
v -0.03704400 -0.02973800 -0.01893700
v -0.03439700 0.03707300 -0.01761100
v -0.02778200 0.04633600 -0.00240100
v -0.00131900 -0.03701600 -0.01761100
v -0.00131900 -0.03900100 -0.01033200
v -0.03704400 0.02978600 -0.01893700
v -0.03572000 -0.03635400 -0.01827500
v -0.03704400 -0.03503100 0.00488000
v -0.01984300 0.04633600 0.00157200
v -0.00793700 -0.04032400 -0.00835100
v -0.01190500 -0.04032400 -0.01165600
v 0.01191500 0.04036600 -0.00835300
v -0.00131500 -0.03900500 -0.01298100
v 0.00926800 -0.04031600 -0.01232300
v 0.03903400 0.02647900 -0.01959900
v 0.03903400 -0.03238600 -0.00570600
v -0.00131500 0.02780600 -0.01959900
v 0.03903400 -0.02643000 -0.01959900
v -0.00131500 -0.02444700 -0.00570600
v 0.03903400 0.03243500 -0.00570600
v -0.00131500 0.03177200 -0.00570600
v -0.00131500 -0.02775700 -0.01959900
v 0.03506400 0.03707200 -0.01761200
v 0.03572800 -0.03635100 -0.01827600
v -0.00131500 0.03706400 -0.01761200
v 0.01323800 -0.03899700 -0.00570600
v -0.00131500 -0.03635100 -0.01827600
v 0.03506400 0.03707200 -0.00570600
v 0.03506400 -0.03702200 -0.00570600
v -0.00131500 -0.03767800 -0.00702900
v -0.00131500 0.03772800 -0.00702900
v 0.00992800 0.04036600 -0.01232300
v 0.00860800 0.03904700 -0.00570600
v 0.03638700 0.03574500 -0.01827600
v 0.01125500 -0.04031600 -0.00769200
v 0.03506400 -0.03702200 -0.01761200
v -0.00131500 0.03905500 -0.01033900
v 0.00331500 -0.03767800 -0.00570600
v -0.00131500 0.03574500 -0.01827600
v 0.03705100 -0.03503200 -0.01827600
v 0.00860800 0.04036600 -0.00769200
v 0.00860800 -0.04031600 -0.00769200
v 0.03705100 0.02780600 -0.01959900
v 0.03705100 -0.02774900 -0.01959900
v -0.00131500 -0.03701500 -0.01761200
v -0.00131500 0.03905500 -0.01298100
v 0.01191500 -0.04031600 -0.01166100
v 0.03705100 0.03508100 -0.01827600
v 0.03373700 -0.02445200 0.00686500
v 0.01323600 0.02582700 0.01348100
v 0.03439800 0.02119000 0.01348100
v -0.05291500 -0.02776200 0.01348100
v -0.05623100 0.02582700 0.00488000
v 0.03439800 0.02450000 0.00488000
v -0.05489900 -0.02776200 0.00488000
v -0.05623100 0.02383900 0.01348100
v 0.03506800 -0.02048100 0.01348100
v 0.01323600 -0.02776200 0.00488000
v 0.01323600 -0.02776200 0.01348100
v 0.03506800 -0.02378600 0.00488000
v -0.05623100 -0.02379100 0.01348100
v -0.05423800 0.02582700 0.01348100
v 0.01323600 0.02582700 0.00488000
v -0.05623100 -0.02643000 0.00488000
v 0.03506800 0.02317300 0.00818900
v 0.03506800 0.02052900 0.01348100
v 0.03373700 0.02317300 0.01083400
v 0.03373700 -0.02246400 0.01215600
v 0.03506800 0.02383400 0.00488000
v 0.03373700 0.02450000 0.00686500
v 0.03439800 -0.02445200 0.00488000
v -0.05093900 -0.01783700 -0.02753600
v -0.05424500 0.00465600 -0.01893700
v -0.05027700 0.00465600 -0.02952000
v -0.05623100 -0.00527000 -0.02687600
v -0.05027700 -0.02643900 -0.01893700
v -0.05623100 -0.01916100 -0.01893700
v -0.05623100 0.00465600 -0.02687600
v -0.05027700 -0.00659400 -0.03216900
v -0.05623100 0.00465600 -0.01893700
v -0.05093900 0.00465600 -0.03216900
v -0.05027700 -0.02246400 -0.01893700
v -0.05623100 -0.01320500 -0.02423100
v -0.05093900 -0.02313000 -0.02357000
v -0.05093900 -0.00659400 -0.03216900
v -0.05093900 -0.01320500 -0.03018200
v -0.05027700 -0.01585300 -0.02886000
v -0.05556900 -0.02048200 -0.01959900
v -0.05490700 0.01061200 -0.02687600
v -0.05027700 0.02648800 -0.01893700
v -0.05027700 0.02648800 -0.01959900
v -0.05027700 0.00465600 -0.02886000
v -0.05623100 0.01920700 -0.01893700
v -0.05093900 0.01590100 -0.02886000
v -0.05027700 0.00664100 -0.03216900
v -0.05027700 0.02251800 -0.01893700
v -0.05623100 0.01722400 -0.02158600
v -0.05226200 0.02318000 -0.02158600
v -0.05093900 0.00928900 -0.03150600
v -0.05027700 0.01987200 -0.02621400
v -0.00131100 -0.02643900 -0.02026100
v 0.03903400 -0.01651500 -0.02621400
v 0.03903400 -0.01651500 -0.02820000
v 0.03903400 -0.02643900 -0.02026100
v -0.00131100 -0.01651500 -0.01959900
v -0.00131100 -0.01784000 -0.02820000
v 0.03903400 -0.02379200 -0.01959900
v 0.03903400 -0.01982500 -0.02687600
v 0.01323900 -0.01651500 -0.01959900
v -0.00131100 -0.01651500 -0.02820000
v -0.00131100 -0.02643900 -0.01959900
v -0.00131100 -0.01982500 -0.02687600
v 0.03903400 -0.02643900 -0.01959900
v -0.05027700 -0.01056000 -0.03150700
v -0.00131900 0.00465600 -0.02886100
v -0.00131900 0.00465600 -0.03283100
v -0.00131900 -0.01519200 -0.02886100
v -0.05027700 0.00465600 -0.03018500
v -0.05027700 -0.01519200 -0.02886100
v -0.05027700 0.00465600 -0.03283100
v -0.00131900 -0.00460700 -0.03283100
v -0.03770200 0.00200800 -0.02886100
v -0.00131900 -0.01254400 -0.03084600
v -0.05027700 -0.00460700 -0.03283100
v -0.05027700 -0.01519200 -0.02952300
v -0.05027700 -0.00791400 -0.02886100
v -0.00131900 -0.01519200 -0.02952300
v -0.00131900 -0.00791400 -0.03216900
v -0.03175000 0.00399300 -0.02886100
v -0.05027700 -0.01254400 -0.03084600
v -0.05027700 -0.03173100 -0.00967200
v -0.03836800 -0.03107000 0.00488000
v -0.05027700 -0.02908500 0.00488000
v -0.03836800 -0.02908500 -0.01496800
v -0.03836800 -0.03305500 0.00289200
v -0.05093600 -0.03239300 0.00488000
v -0.05292200 -0.02908500 -0.00834900
v -0.03836800 -0.03239300 -0.00702600
v -0.05027700 -0.03305500 -0.00239800
v -0.05027700 -0.02974700 -0.01496800
v -0.05358500 -0.02974700 0.00488000
v -0.03836800 -0.02908500 -0.01033600
v -0.03836800 -0.03040900 -0.01364300
v -0.05358500 -0.02974700 -0.00438500
v -0.05027700 -0.02908500 -0.01496800
v -0.05027700 -0.03305500 0.00289200
v -0.03836800 -0.03305500 -0.00239800
v -0.05424600 0.02516400 -0.01562900
v -0.05358500 0.02847300 0.00488000
v -0.05358500 0.02913500 0.00421800
v -0.05623100 0.02648700 0.00488000
v -0.05424600 -0.01916100 0.00488000
v -0.05358500 -0.01916100 -0.01893700
v -0.05623100 0.01986900 -0.01893700
v -0.05623100 -0.01916100 0.00488000
v -0.05358500 0.02251600 -0.01893700
v -0.05623100 0.02648700 -0.00768800
v -0.05358500 0.02847300 -0.00768800
v -0.05424600 0.02913500 -0.00438500
v -0.05358500 0.02582600 0.00488000
v 0.03903400 0.01656500 -0.02820000
v 0.03903400 0.02648800 -0.01959900
v 0.03903400 0.02648800 -0.02026100
v -0.00131100 0.02053500 -0.02621400
v -0.00131100 0.01656500 -0.01959900
v -0.00131100 0.02648800 -0.01959900
v -0.00131100 0.01656500 -0.02820000
v 0.01389900 0.01656500 -0.01959900
v 0.03903400 0.02384000 -0.01959900
v 0.03903400 0.02053500 -0.02621400
v 0.03903400 0.01656500 -0.02621400
v 0.01191600 0.01789000 -0.02820000
v -0.00131100 0.02648800 -0.02026100
v -0.05357300 -0.01651400 0.02472800
v 0.03903800 -0.00593000 0.03200500
v 0.03903800 -0.00857600 0.03200500
v 0.03903800 -0.01849800 0.02472800
v 0.01322500 -0.00593000 0.02472800
v -0.05092500 -0.00593000 0.03200500
v -0.05027200 -0.01915900 0.02737400
v -0.05623100 -0.00593000 0.02472800
v 0.03903800 -0.02114600 0.02538900
v -0.05027200 -0.01122500 0.03134300
v 0.03241700 -0.01585100 0.02935900
v -0.05027200 -0.02114600 0.02472800
v 0.03903800 -0.00593000 0.03068200
v 0.03903800 -0.01122500 0.03134300
v -0.04298900 -0.01452800 0.03002000
v -0.05623100 -0.01056200 0.02538900
v 0.03903800 -0.01982200 0.02671300
v -0.05027200 -0.00857600 0.03200500
v 0.03903800 -0.02114600 0.02472800
v -0.05027200 -0.02114600 0.02538900
v -0.05027200 -0.01585100 0.02935900
v -0.05623100 -0.00659200 0.02671300
v -0.05556900 0.00201100 0.02737400
v 0.03903800 0.01788800 0.02803600
v 0.03903800 0.01391700 0.03002000
v 0.01322800 -0.00593000 0.02737400
v -0.05093000 0.00267300 0.03266700
v 0.03903800 -0.00593000 0.03266700
v -0.05026300 0.01788800 0.02737400
v -0.05026300 -0.00593000 0.03266700
v -0.05490300 -0.00593000 0.02737400
v 0.03903800 0.00597900 0.03266700
v -0.04497500 0.01126900 0.03134300
v 0.03903800 0.01458000 0.02737400
v -0.05026300 0.00597900 0.03266700
v -0.05026300 0.01788800 0.02803600
v -0.03505700 0.01458000 0.03002000
v 0.00595900 0.01126900 0.03134300
v 0.03903800 0.01788800 0.02737400
v -0.05490300 0.00730100 0.02803600
v -0.05556900 -0.00195900 0.02803600
v -0.05026300 0.01259300 0.03068200
v 0.03903800 0.01259300 0.03068200
v -0.01653500 0.00465600 -0.02886100
v -0.02645900 -0.02776200 -0.01960000
v -0.00131900 -0.02776200 -0.01960000
v -0.01984200 0.00465600 -0.01893700
v -0.02645900 -0.01651300 -0.02886100
v -0.00131900 0.00266900 -0.01893700
v -0.00131900 -0.01651300 -0.02886100
v -0.02645900 0.00333000 -0.02422900
v -0.02645900 -0.02511600 -0.01893700
v -0.02645900 0.00333000 -0.02886100
v -0.00131900 -0.02776200 -0.01893700
v -0.02447400 -0.00395000 -0.01893700
v -0.02645900 -0.01982300 -0.02687500
v -0.00131900 0.00465600 -0.01960000
v -0.00131900 -0.01982300 -0.02687500
v -0.02182600 0.00465600 -0.01893700
v -0.02645900 0.00200900 -0.02290700
v -0.02645900 -0.02776200 -0.01893700
v -0.03836900 0.00796400 -0.03216900
v -0.03572000 0.01788800 -0.02753800
v -0.03572000 0.01788800 -0.02820000
v -0.05027700 0.01656400 -0.02820000
v -0.05027700 0.00465600 -0.02952300
v -0.02646100 0.00465600 -0.03018400
v -0.05027700 0.00465600 -0.03216900
v -0.02646100 0.00796400 -0.03216900
v -0.02646100 0.01458000 -0.02753800
v -0.05027700 0.01061100 -0.03150700
v -0.05027700 0.00995100 -0.02820000
v -0.02646100 0.01259200 -0.03084600
v -0.02646100 0.00465600 -0.03216900
v -0.02646100 0.01722600 -0.02820000
v -0.05027700 0.01656400 -0.02886200
v -0.03836900 0.01391800 -0.02753800
v -0.02645900 0.01259600 -0.03084500
v -0.00131900 0.02781200 -0.01893700
v -0.00131900 0.00531800 -0.01893700
v -0.00131900 0.00465600 -0.03216900
v -0.02645900 0.02781200 -0.01893700
v -0.02645900 0.00465600 -0.03216900
v -0.00131900 0.01656000 -0.02886000
v -0.02645900 0.02053400 -0.02621400
v -0.00131900 0.00796700 -0.03216900
v -0.00131900 0.02781200 -0.01959900
v -0.02645900 0.00465600 -0.03018200
v -0.00131900 0.02053400 -0.02621400
v -0.00131900 0.00465600 -0.01959900
v -0.02645900 0.02516400 -0.01893700
v -0.02645900 0.02781200 -0.01959900
v -0.02645900 0.00796700 -0.03216900
v -0.00131900 0.01259600 -0.03084500
v -0.02645900 0.01656000 -0.02886000
v 0.03506800 -0.00857500 -0.02290600
v 0.01324000 0.01656500 -0.01959900
v 0.01324000 0.01656500 -0.02489100
v -0.00131600 -0.01651500 -0.01959900
v -0.00131600 -0.01651500 -0.02489100
v 0.03506800 0.01391300 -0.01959900
v -0.00131600 0.01656500 -0.01959900
v 0.03440600 -0.01519100 -0.01959900
v 0.03440600 0.00399100 -0.02489100
v -0.00131600 0.01656500 -0.02489100
v 0.01324000 -0.01651500 -0.02489100
v 0.03440600 0.01524000 -0.02026100
v 0.03374400 -0.00791200 -0.02422900
v 0.03374400 0.00994600 -0.02356800
v 0.03374400 -0.01386300 -0.02158400
v 0.03374400 -0.00526300 -0.02489100
v 0.01324000 -0.01651500 -0.01959900
v 0.03506800 -0.01386300 -0.01959900
v 0.03506800 0.00399100 -0.02422900
v -0.05489900 -0.01519000 0.02472800
v 0.03506800 -0.00593100 0.02340300
v 0.03506800 -0.00593100 0.01348100
v 0.03506800 -0.01849900 0.01348100
v -0.05623100 -0.00593100 0.01348100
v -0.05623100 -0.01849900 0.01348100
v 0.01322700 -0.01849900 0.02472800
v -0.05623100 -0.00593100 0.02472800
v -0.05291500 -0.01849900 0.02472800
v 0.01322700 -0.00593100 0.02472800
v 0.03373700 -0.01585200 0.02009500
v 0.03373700 -0.00857700 0.02406600
v 0.03506800 -0.01849900 0.01612700
v -0.05623100 -0.01849900 0.02009600
v 0.03439800 -0.01122300 0.02274200
v 0.03373700 -0.01849900 0.01745100
v 0.03439800 -0.00593100 0.02406600
v -0.05556800 0.00664000 0.02737400
v 0.03439800 0.01391800 0.02075600
v 0.03506800 0.01391600 0.02009700
v 0.03373700 -0.00593000 0.02472600
v -0.05622900 -0.00593000 0.01348100
v -0.05622900 0.01391800 0.01348100
v 0.03506800 -0.00593000 0.01348100
v -0.05556800 -0.00593000 0.02737400
v 0.01323600 0.01391800 0.02737400
v 0.03506800 0.01391600 0.01348100
v -0.05291300 0.01391800 0.02737400
v 0.01323600 -0.00593000 0.02737400
v 0.03439800 0.00465500 0.02472600
v -0.05622900 0.01325600 0.02406500
v 0.03373700 -0.00129800 0.02538800
v 0.03506800 -0.00460500 0.02406500
v -0.05622900 -0.00593000 0.02671200
v 0.03373700 0.00994700 0.02340400
v 0.01522000 -0.00262100 0.02737400
v -0.04961300 0.00531800 -0.02224700
v -0.04300100 0.01391800 -0.01893700
v -0.04167800 0.00862700 -0.01893700
v -0.04300100 0.00796400 -0.02753800
v -0.05027700 0.01391800 -0.02820000
v -0.04961300 0.01193200 -0.01893700
v -0.04498500 0.00465600 -0.02753800
v -0.04300100 0.00465600 -0.01893700
v -0.04035400 0.01127200 -0.02356800
v -0.04035400 0.00531800 -0.02356800
v -0.04300100 0.01391800 -0.02489000
v -0.04961300 0.00598000 -0.01893700
v -0.05027700 0.01127200 -0.02820000
v -0.04035400 0.01127200 -0.02026100
v -0.04035400 0.00531800 -0.02026100
v -0.04300100 0.00465600 -0.02753800
v -0.02844500 0.02251600 0.01745100
v -0.04035100 0.01458100 0.01348100
v -0.03968900 0.01391800 0.01348100
v -0.04035100 0.01921000 0.02472800
v -0.03043300 0.01391800 0.02472800
v -0.04035100 0.02582700 0.01745100
v -0.02844700 0.02317800 0.02406500
v -0.02844500 0.01921300 0.01348100
v -0.02844500 0.02582700 0.01348100
v -0.03043100 0.01391800 0.01348100
v -0.04035100 0.02582700 0.02075800
v -0.03638100 0.02582700 0.01348100
v -0.03770400 0.01391800 0.02274200
v -0.02844700 0.02582700 0.02075800
v -0.04035100 0.02185500 0.02472800
v -0.02844700 0.01987300 0.02472800
v -0.02910900 0.01590500 0.01877500
v -0.04035100 0.01855200 0.01348100
v -0.05292200 -0.01916100 -0.01893500
v -0.05027800 -0.02908500 -0.01628900
v -0.04829300 -0.02908500 -0.01628900
v -0.05424600 -0.01916100 -0.00570700
v -0.05623000 -0.02643800 -0.00570700
v -0.05623000 -0.01982400 -0.01893500
v -0.05027800 -0.02908500 -0.00636900
v -0.04829300 -0.02511500 -0.01893500
v -0.05623000 -0.01916100 -0.00570700
v -0.04829300 -0.02842300 -0.01166100
v -0.05623000 -0.02379400 -0.01430500
v -0.05358400 -0.02908500 -0.00835400
v -0.05027800 -0.02709900 -0.01893500
v -0.05623000 -0.02643800 0.00488000
v -0.05358400 -0.02908500 -0.00570600
v -0.05093900 -0.02908500 -0.00570600
v -0.05424600 -0.01916100 -0.00570600
v -0.04829300 -0.01916100 0.00157000
v -0.05093900 -0.02908500 0.00488000
v -0.05623000 -0.01916100 0.00488000
v -0.04829300 -0.02511500 -0.00504300
v -0.05623000 -0.02643800 -0.00570600
v -0.04829300 -0.01916100 -0.00504300
v -0.05623000 -0.01916100 -0.00570600
v -0.05424600 -0.02908500 0.00488000
v -0.04829300 -0.02511500 0.00157000
v -0.04829200 -0.02776000 -0.01827500
v -0.04300000 -0.01916100 -0.00901300
v -0.04498300 -0.01916100 -0.00901300
v -0.04300000 -0.01916100 -0.01893700
v -0.03836800 -0.02908500 -0.01166100
v -0.03836800 -0.02511500 -0.01893700
v -0.04829200 -0.02908500 -0.01166100
v -0.03836800 -0.01982400 -0.01099900
v -0.04762900 -0.02048600 -0.01430600
v -0.04300000 -0.02709900 -0.00901300
v -0.03836800 -0.02908500 -0.01629000
v -0.04829200 -0.02511500 -0.01893700
v -0.03836800 -0.02313100 -0.00967600
v -0.03836800 -0.01982400 -0.01496700
v -0.04498300 -0.01916100 -0.01893700
v -0.04762900 -0.02114800 -0.01099900
v -0.03836800 -0.02709900 -0.01893700
v -0.04829200 -0.02908500 -0.01629000
v -0.04498300 -0.02709900 -0.00901300
v -0.04233800 -0.01916100 0.00488000
v -0.04498400 -0.02710000 -0.00901300
v -0.04300000 -0.02710000 -0.00901300
v -0.04498400 -0.02710000 0.00488000
v -0.04829200 -0.01916100 -0.00504200
v -0.04233800 -0.01916100 -0.00835100
v -0.04829200 -0.02511400 0.00157100
v -0.04829200 -0.01916100 0.00157100
v -0.04233800 -0.02445400 0.00488000
v -0.04829200 -0.02511400 -0.00504200
v -0.04498400 -0.01916100 -0.00901300
v -0.04564500 -0.01916100 0.00488000
v -0.04300000 -0.02710000 0.00488000
v -0.04829200 0.03244100 -0.00702900
v -0.04498300 0.01855100 -0.01893700
v -0.04300000 0.01855100 -0.01893700
v -0.03836800 0.01855100 0.00488000
v -0.03836800 0.02979500 -0.01496700
v -0.04696700 0.01921300 0.00488000
v -0.03836800 0.03244100 0.00488000
v -0.04829200 0.02714900 -0.01893700
v -0.04829200 0.03244100 0.00488000
v -0.03836800 0.02450500 -0.01893700
v -0.04829200 0.02185800 -0.00173700
v -0.03836800 0.01987400 -0.01496700
v -0.03836800 0.03310300 -0.00240100
v -0.04762900 0.02053600 -0.01430500
v -0.04564500 0.01855100 0.00488000
v -0.04829200 0.03310300 0.00157200
v -0.04829200 0.02979500 -0.01496700
v -0.03836800 0.02781100 -0.01827500
v -0.03836800 0.03178000 -0.00967200
v -0.04829200 0.02450500 -0.01893700
v -0.03836800 0.01855100 -0.00570700
v -0.04829200 0.02252100 0.00222900
v -0.00131100 -0.01254400 -0.03084500
v 0.03903400 0.00266700 -0.03150700
v 0.03903400 -0.01518900 -0.02687800
v -0.00131100 0.00266700 -0.02489200
v -0.00131100 0.00266700 -0.03282900
v -0.00131100 -0.01651100 -0.02489200
v 0.03903400 -0.00460900 -0.03282900
v 0.01323900 0.00266700 -0.02489200
v 0.03903400 -0.01651100 -0.02886100
v -0.00131100 -0.01651100 -0.02886100
v 0.01323900 -0.01651100 -0.02489200
v -0.00131100 -0.00460900 -0.03282900
v 0.03903400 0.00266700 -0.03282900
v 0.03903400 -0.01055900 -0.03150700
v 0.01522200 -0.00130000 -0.02489200
v 0.03903400 -0.01651100 -0.02687800
v -0.00131100 -0.00791300 -0.03216800
v 0.03903400 -0.01254400 -0.03084500
v 0.03506500 -0.00527000 -0.03282900
v -0.00131100 0.00796600 -0.03216800
v 0.03903400 0.01656500 -0.02687800
v 0.03903400 0.01524100 -0.02687800
v -0.00131100 0.00267100 -0.02489200
v 0.03903400 0.00267100 -0.03282900
v -0.00131100 0.01656500 -0.02489200
v 0.01323900 0.00267100 -0.02489200
v 0.03903400 0.01656500 -0.02886100
v -0.00131100 0.00267100 -0.03282900
v -0.00131100 0.01656500 -0.02886100
v 0.03903400 0.01060900 -0.03150700
v 0.03109500 0.01656500 -0.02555400
v 0.03903400 0.00333300 -0.03084500
v -0.00131100 0.01259500 -0.03084500
v 0.03903400 0.00465700 -0.03282900
v 0.01323900 0.01656500 -0.02489200
v -0.00131100 0.00465700 -0.03282900
v 0.03440100 0.01259500 -0.03084500
v 0.03505600 -0.02313100 0.02406500
v -0.05623100 -0.02379200 0.01348100
v -0.05623100 -0.02379200 0.01414200
v -0.05623100 -0.01850000 0.01943300
v 0.03505600 -0.01850200 0.01348100
v 0.03109300 -0.02776100 0.01348100
v -0.05027200 -0.02709900 0.01943300
v -0.05225800 -0.01850000 0.02472800
v 0.03109300 -0.01850200 0.02472800
v -0.05623100 -0.01850000 0.01348100
v 0.03704200 -0.02776100 0.01943300
v -0.05225800 -0.02776200 0.01348100
v -0.04762400 -0.02247200 0.02472800
v 0.03903800 -0.01982400 0.02472800
v 0.03903800 -0.02776100 0.01480600
v -0.03703000 -0.02776100 0.01943300
v 0.03903800 -0.02180900 0.02472800
v -0.05093400 -0.02180900 0.02472800
v -0.05093400 -0.02776200 0.01745300
v 0.03903800 -0.02709900 0.01943300
v 0.03903800 0.01855100 0.02737400
v -0.02844400 0.01921300 0.01348100
v -0.02844400 0.02582700 0.01348100
v -0.02844400 0.01590500 0.02737400
v 0.03506100 0.01391800 0.01348100
v 0.03903800 0.02582700 0.02075600
v -0.02844400 0.02317800 0.02406500
v -0.02181900 0.01391800 0.01348100
v 0.03109200 0.01391800 0.02737400
v 0.01323000 0.02582700 0.01348100
v -0.01652800 0.01391800 0.02737400
v -0.02844400 0.02582700 0.02075600
v 0.03374000 0.02119400 0.01348100
v -0.02844400 0.01855100 0.02737400
v 0.03903800 0.02582700 0.01811400
v 0.03903800 0.01590500 0.02671200
v 0.03903800 0.01987300 0.02671200
v -0.00462500 0.02317800 0.02406500
v -0.02844400 0.01987300 0.02671200
v -0.02181900 0.01391800 0.02075600
v 0.03506100 0.01391800 0.01943700
v -0.04498400 -0.00989900 -0.02687600
v -0.04167700 0.00465600 -0.01893700
v -0.04498400 0.00465600 -0.01893700
v -0.04300000 -0.00989900 -0.01893700
v -0.04300000 0.00465600 -0.02687600
v -0.04300000 -0.00989900 -0.02687600
v -0.04630700 0.00333200 -0.01893700
v -0.04498400 0.00465600 -0.02687600
v -0.04498400 -0.00989900 -0.01893700
v -0.04630700 -0.00328300 -0.02158500
v -0.04498400 -0.00460500 -0.02753700
v -0.04167700 0.00267000 -0.02026200
v -0.02646200 0.00333200 -0.02422900
v -0.04035300 -0.00129900 -0.02687500
v -0.03968900 -0.00129900 -0.02886100
v -0.03043000 -0.00989900 -0.01893700
v -0.03770500 0.00465600 -0.01893700
v -0.02646200 -0.00394400 -0.02886100
v -0.03770500 -0.00989900 -0.02026200
v -0.03241600 -0.00989900 -0.02687500
v -0.03175300 0.00333200 -0.02886100
v -0.03043000 0.00465600 -0.01893700
v -0.03968900 0.00267000 -0.02753600
v -0.02646200 -0.00196000 -0.02290700
v -0.02646200 0.00333200 -0.02886100
v -0.03241600 0.00465600 -0.02687500
v -0.03770500 -0.00989900 -0.01893700
v -0.04035300 0.00134800 -0.02489100
v -0.02910700 0.00200900 -0.01893700
v -0.03043000 -0.00989900 -0.02687500
v -0.03770500 0.00333200 -0.02819900
v -0.05027600 0.01391800 -0.02687600
v -0.02646300 0.02781200 -0.01893700
v -0.02646300 0.02516400 -0.01893700
v -0.02646300 0.01590500 -0.02753700
v -0.04299800 0.01391800 -0.01893700
v -0.05027600 0.02648800 -0.02026100
v -0.05027600 0.01788900 -0.02820000
v -0.02977100 0.01458100 -0.01893700
v -0.02646300 0.02053400 -0.02621400
v -0.05027600 0.02318000 -0.01893700
v -0.03836800 0.01391800 -0.02820000
v -0.04630600 0.01458100 -0.01893700
v -0.03704200 0.02781200 -0.01960000
v -0.05027600 0.02053300 -0.02621400
v -0.05027600 0.02648800 -0.01893700
v -0.02646300 0.01855000 -0.02753700
v -0.05027600 0.01391800 -0.02820000
v -0.03109300 0.01458200 -0.02753700
v -0.02646300 0.02781200 -0.01960000
v -0.04961400 0.01524300 0.01348100
v -0.04035300 0.02119500 0.02472800
v -0.04035300 0.01921000 0.02472800
v -0.05093800 0.02119500 0.02472800
v -0.04498600 0.01391900 0.02472800
v -0.04300000 0.01987100 0.01348100
v -0.04167700 0.01391900 0.01480500
v -0.04961400 0.01391900 0.01943400
v -0.05093800 0.02119500 0.02075800
v -0.05093800 0.01656600 0.02472800
v -0.04961400 0.01788700 0.01348100
v -0.04498600 0.02119500 0.01612800
v -0.04299900 0.01391900 0.02472800
v -0.04895200 0.01391900 0.01348100
v -0.04035300 0.02119500 0.02274200
v -0.04300000 0.01391900 0.01348100
v -0.03043000 0.01458000 -0.02489100
v -0.03770700 0.00465600 -0.02092300
v -0.03770700 0.00465600 -0.01893700
v -0.02910800 0.00531800 -0.02158500
v -0.03241500 0.00465600 -0.02753700
v -0.03770700 0.01458000 -0.01893700
v -0.02976800 0.01458000 -0.01893700
v -0.03770700 0.01458000 -0.02026200
v -0.03043000 0.00465600 -0.02753700
v -0.03241500 0.01193300 -0.02621400
v -0.02910800 0.00796500 -0.02356700
v -0.03241500 0.00796500 -0.02753700
v -0.04829200 0.03178000 -0.00967600
v -0.05358500 0.01921100 -0.01893600
v -0.05292300 0.01921100 -0.01893600
v -0.05358500 0.02648700 -0.00306100
v -0.05358500 0.02516600 -0.01695100
v -0.04829200 0.02450400 -0.01827400
v -0.04829200 0.03111900 -0.00306100
v -0.05358500 0.02979400 -0.00438500
v -0.05027800 0.02781000 -0.01827400
v -0.05093800 0.03178000 -0.00835300
v -0.05093800 0.03244300 -0.00306100
v -0.04829200 0.02714900 -0.01893600
v -0.05292300 0.01921100 -0.01827400
v -0.05292300 0.02648700 -0.00306100
v -0.05292300 0.02450400 -0.01893600
v -0.05358500 0.02185700 -0.00173600
v -0.04829200 0.03244200 0.00488000
v -0.04829200 0.03310400 0.00091000
v -0.04829200 0.02185700 -0.00173600
v -0.05358500 0.02979500 -0.00305900
v -0.05358500 0.02648900 0.00488000
v -0.04829200 0.02251900 0.00223300
v -0.04829200 0.03244200 -0.00305900
v -0.05093800 0.03244200 0.00488000
v -0.05358500 0.02185700 0.00157200
v -0.05027800 0.03310400 -0.00173600
v -0.05358500 0.02979500 0.00488000
v -0.04895400 0.02251900 -0.00239700
v -0.03307700 -0.01188400 -0.02886000
v -0.04035200 -0.02643800 -0.02026100
v -0.03704200 -0.02776200 -0.01960000
v -0.04035200 -0.01783800 -0.02819800
v -0.02646200 -0.02313000 -0.02356900
v -0.02646200 -0.02511500 -0.01893800
v -0.04035200 -0.02445500 -0.01893800
v -0.04035200 -0.01188400 -0.02819800
v -0.03307700 -0.01651700 -0.02886000
v -0.02646200 -0.02776200 -0.01893800
v -0.03307700 -0.01188400 -0.02819800
v -0.03307700 -0.02048200 -0.02621500
v -0.03109300 -0.02445500 -0.01893800
v -0.04035200 -0.01651700 -0.02886000
v -0.02646200 -0.02776200 -0.01960000
v -0.02646200 -0.02246800 -0.02158300
v -0.04035300 0.02384100 0.02340300
v -0.05093800 0.02516500 0.01480400
v -0.05093800 0.02582700 0.01480400
v -0.05093800 0.02119600 0.02472800
v -0.04035300 0.02119600 0.02208100
v -0.05027600 0.02582700 0.02075800
v -0.04035300 0.02582700 0.01745100
v -0.05093800 0.02119600 0.02009500
v -0.04035300 0.02119600 0.02472800
v -0.04035300 0.02582700 0.02075800
v -0.05093800 0.02185800 0.02472800
v -0.05226200 0.02053200 0.02406500
v -0.05623100 0.01391800 0.01348100
v -0.05623100 0.02317800 0.01348100
v -0.05093900 0.02582700 0.01348100
v -0.05093900 0.01391800 0.02538800
v -0.05623100 0.01391800 0.02340400
v -0.05424600 0.01391800 0.01348100
v -0.05093900 0.02582700 0.01943700
v -0.05093900 0.01656700 0.02737400
v -0.05623100 0.02251700 0.01612800
v -0.05424600 0.02582700 0.01414300
v -0.05292400 0.01458100 0.02737400
v -0.05623100 0.01656700 0.02208100
v -0.05027700 -0.02114400 -0.02555400
v -0.04300100 -0.00990100 -0.01893700
v -0.04035400 -0.01188700 -0.02819900
v -0.04035400 -0.02643600 -0.01893700
v -0.04961300 -0.01056400 -0.01893700
v -0.05027700 -0.00989900 -0.02886100
v -0.05027700 -0.02643600 -0.01893700
v -0.04035400 -0.01651500 -0.02886100
v -0.05027700 -0.01651500 -0.02886100
v -0.04035400 -0.02643600 -0.02026100
v -0.04300100 -0.00989900 -0.02621300
v -0.04035400 -0.02048100 -0.02621300
v -0.05027700 -0.02643600 -0.02026100
v -0.04035400 -0.02445100 -0.01893700
v -0.04035400 -0.01188700 -0.02886100
v -0.03836800 0.01722500 -0.00901300
v -0.05160000 0.01193500 -0.01033700
v -0.05160000 0.01193500 -0.00835000
v -0.03836900 -0.00063500 -0.00967500
v -0.04498400 -0.00063500 -0.00504400
v -0.03836800 0.01722500 -0.00504400
v -0.04498400 0.01788600 -0.00504400
v -0.03836900 -0.00063500 -0.00504400
v -0.04498400 0.01854700 -0.01033700
v -0.04498400 -0.00063500 -0.01033700
v -0.05160000 0.01788600 -0.00835000
v -0.04167900 0.01127200 -0.01033700
v -0.04564500 -0.00063500 -0.00702900
v -0.04300200 0.01854700 -0.00570600
v -0.05160000 0.01788600 -0.00967500
v -0.04498400 -0.00063700 0.00488000
v -0.04696900 -0.01056100 -0.01893700
v -0.04696900 -0.00923700 -0.01893700
v -0.04299900 -0.00063700 -0.01893700
v -0.04299900 -0.01056100 0.00488000
v -0.04299900 -0.01056100 -0.01893700
v -0.04630700 -0.01056100 0.00488000
v -0.04696900 -0.00129900 -0.01099700
v -0.04299900 -0.00063700 0.00488000
v -0.04630700 -0.00063700 -0.01893700
v -0.04696900 -0.00129900 -0.00504500
v -0.04696900 -0.01056100 -0.00041500
v -0.04630700 0.00465600 0.00421700
v -0.04299900 0.01788800 0.00488000
v -0.04299900 0.01788800 -0.00504400
v -0.03836800 -0.00063300 -0.00504400
v -0.03836800 0.01589900 0.00488000
v -0.03836800 -0.00063300 0.00488000
v -0.04498400 -0.00063700 -0.00504400
v -0.04630700 0.01722600 -0.00173500
v -0.03836800 0.01589900 -0.00305800
v -0.04630700 0.01722600 0.00488000
v -0.04630700 0.00531800 -0.00438100
v -0.04498400 0.01788800 -0.00504400
v -0.03836800 0.00796400 -0.00504400
v -0.03307500 -0.02048300 -0.02621500
v -0.03042800 -0.00990000 -0.02158400
v -0.03042800 -0.00990000 -0.02621500
v -0.02646000 -0.02246700 -0.02224600
v -0.02646000 -0.01320800 -0.02886000
v -0.03307500 -0.02246700 -0.02158400
v -0.03307500 -0.01188600 -0.02886000
v -0.02646000 -0.01783800 -0.02819900
v -0.03241300 -0.00990000 -0.02158400
v -0.03307500 -0.01651400 -0.02886000
v -0.02646000 -0.02246700 -0.02423000
v -0.05093800 -0.01453200 -0.01893600
v -0.04167600 -0.01519000 -0.01033800
v -0.04167600 -0.01850000 -0.01033800
v -0.05226200 -0.01056100 -0.00835400
v -0.04300000 -0.01056100 -0.01893600
v -0.04300000 -0.01056100 -0.00636800
v -0.04564800 -0.01916100 -0.00636800
v -0.04300000 -0.01916100 -0.01893600
v -0.05226200 -0.01056100 -0.01893600
v -0.05226200 -0.01320800 -0.00835400
v -0.04233900 -0.01916100 -0.00636800
v -0.04498500 -0.01916100 -0.01893600
v -0.04167600 -0.01850000 -0.01562800
v -0.04961500 -0.01056100 -0.00703000
v -0.04167600 -0.01320800 0.00091000
v -0.04630800 -0.01386900 -0.00636700
v -0.04630800 -0.01188400 -0.00636700
v -0.05358200 -0.01916100 0.00157200
v -0.04233900 -0.01916100 -0.00636700
v -0.04233900 -0.01916100 0.00488000
v -0.04630800 -0.01056100 0.00488000
v -0.05358200 -0.01585200 -0.00504400
v -0.04300100 -0.01056100 -0.00636700
v -0.05358200 -0.01916100 -0.00504400
v -0.04300100 -0.01056100 0.00488000
v -0.04697000 -0.01056100 -0.00570500
v -0.05358200 -0.01585200 0.00157200
v -0.04564700 -0.01916100 0.00488000
v -0.04167600 -0.01651400 -0.00438200
v -0.04101400 -0.00063700 0.00488000
v -0.04035300 -0.00989900 -0.00173700
v -0.04233700 -0.00394500 -0.00239800
v -0.03836800 -0.00063700 -0.00967500
v -0.03836800 -0.00791400 0.00488000
v -0.04299800 -0.00063700 -0.00967500
v -0.03836800 -0.00725200 -0.00702800
v -0.03836800 -0.00063700 0.00488000
v -0.04233700 -0.00328400 0.00355500
v -0.04035300 -0.00923700 0.00421600
v -0.04035300 -0.00592900 -0.00835000
v -0.03836800 -0.00989900 -0.00173700
v -0.04233700 -0.00063700 0.00421600
v -0.04167600 0.01656300 -0.01033700
v -0.05159900 0.01193200 -0.01893700
v -0.04961400 0.00598000 -0.01893700
v -0.04300100 0.01854600 -0.01893700
v -0.04300100 -0.00063500 -0.01033700
v -0.04961400 0.01788500 -0.01033700
v -0.04300100 -0.00063500 -0.01893700
v -0.04630800 -0.00063500 -0.01033700
v -0.05159900 0.01788500 -0.01893700
v -0.04167600 0.00664300 -0.01893700
v -0.04630800 -0.00063500 -0.01893700
v -0.04961400 0.01193200 -0.01033700
v -0.04300100 0.01854600 -0.01033700
v -0.04167600 0.00862600 -0.01033700
v -0.04167600 0.01590000 -0.01761300
v -0.05159900 0.01193200 -0.01761300
v -0.04630700 0.01127200 0.00355600
v -0.04961500 0.00465600 0.00355600
v -0.04961500 0.00531800 -0.00438200
v -0.04961500 0.01127200 0.00488000
v -0.04630700 0.00465600 0.00488000
v -0.04630700 0.00994800 -0.00438200
v -0.04961500 0.00994800 -0.00438200
v -0.04630700 0.00531800 -0.00438200
v -0.05093800 0.01391900 0.02605100
v -0.02844400 0.02119500 0.02538900
v -0.02844400 0.01987200 0.02671200
v -0.05027600 0.01987200 0.02671200
v -0.05027600 0.02119500 0.02472800
v -0.03109300 0.01524200 0.02737400
v -0.02844400 0.01921000 0.02472800
v -0.05027600 0.01524200 0.02472800
v -0.05093800 0.01391900 0.02737400
v -0.05027600 0.01854900 0.02737400
v -0.02844400 0.01590400 0.02671200
v -0.02844400 0.01854900 0.02737400
v -0.02976800 -0.01188400 -0.01959900
v -0.03770600 -0.01585300 -0.01959900
v -0.03241500 -0.02114600 -0.01959900
v -0.03043000 -0.01916100 -0.02158400
v -0.03307600 -0.00989900 -0.02158400
v -0.03770600 -0.00989900 -0.01893700
v -0.03043000 -0.02114600 -0.01893700
v -0.03043000 -0.00989900 -0.02158400
v -0.03770600 -0.01519200 -0.02026100
v -0.03241500 -0.01916100 -0.02158400
v -0.04696900 -0.00129800 -0.00504400
v -0.05226000 -0.01056100 -0.01893700
v -0.05226000 -0.01056100 -0.00835300
v -0.05358500 -0.00129800 -0.01099900
v -0.04696900 -0.01056100 -0.00835300
v -0.05358500 -0.00791300 -0.00504400
v -0.04696900 -0.00129800 -0.01099900
v -0.05358500 -0.00129800 -0.00504400
v -0.04763100 -0.00791300 -0.01893700
v -0.04696900 -0.00791300 -0.00504400
v -0.05159900 -0.00857500 -0.01893700
v -0.05358500 -0.00791300 -0.01099900
f 10 15 33
f 3 2 5
f 5 2 7
f 2 6 7
f 5 7 9
f 6 2 11
f 10 4 11
f 7 6 12
f 1 9 12
f 10 11 14
f 13 4 15
f 6 11 16
f 9 7 17
f 12 9 17
f 5 9 18
f 8 10 19
f 9 8 20
f 18 9 20
f 8 19 20
f 10 14 21
f 18 19 21
f 19 10 21
f 8 6 22
f 10 8 22
f 15 10 22
f 11 4 23
f 4 13 23
f 16 11 23
f 13 16 23
f 11 2 24
f 14 11 24
f 13 6 25
f 6 16 25
f 16 13 25
f 6 8 26
f 9 1 26
f 8 9 26
f 7 12 27
f 17 7 27
f 12 17 27
f 19 18 28
f 18 20 28
f 20 19 28
f 12 6 29
f 1 12 29
f 6 26 29
f 26 1 29
f 6 13 30
f 13 15 30
f 22 6 30
f 15 22 30
f 2 3 31
f 21 14 31
f 24 2 31
f 14 24 31
f 3 5 32
f 5 18 32
f 18 21 32
f 31 3 32
f 21 31 32
f 4 10 33
f 15 4 33
f 44 64 75
f 35 36 39
f 40 38 43
f 39 41 44
f 35 39 45
f 39 37 45
f 40 43 45
f 41 39 46
f 44 41 49
f 43 38 50
f 50 41 51
f 43 50 51
f 42 48 52
f 38 40 53
f 47 38 53
f 35 45 54
f 45 43 54
f 37 39 55
f 39 44 55
f 52 37 55
f 34 44 56
f 47 34 56
f 44 49 56
f 48 42 57
f 41 46 58
f 46 43 58
f 40 45 59
f 38 47 60
f 47 56 60
f 39 36 61
f 36 46 61
f 46 39 61
f 55 44 62
f 48 57 63
f 63 57 64
f 44 34 64
f 53 40 64
f 40 63 64
f 53 64 65
f 34 47 65
f 47 53 65
f 64 34 65
f 37 52 66
f 52 48 66
f 49 41 67
f 50 38 67
f 41 50 67
f 38 60 67
f 51 41 68
f 41 58 68
f 58 51 68
f 40 59 69
f 59 48 69
f 63 40 69
f 48 63 69
f 42 52 70
f 52 55 70
f 62 42 70
f 55 62 70
f 56 49 71
f 60 56 71
f 49 67 71
f 67 60 71
f 43 51 72
f 58 43 72
f 51 58 72
f 45 37 73
f 59 45 73
f 48 59 73
f 37 66 73
f 66 48 73
f 36 35 74
f 46 36 74
f 43 46 74
f 35 54 74
f 54 43 74
f 57 42 75
f 42 62 75
f 62 44 75
f 64 57 75
f 100 80 107
f 77 81 85
f 81 77 86
f 83 84 86
f 77 85 87
f 83 86 89
f 78 77 90
f 87 85 91
f 77 78 92
f 86 77 92
f 78 89 92
f 89 86 92
f 76 81 93
f 81 86 93
f 86 84 93
f 82 80 94
f 87 79 94
f 88 82 94
f 90 87 94
f 80 82 95
f 79 88 96
f 94 79 96
f 88 94 96
f 85 82 97
f 88 79 97
f 82 88 97
f 84 83 98
f 80 95 98
f 79 87 99
f 87 91 99
f 78 90 100
f 94 80 100
f 90 94 100
f 81 76 101
f 85 81 101
f 77 87 102
f 90 77 102
f 87 90 102
f 84 98 103
f 98 95 103
f 82 85 104
f 95 82 104
f 101 76 104
f 85 101 104
f 103 95 104
f 91 85 105
f 85 97 105
f 97 79 105
f 79 99 105
f 99 91 105
f 76 93 106
f 93 84 106
f 84 103 106
f 104 76 106
f 103 104 106
f 89 78 107
f 83 89 107
f 98 83 107
f 80 98 107
f 78 100 107
f 136 120 154
f 113 112 116
f 114 111 116
f 114 116 117
f 109 114 117
f 109 117 118
f 113 116 119
f 116 111 119
f 111 114 122
f 112 113 123
f 116 112 124
f 110 109 125
f 109 118 125
f 118 123 125
f 112 123 126
f 123 118 126
f 120 122 127
f 117 116 128
f 116 124 128
f 113 119 129
f 108 121 130
f 112 126 131
f 128 108 132
f 108 130 132
f 111 122 133
f 124 112 134
f 112 131 134
f 121 108 135
f 115 118 137
f 118 117 137
f 130 137 138
f 117 128 138
f 132 130 138
f 137 117 138
f 119 111 139
f 129 119 139
f 135 108 140
f 128 132 141
f 138 128 141
f 132 138 141
f 124 134 142
f 134 135 142
f 135 140 142
f 122 120 143
f 133 122 143
f 120 133 143
f 123 113 144
f 110 125 144
f 125 123 144
f 131 121 145
f 134 131 145
f 135 134 145
f 121 135 145
f 130 121 146
f 121 131 146
f 131 115 146
f 115 137 146
f 137 130 146
f 127 113 147
f 113 129 147
f 136 127 147
f 129 136 147
f 111 133 148
f 136 129 148
f 139 111 148
f 129 139 148
f 118 115 149
f 126 118 149
f 115 131 149
f 131 126 149
f 109 110 150
f 113 127 150
f 127 122 150
f 110 144 150
f 144 113 150
f 114 109 151
f 122 114 151
f 109 150 151
f 150 122 151
f 108 128 152
f 128 124 152
f 140 108 152
f 124 142 152
f 142 140 152
f 133 120 153
f 120 136 153
f 148 133 153
f 136 148 153
f 120 127 154
f 127 136 154
f 177 166 191
f 160 158 161
f 158 159 161
f 160 156 162
f 159 158 163
f 162 159 163
f 162 163 164
f 160 162 164
f 156 160 165
f 160 161 165
f 160 164 168
f 159 162 169
f 156 165 170
f 165 167 170
f 164 163 171
f 166 155 171
f 159 169 172
f 162 156 173
f 168 164 174
f 155 166 175
f 166 168 175
f 164 171 176
f 174 164 176
f 172 169 178
f 170 167 179
f 168 174 180
f 169 162 181
f 162 173 181
f 160 168 182
f 168 166 182
f 177 160 182
f 166 177 182
f 161 159 183
f 167 161 183
f 159 172 183
f 179 167 183
f 172 179 183
f 171 155 184
f 155 175 184
f 176 171 184
f 174 176 184
f 180 174 184
f 156 157 185
f 173 156 185
f 157 178 185
f 178 169 185
f 169 181 185
f 181 173 185
f 158 160 186
f 177 158 186
f 160 177 186
f 165 161 187
f 161 167 187
f 167 165 187
f 157 156 188
f 156 170 188
f 179 157 188
f 170 179 188
f 175 168 189
f 168 180 189
f 184 175 189
f 180 184 189
f 178 157 190
f 172 178 190
f 157 179 190
f 179 172 190
f 163 158 191
f 171 163 191
f 166 171 191
f 158 177 191
f 201 203 214
f 194 193 195
f 196 197 198
f 195 193 199
f 194 195 200
f 195 198 201
f 198 197 201
f 200 195 202
f 195 201 202
f 201 197 203
f 195 199 204
f 199 196 204
f 193 196 205
f 199 193 205
f 196 199 205
f 196 193 206
f 193 197 206
f 197 196 206
f 198 195 207
f 196 198 207
f 195 204 207
f 204 196 207
f 200 203 208
f 194 200 209
f 200 208 209
f 209 208 210
f 193 194 210
f 194 209 210
f 200 202 211
f 202 192 211
f 192 203 211
f 203 200 211
f 203 197 212
f 197 208 212
f 208 203 212
f 197 193 213
f 208 197 213
f 210 208 213
f 193 210 213
f 192 202 214
f 202 201 214
f 203 192 214
f 226 227 231
f 219 216 220
f 216 217 221
f 218 220 221
f 217 219 222
f 220 216 223
f 216 221 223
f 221 220 223
f 221 217 224
f 218 221 224
f 217 222 224
f 217 216 225
f 219 217 225
f 216 219 225
f 220 218 226
f 226 215 227
f 218 224 228
f 224 222 228
f 226 218 229
f 215 226 229
f 228 222 229
f 218 228 229
f 222 219 230
f 227 215 230
f 219 227 230
f 215 229 230
f 229 222 230
f 219 220 231
f 220 226 231
f 227 219 231
f 237 241 243
f 234 233 235
f 223 233 236
f 233 234 236
f 235 223 221
f 223 236 221
f 223 235 216
f 233 223 216
f 234 235 238
f 235 233 239
f 233 216 239
f 216 235 239
f 237 232 240
f 232 221 240
f 221 236 240
f 236 234 241
f 240 236 241
f 237 240 241
f 235 221 224
f 238 235 224
f 238 224 242
f 232 237 242
f 221 232 242
f 237 238 242
f 224 221 242
f 234 238 243
f 238 237 243
f 241 234 243
f 250 254 256
f 246 245 247
f 245 246 248
f 244 248 249
f 247 245 250
f 246 247 251
f 247 244 251
f 249 246 251
f 245 248 252
f 250 245 252
f 248 250 252
f 248 246 253
f 246 249 253
f 249 248 253
f 244 247 254
f 248 244 254
f 250 248 254
f 244 249 255
f 251 244 255
f 249 251 255
f 247 250 256
f 254 247 256
f 266 268 273
f 259 258 260
f 258 259 261
f 260 258 262
f 261 257 262
f 257 261 263
f 261 259 263
f 259 260 264
f 263 259 264
f 262 258 265
f 264 260 266
f 257 263 267
f 263 264 267
f 260 262 268
f 262 257 268
f 261 262 269
f 265 261 269
f 262 265 269
f 266 260 270
f 260 268 270
f 268 266 270
f 266 257 271
f 264 266 271
f 257 267 271
f 267 264 271
f 258 261 272
f 265 258 272
f 261 265 272
f 257 266 273
f 268 257 273
f 282 281 290
f 277 275 278
f 278 275 279
f 275 276 279
f 276 277 280
f 277 278 281
f 274 281 282
f 274 280 283
f 279 276 284
f 276 280 284
f 276 275 285
f 277 276 285
f 275 277 285
f 281 274 286
f 277 281 286
f 283 277 286
f 274 283 286
f 280 274 287
f 274 282 287
f 284 280 287
f 282 284 287
f 280 277 288
f 277 283 288
f 283 280 288
f 278 279 289
f 282 278 289
f 279 284 289
f 284 282 289
f 281 278 290
f 278 282 290
f 296 292 303
f 292 293 294
f 292 294 295
f 295 220 296
f 293 292 296
f 220 294 297
f 296 220 297
f 295 294 298
f 294 220 298
f 220 295 298
f 293 296 299
f 297 291 299
f 296 297 299
f 291 297 300
f 297 294 300
f 299 291 301
f 293 299 301
f 291 300 301
f 301 300 302
f 294 293 302
f 300 294 302
f 293 301 302
f 292 295 303
f 295 296 303
f 307 309 316
f 306 305 304
f 308 305 309
f 305 306 309
f 307 308 309
f 304 308 310
f 308 307 310
f 308 304 311
f 305 308 311
f 304 305 312
f 305 311 312
f 306 304 313
f 307 306 313
f 311 304 314
f 304 312 314
f 312 311 314
f 304 310 315
f 310 307 315
f 313 304 315
f 307 313 315
f 306 307 316
f 309 306 316
f 326 334 338
f 318 319 320
f 320 317 321
f 318 321 322
f 319 318 322
f 321 317 324
f 322 321 324
f 320 319 325
f 317 320 328
f 318 320 329
f 320 321 329
f 321 318 329
f 325 319 330
f 319 326 330
f 327 330 331
f 330 326 331
f 317 323 332
f 324 317 332
f 327 323 333
f 325 330 333
f 330 327 333
f 319 322 334
f 326 319 334
f 320 325 335
f 328 320 335
f 325 328 335
f 323 317 336
f 317 328 336
f 328 325 336
f 333 323 336
f 325 333 336
f 323 327 337
f 327 331 337
f 331 326 337
f 332 323 337
f 326 332 337
f 322 324 338
f 324 332 338
f 332 326 338
f 334 322 338
f 353 354 359
f 340 341 344
f 342 339 345
f 344 343 346
f 342 344 346
f 339 342 347
f 342 346 347
f 344 341 348
f 343 344 348
f 340 344 350
f 342 345 350
f 344 342 329
f 350 344 329
f 342 350 329
f 343 348 351
f 348 349 351
f 340 345 352
f 341 340 353
f 340 352 353
f 349 348 354
f 353 349 354
f 345 340 355
f 340 350 355
f 350 345 355
f 345 339 356
f 343 351 356
f 352 345 356
f 346 343 357
f 339 347 357
f 347 346 357
f 356 339 357
f 343 356 357
f 351 349 358
f 349 353 358
f 353 352 358
f 356 351 358
f 352 356 358
f 348 341 359
f 341 353 359
f 354 348 359
f 370 368 377
f 360 363 258
f 364 360 258
f 362 258 365
f 258 362 366
f 364 258 366
f 364 361 367
f 365 363 368
f 367 361 368
f 360 364 369
f 364 367 369
f 361 362 370
f 362 365 370
f 365 368 370
f 368 363 371
f 362 361 372
f 361 364 372
f 364 366 372
f 258 363 373
f 363 365 373
f 365 258 373
f 366 362 374
f 362 372 374
f 372 366 374
f 363 360 375
f 360 369 375
f 369 367 375
f 371 363 375
f 371 375 376
f 367 368 376
f 368 371 376
f 375 367 376
f 368 361 377
f 361 370 377
f 388 386 393
f 379 380 381
f 382 381 384
f 383 382 384
f 382 383 386
f 383 385 386
f 378 384 387
f 384 381 387
f 385 378 387
f 381 382 388
f 382 386 388
f 386 385 389
f 385 387 389
f 384 378 390
f 383 384 390
f 385 383 390
f 378 385 390
f 380 379 391
f 379 386 391
f 389 380 391
f 386 389 391
f 381 380 392
f 387 381 392
f 380 389 392
f 389 387 392
f 379 381 393
f 386 379 393
f 381 388 393
f 401 400 411
f 395 396 397
f 396 395 375
f 375 395 398
f 397 375 399
f 398 394 399
f 395 397 400
f 394 398 401
f 397 399 402
f 400 397 402
f 398 395 403
f 395 400 403
f 399 375 404
f 398 399 404
f 400 401 405
f 403 400 405
f 401 403 405
f 397 396 406
f 375 397 406
f 396 375 406
f 375 398 407
f 404 375 407
f 398 404 407
f 401 398 408
f 398 403 408
f 403 401 408
f 399 394 409
f 394 402 409
f 402 399 409
f 394 400 410
f 402 394 410
f 400 402 410
f 400 394 411
f 394 401 411
f 427 420 430
f 413 415 417
f 413 414 418
f 415 413 418
f 416 415 418
f 417 415 419
f 416 414 420
f 414 416 421
f 418 414 421
f 416 418 421
f 415 416 422
f 416 420 422
f 414 413 423
f 413 417 423
f 420 414 425
f 414 423 425
f 419 422 426
f 424 412 426
f 422 424 426
f 422 420 427
f 412 424 427
f 424 422 427
f 419 415 428
f 415 422 428
f 422 419 428
f 412 417 429
f 417 419 429
f 426 412 429
f 419 426 429
f 417 412 430
f 423 417 430
f 420 425 430
f 425 423 430
f 412 427 430
f 442 432 447
f 433 432 434
f 432 433 435
f 433 434 435
f 435 434 436
f 436 434 437
f 432 435 438
f 435 436 438
f 431 437 438
f 437 431 439
f 436 437 439
f 432 438 440
f 438 437 440
f 434 432 443
f 437 434 443
f 431 438 444
f 438 436 444
f 439 431 444
f 436 439 444
f 437 441 445
f 442 437 445
f 432 442 445
f 443 432 445
f 441 443 445
f 441 437 446
f 437 443 446
f 443 441 446
f 432 440 447
f 440 437 447
f 437 442 447
f 462 456 466
f 451 452 454
f 452 453 454
f 452 451 455
f 449 453 456
f 448 455 456
f 449 450 457
f 453 449 457
f 450 454 457
f 454 453 457
f 456 453 458
f 448 456 458
f 455 451 459
f 456 455 459
f 453 452 461
f 448 458 461
f 458 453 461
f 459 451 462
f 460 456 462
f 460 462 463
f 454 450 463
f 451 454 463
f 450 460 463
f 462 451 463
f 455 448 464
f 452 455 464
f 461 452 464
f 448 461 464
f 450 449 465
f 449 456 465
f 456 460 465
f 460 450 465
f 456 459 466
f 459 462 466
f 473 479 482
f 468 471 472
f 469 468 472
f 469 472 474
f 467 473 474
f 470 475 476
f 470 471 477
f 471 468 477
f 468 475 477
f 475 470 477
f 472 471 478
f 467 474 478
f 474 472 478
f 471 470 479
f 473 467 479
f 467 478 479
f 478 471 479
f 468 469 480
f 475 468 480
f 476 475 480
f 476 480 481
f 469 474 481
f 474 476 481
f 480 469 481
f 474 473 482
f 470 476 482
f 476 474 482
f 479 470 482
f 488 494 500
f 484 486 488
f 485 484 490
f 483 490 491
f 489 483 491
f 490 484 491
f 487 485 492
f 485 490 492
f 488 486 493
f 491 488 493
f 491 484 494
f 488 491 494
f 484 485 495
f 486 484 495
f 487 486 495
f 485 487 495
f 489 491 496
f 493 489 496
f 491 493 496
f 486 487 497
f 493 486 497
f 489 493 497
f 483 489 498
f 490 483 498
f 497 487 498
f 489 497 498
f 487 492 499
f 492 490 499
f 498 487 499
f 490 498 499
f 484 488 500
f 494 484 500
f 511 506 513
f 502 503 507
f 504 505 507
f 501 504 508
f 506 501 508
f 504 501 509
f 505 504 509
f 501 506 509
f 506 505 509
f 507 503 510
f 504 507 510
f 503 508 510
f 508 504 510
f 505 506 511
f 502 507 512
f 507 505 512
f 511 502 512
f 505 511 512
f 503 502 513
f 508 503 513
f 506 508 513
f 502 511 513
f 518 520 295
f 516 515 517
f 515 516 519
f 514 519 520
f 518 517 520
f 519 516 521
f 517 515 522
f 514 520 522
f 516 517 523
f 517 518 523
f 521 516 523
f 518 521 523
f 520 517 524
f 517 522 524
f 522 520 524
f 515 519 525
f 519 514 525
f 522 515 525
f 514 522 525
f 518 519 526
f 521 518 526
f 519 521 526
f 519 518 295
f 520 519 295
f 542 533 545
f 529 528 530
f 530 528 534
f 531 532 534
f 528 529 536
f 533 531 536
f 532 531 537
f 531 533 537
f 530 532 538
f 527 533 538
f 534 528 539
f 531 534 539
f 528 536 539
f 536 531 539
f 532 530 540
f 530 534 540
f 534 532 540
f 529 530 541
f 535 529 541
f 530 538 541
f 538 535 541
f 529 535 542
f 538 533 542
f 535 538 542
f 532 537 543
f 537 527 543
f 538 532 543
f 527 538 543
f 533 527 544
f 527 537 544
f 537 533 544
f 536 529 545
f 533 536 545
f 529 542 545
f 554 549 558
f 547 548 549
f 550 546 551
f 547 549 552
f 550 552 553
f 546 550 553
f 546 549 554
f 551 546 554
f 548 551 554
f 550 547 555
f 547 552 555
f 552 550 555
f 548 547 556
f 547 550 556
f 550 551 556
f 551 548 556
f 549 546 557
f 552 549 557
f 553 552 557
f 546 553 557
f 549 548 558
f 548 554 558
f 567 569 580
f 560 561 562
f 564 562 565
f 562 563 565
f 561 560 566
f 564 565 567
f 559 566 567
f 563 562 568
f 561 566 568
f 567 566 569
f 561 568 570
f 568 562 570
f 565 563 571
f 560 564 572
f 564 569 572
f 560 562 573
f 564 560 573
f 562 564 573
f 567 565 574
f 559 567 574
f 571 559 574
f 565 571 574
f 566 559 575
f 566 575 576
f 563 568 576
f 568 566 576
f 575 563 576
f 559 571 577
f 571 563 577
f 575 559 577
f 563 575 577
f 566 560 578
f 569 566 578
f 560 572 578
f 572 569 578
f 562 561 579
f 561 570 579
f 570 562 579
f 564 567 580
f 569 564 580
f 594 597 599
f 581 584 585
f 584 582 585
f 584 581 586
f 582 583 587
f 583 582 588
f 582 584 588
f 584 586 588
f 587 583 589
f 586 581 590
f 581 589 590
f 589 586 590
f 588 586 591
f 586 589 591
f 581 585 592
f 585 587 592
f 585 582 593
f 582 587 593
f 587 585 593
f 587 589 594
f 583 588 595
f 588 591 595
f 595 591 596
f 589 583 596
f 591 589 596
f 583 595 596
f 581 592 597
f 594 581 597
f 589 581 598
f 581 594 598
f 594 589 598
f 592 587 599
f 587 594 599
f 597 592 599
f 610 613 617
f 601 602 604
f 600 603 605
f 605 603 606
f 603 604 606
f 601 604 607
f 605 601 607
f 603 600 608
f 604 603 608
f 600 605 609
f 605 607 609
f 607 604 610
f 602 601 611
f 601 605 611
f 606 602 611
f 604 602 612
f 602 606 612
f 606 604 612
f 600 609 613
f 609 607 613
f 610 600 613
f 604 608 614
f 600 610 614
f 610 604 614
f 605 606 615
f 611 605 615
f 606 611 615
f 608 600 616
f 600 614 616
f 614 608 616
f 607 610 617
f 613 607 617
f 632 634 637
f 619 620 621
f 619 622 623
f 622 625 626
f 619 621 627
f 622 619 627
f 625 622 627
f 621 625 627
f 620 619 629
f 619 623 629
f 626 625 630
f 628 618 630
f 622 626 631
f 626 630 631
f 623 622 632
f 629 623 632
f 622 631 632
f 630 624 633
f 628 630 633
f 618 628 634
f 630 618 634
f 631 630 634
f 632 631 634
f 621 620 635
f 620 624 635
f 625 621 635
f 624 630 635
f 630 625 635
f 624 620 636
f 620 629 636
f 632 628 636
f 629 632 636
f 633 624 636
f 628 633 636
f 628 632 637
f 634 628 637
f 653 646 658
f 640 639 641
f 639 640 642
f 640 641 644
f 641 639 645
f 639 642 645
f 645 642 646
f 638 641 646
f 642 640 647
f 640 643 647
f 645 646 648
f 646 641 648
f 643 640 649
f 640 644 649
f 644 643 649
f 642 647 650
f 641 638 651
f 644 641 651
f 643 638 652
f 647 643 652
f 642 650 652
f 650 647 652
f 638 646 653
f 652 638 653
f 642 652 653
f 638 643 654
f 651 638 654
f 643 644 655
f 654 643 655
f 644 654 655
f 644 651 656
f 654 644 656
f 651 654 656
f 641 645 657
f 648 641 657
f 645 648 657
f 646 642 658
f 642 653 658
f 662 664 670
f 660 661 662
f 661 660 663
f 662 659 664
f 662 661 665
f 661 663 666
f 665 661 666
f 659 662 667
f 662 665 667
f 667 665 668
f 665 666 668
f 659 667 668
f 668 666 669
f 663 664 669
f 664 659 669
f 666 663 669
f 659 668 669
f 660 662 670
f 663 660 670
f 664 663 670
f 684 679 689
f 672 673 677
f 673 676 678
f 674 677 678
f 677 673 678
f 676 673 679
f 675 674 680
f 673 672 681
f 676 671 682
f 674 676 682
f 671 676 683
f 676 679 683
f 680 671 683
f 680 683 684
f 675 680 684
f 683 679 684
f 674 675 685
f 677 674 685
f 672 677 685
f 681 672 686
f 675 681 686
f 685 675 686
f 672 685 686
f 671 680 687
f 680 674 687
f 682 671 687
f 674 682 687
f 676 674 688
f 678 676 688
f 674 678 688
f 679 673 689
f 673 681 689
f 681 675 689
f 675 684 689
f 698 702 708
f 691 692 693
f 692 691 694
f 690 695 696
f 693 692 697
f 692 694 697
f 691 693 698
f 694 691 699
f 695 690 699
f 694 690 700
f 697 694 700
f 690 694 701
f 699 690 701
f 694 699 701
f 696 695 703
f 698 696 703
f 695 702 703
f 702 698 703
f 699 691 704
f 695 699 704
f 702 695 704
f 691 702 704
f 698 693 705
f 696 698 705
f 693 700 705
f 700 696 705
f 690 696 706
f 700 690 706
f 696 700 706
f 693 697 707
f 700 693 707
f 697 700 707
f 691 698 708
f 702 691 708
f 715 722 724
f 711 710 712
f 711 712 713
f 715 713 716
f 712 710 717
f 717 709 718
f 713 712 718
f 716 713 718
f 709 716 718
f 712 717 718
f 714 709 719
f 709 717 719
f 719 717 720
f 717 710 720
f 714 719 720
f 711 713 721
f 715 711 721
f 713 715 721
f 709 714 722
f 715 716 722
f 716 709 722
f 710 711 723
f 715 714 723
f 711 715 723
f 720 710 723
f 714 720 723
f 714 715 724
f 722 714 724
f 732 734 736
f 727 726 729
f 726 727 730
f 730 727 731
f 725 730 731
f 727 729 680
f 731 727 680
f 728 731 680
f 726 730 732
f 730 725 732
f 728 680 733
f 680 729 733
f 732 725 734
f 731 728 735
f 725 731 735
f 733 725 735
f 728 733 735
f 729 726 736
f 726 732 736
f 725 733 736
f 733 729 736
f 734 725 736
f 745 748 751
f 738 740 741
f 742 737 743
f 741 740 744
f 737 745 746
f 741 744 746
f 745 741 746
f 743 737 747
f 740 743 747
f 744 740 747
f 737 746 747
f 746 744 747
f 739 738 748
f 742 739 748
f 737 742 748
f 745 737 748
f 738 739 749
f 740 738 749
f 739 742 749
f 742 743 749
f 749 743 750
f 743 740 750
f 740 749 750
f 738 741 751
f 741 745 751
f 748 738 751
f 756 759 764
f 754 753 755
f 756 752 757
f 755 753 758
f 753 757 758
f 754 755 759
f 753 754 760
f 757 753 760
f 752 755 761
f 757 752 761
f 755 758 761
f 758 757 761
f 754 759 762
f 759 756 762
f 760 754 762
f 760 762 763
f 756 757 763
f 757 760 763
f 762 756 763
f 755 752 764
f 752 756 764
f 759 755 764
f 775 770 780
f 767 766 768
f 766 767 771
f 768 766 771
f 768 771 772
f 765 769 773
f 769 770 774
f 770 771 774
f 771 767 774
f 772 771 775
f 765 772 775
f 767 768 776
f 768 773 776
f 773 769 776
f 771 770 777
f 770 775 777
f 775 771 777
f 768 772 778
f 772 765 778
f 765 773 778
f 773 768 778
f 774 767 779
f 769 774 779
f 767 776 779
f 776 769 779
f 769 765 780
f 770 769 780
f 765 775 780
f 784 789 791
f 783 782 784
f 782 783 787
f 781 785 787
f 785 782 787
f 783 786 787
f 784 782 788
f 785 784 788
f 782 785 788
f 785 781 789
f 784 785 789
f 786 781 790
f 781 787 790
f 787 786 790
f 783 784 791
f 781 786 791
f 786 783 791
f 789 781 791
f 803 792 804
f 793 794 795
f 793 796 797
f 794 793 797
f 793 795 798
f 795 796 798
f 796 793 798
f 796 795 799
f 796 799 800
f 799 792 800
f 794 797 801
f 792 799 801
f 801 799 802
f 795 794 802
f 799 795 802
f 794 801 802
f 797 796 803
f 796 800 803
f 800 792 803
f 792 801 804
f 801 797 804
f 797 803 804
f 810 815 819
f 808 806 809
f 809 806 810
f 808 809 811
f 809 810 811
f 810 805 811
f 807 808 812
f 810 812 813
f 805 810 813
f 808 811 814
f 812 808 814
f 806 807 815
f 810 806 815
f 813 812 816
f 805 813 816
f 814 805 816
f 812 814 816
f 811 805 817
f 805 814 817
f 814 811 817
f 807 806 818
f 808 807 818
f 806 808 818
f 807 812 819
f 812 810 819
f 815 807 819
f 830 828 834
f 823 820 825
f 824 825 826
f 822 824 826
f 824 823 827
f 823 825 827
f 825 824 827
f 823 824 829
f 821 828 829
f 821 822 830
f 822 826 830
f 820 823 831
f 828 820 831
f 823 829 831
f 829 828 831
f 822 821 832
f 824 822 832
f 829 824 832
f 821 829 832
f 825 820 833
f 826 825 833
f 820 828 833
f 830 826 833
f 828 830 833
f 828 821 834
f 821 830 834
f 841 845 846
f 836 837 838
f 839 836 840
f 836 838 840
f 838 839 840
f 839 835 841
f 836 839 841
f 837 836 842
f 838 835 843
f 835 839 843
f 839 838 843
f 838 837 844
f 835 838 844
f 837 842 844
f 844 842 845
f 841 835 845
f 842 836 845
f 835 844 845
f 845 836 846
f 836 841 846
f 855 850 859
f 849 848 851
f 850 851 852
f 851 848 852
f 849 850 853
f 850 852 853
f 851 850 855
f 849 851 855
f 852 848 835
f 847 853 835
f 853 852 835
f 854 847 856
f 835 848 856
f 847 835 856
f 853 847 857
f 847 854 857
f 857 854 858
f 848 849 858
f 849 853 858
f 856 848 858
f 854 856 858
f 853 857 858
f 850 849 859
f 849 855 859
f 867 863 870
f 862 861 864
f 861 863 864
f 863 861 865
f 862 864 866
f 860 865 866
f 864 863 867
f 861 862 868
f 865 861 868
f 862 866 868
f 866 865 868
f 860 866 869
f 866 864 869
f 867 860 869
f 864 867 869
f 865 860 870
f 863 865 870
f 860 867 870
f 880 877 884
f 872 875 876
f 875 874 876
f 871 875 878
f 875 871 879
f 874 875 879
f 871 877 880
f 879 871 880
f 874 879 880
f 873 872 881
f 872 876 881
f 876 877 881
f 877 878 881
f 877 871 882
f 878 877 882
f 871 878 882
f 872 873 883
f 875 872 883
f 878 875 883
f 873 881 883
f 881 878 883
f 876 874 884
f 877 876 884
f 874 880 884
f 889 893 899
f 886 887 889
f 888 889 890
f 887 886 892
f 889 887 893
f 889 888 894
f 886 889 894
f 892 886 894
f 888 892 894
f 890 885 895
f 891 890 895
f 885 893 895
f 893 891 895
f 887 892 896
f 893 887 896
f 891 893 896
f 888 891 897
f 892 888 897
f 896 892 897
f 891 896 897
f 888 890 898
f 891 888 898
f 890 891 898
f 885 890 899
f 890 889 899
f 893 885 899
f 908 909 912
f 901 902 905
f 900 903 905
f 903 904 906
f 903 900 907
f 900 904 907
f 904 903 907
f 902 901 908
f 905 902 908
f 904 900 909
f 908 901 909
f 901 905 910
f 905 903 910
f 903 906 910
f 906 901 910
f 906 904 911
f 901 906 911
f 904 909 911
f 909 901 911
f 900 905 912
f 905 908 912
f 909 900 912
f 920 924 928
f 915 914 916
f 917 913 918
f 915 916 919
f 919 917 920
f 917 918 920
f 916 914 921
f 919 916 922
f 917 919 922
f 915 919 923
f 919 920 923
f 920 915 923
f 920 918 924
f 913 916 925
f 918 913 925
f 916 921 925
f 921 918 925
f 913 917 926
f 922 913 926
f 917 922 926
f 916 913 927
f 913 922 927
f 922 916 927
f 914 915 928
f 915 920 928
f 921 914 928
f 918 921 928
f 924 918 928
f 934 933 936
f 931 930 932
f 929 932 933
f 932 930 933
f 929 933 934
f 931 932 935
f 932 929 935
f 934 931 935
f 929 934 935
f 930 931 936
f 933 930 936
f 931 934 936
f 947 939 948
f 939 938 940
f 940 938 941
f 938 939 943
f 941 938 943
f 937 941 944
f 941 943 944
f 941 937 945
f 940 941 945
f 937 942 945
f 945 942 946
f 939 940 946
f 940 945 946
f 942 937 947
f 943 939 947
f 944 943 947
f 937 944 947
f 946 942 948
f 939 946 948
f 942 947 948
f 957 953 958
f 950 951 955
f 951 952 955
f 952 949 955
f 954 950 955
f 954 955 674
f 953 954 674
f 955 949 674
f 953 674 956
f 949 952 956
f 952 953 956
f 674 949 956
f 951 950 957
f 950 954 957
f 954 953 957
f 952 951 958
f 953 952 958
f 951 957 958
f 964 962 970
f 960 836 961
f 836 959 963
f 961 836 963
f 961 963 964
f 960 961 964
f 959 836 965
f 962 959 965
f 959 962 966
f 964 959 966
f 962 964 966
f 836 960 967
f 965 836 967
f 962 965 967
f 963 959 968
f 964 963 968
f 959 964 968
f 960 962 969
f 967 960 969
f 962 967 969
f 962 960 970
f 960 964 970

