# https://github.com/mikedh/trimesh
v -0.00849200 -0.04066200 -0.00400200
v 0.00889300 -0.03631600 0.00294900
v 0.00802300 -0.03196900 0.00208000
v -0.00501400 -0.03631600 0.00816300
v -0.00327600 -0.03196900 -0.00748100
v 0.00802300 -0.04066200 -0.00487200
v 0.00280700 -0.04066200 0.00903500
v -0.00762200 -0.03196900 0.00294900
v 0.00106800 -0.03196900 0.00816300
v 0.00193800 -0.03631600 -0.00921900
v 0.00628400 -0.03196900 -0.00574200
v -0.00762200 -0.04066200 0.00555800
v -0.00153700 -0.04066200 -0.00921900
v 0.00715300 -0.04066200 0.00642400
v -0.00762200 -0.03631600 -0.00574200
v 0.00628400 -0.03631600 0.00729600
v -0.00762200 -0.03196900 -0.00313300
v 0.00889300 -0.03631600 -0.00313300
v -0.00588400 -0.04066000 0.14376200
v 0.03583800 -0.03110000 0.14114900
v 0.03322800 -0.03110000 0.14202000
v -0.03543800 -0.03110000 0.04294500
v 0.03409400 -0.04066000 0.03858900
v -0.03369400 -0.04066000 0.03858900
v -0.03543800 -0.03110000 0.14114900
v 0.03583800 -0.03110000 0.04294500
v 0.03409400 -0.04066000 0.13854600
v -0.03369400 -0.04066000 0.13853500
v -0.00240300 -0.03197000 0.14985000
v -0.03543800 -0.03544700 0.03947100
v -0.03543800 -0.03892200 0.13940600
v 0.03583800 -0.03718400 0.13940600
v 0.03409400 -0.03631500 0.03858900
v 0.02192600 -0.04066000 0.14202000
v 0.03496600 -0.03979100 0.03947100
v 0.00193700 -0.03110000 0.14985000
v -0.03543800 -0.03892200 0.03947100
v -0.02239800 -0.04066000 0.14200900
v -0.03456600 -0.03631500 0.03858900
v 0.01063000 -0.04066000 0.14375200
v 0.02453500 -0.03197000 0.14462300
v 0.03583800 -0.03370900 0.04207400
v -0.02674500 -0.03284000 0.14375200
v 0.03496600 -0.03979100 0.13854600
v 0.00193700 -0.03197000 0.14985000
v -0.03109300 -0.00415700 0.15070900
v -0.03543800 -0.03109800 0.04380400
v -0.03543800 -0.03022700 0.04380400
v -0.03022300 -0.03109800 0.04380400
v -0.03456800 -0.03109800 0.14201300
v -0.03543800 -0.00415700 0.05337900
v -0.03543800 -0.00415700 0.14461900
v -0.03022300 -0.03109800 0.14288200
v -0.03022300 -0.00415700 0.08032500
v -0.03196200 -0.00415700 0.05337900
v -0.03543800 -0.03109800 0.14114500
v -0.03022300 -0.00415700 0.15070900
v -0.03543800 -0.01892900 0.14461900
v -0.03109300 -0.00676500 0.15070900
v -0.02239700 -0.01892900 0.15593500
v 0.02106200 -0.00676500 0.15593500
v -0.02152800 -0.00415700 0.15593500
v 0.01671500 -0.00415700 0.07597300
v -0.01891800 -0.03109800 0.07597300
v 0.02106200 -0.03109800 0.14549400
v -0.03022300 -0.00415700 0.08031800
v 0.02106200 -0.03109800 0.08032500
v -0.03022300 -0.03109800 0.14288700
v -0.03022300 -0.03109800 0.08031800
v -0.03022300 -0.00415700 0.15071400
v 0.01149900 -0.02675100 0.15593500
v 0.02106200 -0.00415700 0.08032500
v 0.02106200 -0.00415700 0.13593700
v 0.01845100 -0.03109800 0.07597300
v -0.01718100 -0.00415700 0.07597300
v -0.00674900 -0.03109800 0.15070700
v -0.01196500 -0.02675100 0.15593500
v 0.02106200 -0.01979600 0.15593500
v -0.02848100 -0.00589700 0.15593500
v 0.00715100 -0.03109800 0.15070700
v -0.02674400 -0.01197900 0.15593500
v 0.03583900 -0.00415700 0.08031200
v 0.03062400 -0.03109800 0.04380400
v 0.03062400 -0.03022700 0.04380400
v 0.02975400 -0.03022700 0.08031200
v 0.03583900 -0.03109800 0.08031200
v 0.03583900 -0.03022700 0.04380400
v 0.03236200 -0.00415700 0.05336700
v 0.03236200 -0.00415700 0.08031200
v 0.03583900 -0.00415700 0.05336700
v 0.02975400 -0.03109800 0.06814000
v 0.03583900 -0.03109800 0.04380400
v 0.03496700 0.01496300 0.14549000
v 0.02106200 -0.03109800 0.08031200
v 0.02106200 0.03148500 0.08031200
v 0.02106200 -0.01892500 0.15593500
v 0.03583900 0.03148500 0.08031200
v 0.02106200 0.03148500 0.14463200
v 0.03583900 -0.03109800 0.14114500
v 0.03583900 0.03148500 0.14114500
v 0.02106200 -0.03109800 0.14549000
v 0.02801600 0.00801600 0.15593500
v 0.02106200 0.01930600 0.15593500
v 0.02888400 -0.00328000 0.15593500
v 0.03496700 -0.01458200 0.14549000
v 0.02627900 -0.01284800 0.15593500
v 0.02453900 0.01582700 0.15593500
v 0.02453900 0.03148500 0.14463200
v 0.02193400 -0.01892500 0.15593500
v -0.03109300 0.03148500 0.14288100
v -0.03543800 -0.00415400 0.05337900
v -0.03543800 0.03061300 0.04294500
v -0.03022300 0.02974400 0.04382100
v -0.02935400 -0.00415400 0.15072000
v -0.03543800 -0.00415400 0.14462200
v -0.03543800 0.03148500 0.14114100
v -0.02935400 -0.00415400 0.08031200
v -0.02935400 0.03148500 0.14288100
v -0.03196200 -0.00415400 0.05337900
v -0.02935400 0.03148500 0.08031200
v -0.03109300 0.00714900 0.15072000
v -0.03543800 0.03148500 0.04294500
v -0.03543800 0.01844500 0.14462200
v -0.03022300 0.03148500 0.04382100
v -0.02935400 0.01062700 0.15072000
v -0.03196200 -0.00241300 0.14983400
v -0.02326900 0.01757600 0.15593500
v 0.02105700 0.02018200 0.15593500
v 0.02105700 0.00628000 0.15593500
v 0.01671400 -0.00415400 0.07597300
v -0.01892100 0.03148500 0.07597300
v -0.02934900 -0.00415400 0.08031800
v 0.02105700 0.03148500 0.08032500
v -0.02848000 -0.00415400 0.15593500
v -0.02934900 0.03148500 0.14288700
v 0.02105700 -0.00415400 0.13593700
v 0.02105700 0.03148500 0.14549400
v -0.02934900 0.03148500 0.08031800
v -0.01283600 0.02626600 0.15593500
v 0.02105700 -0.00415400 0.08032500
v 0.01932000 0.03148500 0.07597300
v -0.01718400 -0.00415400 0.07597300
v 0.00541300 0.03148500 0.15070700
v -0.02934900 -0.00415400 0.15071400
v -0.02152700 -0.00415400 0.15593500
v 0.01236600 0.02626600 0.15593500
v -0.02848000 0.00628000 0.15593500
v -0.00501400 0.03148500 0.15070700
v -0.01718400 0.02366000 0.15593500
v 0.02975400 0.03148500 0.08031200
v 0.03236200 -0.00415400 0.05336800
v 0.03583900 -0.00415400 0.05336800
v 0.03323100 0.03148500 0.04293800
v 0.03583900 -0.00415400 0.08031200
v 0.02975400 0.03061300 0.04380900
v 0.03583900 0.03148500 0.04293800
v 0.03236200 -0.00415400 0.08031200
v 0.00367900 -0.04414000 0.10986600
v 0.02193100 -0.04153300 0.12898800
v 0.01845100 -0.04066200 0.12811900
v -0.00153800 -0.05196200 0.13507000
v 0.01931900 -0.05196200 0.12116800
v -0.00153800 -0.04153300 0.13768100
v 0.02193100 -0.04153300 0.10986600
v 0.00454700 -0.05196200 0.11073700
v -0.00153800 -0.04066200 0.11247700
v 0.01497700 -0.04674500 0.13507000
v 0.02193100 -0.04587700 0.10986600
v 0.01497700 -0.04066200 0.13507000
v 0.00541600 -0.05196200 0.13507000
v -0.00153800 -0.05196200 0.12638200
v 0.01149900 -0.05196200 0.11073700
v 0.00803000 -0.04414000 0.13768100
v 0.02193100 -0.04414000 0.12898800
v 0.00454700 -0.04066200 0.10986600
v -0.00153800 -0.04414000 0.11334500
v -0.00066700 -0.04066200 0.12725000
v 0.01931900 -0.05109000 0.12377100
v -0.00762200 0.04017700 -0.00574200
v 0.00889300 0.04017700 0.00294900
v 0.00889300 0.03670000 0.00294900
v -0.00501400 0.04017700 0.00816300
v -0.00762200 0.03235400 0.00381700
v 0.00367700 0.03235400 -0.00748100
v 0.00454500 0.03235400 0.00729600
v 0.00454500 0.04017700 -0.00834700
v -0.00414600 0.03235400 -0.00748100
v 0.00802300 0.03235400 -0.00226500
v 0.00280700 0.04017700 0.00903500
v -0.00240700 0.03235400 0.00816300
v -0.00849200 0.04017700 0.00381700
v -0.00762200 0.03235400 -0.00400200
v -0.00153700 0.04017700 -0.00921900
v 0.00889300 0.04017700 -0.00313300
v -0.03543800 0.03930700 0.03946100
v -0.02240000 0.03235400 0.14463500
v -0.02240000 0.03148500 0.14463500
v -0.02240000 0.04017700 0.03858900
v -0.03456700 0.04017700 0.13854200
v -0.03543800 0.03148500 0.04293800
v -0.03543800 0.03148500 0.14114700
v -0.02240000 0.04017700 0.14114700
v -0.02240000 0.03322500 0.04120400
v -0.02240000 0.03148500 0.08031800
v -0.03456700 0.04017700 0.03858900
v -0.03543800 0.03843700 0.13941400
v -0.02848500 0.03148500 0.04293800
v -0.03456700 0.03669900 0.03858900
v -0.02935100 -0.05456900 0.13941100
v 0.02975400 -0.05196300 0.13940400
v 0.02975400 -0.05456900 0.13940400
v -0.01109500 -0.05543800 0.07510300
v -0.03283100 -0.05196300 0.08727500
v 0.02975400 -0.05283200 0.07510300
v -0.03195500 -0.05196300 0.13941100
v 0.02975400 -0.05543800 0.07510300
v -0.03108500 -0.05543800 0.13767000
v 0.01671200 -0.05543800 0.14115100
v -0.03108500 -0.05543800 0.08727500
v 0.00194100 -0.05196300 0.08380700
v -0.01109500 -0.05283200 0.07510300
v -0.00848500 -0.05196300 0.14376600
v 0.02975400 -0.05543800 0.13766300
v -0.01022500 -0.05543800 0.14201800
v 0.00802500 -0.05370100 0.14376600
v -0.03283100 -0.05370100 0.13853700
v 0.02975400 -0.05196300 0.12897900
v -0.03283100 -0.05370100 0.08727500
v 0.01671200 -0.05196300 0.14287900
v -0.01631400 -0.05370100 0.14288500
v -0.00414400 -0.04066200 -0.01443500
v 0.01497500 -0.05283000 0.07509600
v 0.01497500 -0.05543700 0.07509600
v -0.01109700 -0.05543700 0.07509600
v 0.01497500 -0.05543700 -0.00747600
v 0.01410700 -0.04066200 0.06900600
v -0.01109700 -0.04066200 0.07075000
v -0.01109700 -0.05543700 -0.00747600
v 0.01497500 -0.04066200 -0.00834400
v -0.01109700 -0.04066200 -0.01008800
v 0.00193900 -0.05022200 -0.01443500
v 0.00628300 -0.04066200 -0.01355800
v -0.00935900 -0.04935300 -0.01182300
v 0.01236900 -0.04066200 0.07074100
v 0.01410700 -0.05369900 -0.00921100
v -0.01109700 -0.05283000 0.07509600
v -0.00414400 -0.04935300 -0.01443500
v -0.00153800 -0.05283000 -0.01182300
v 0.03236100 -0.04066200 0.13853200
v 0.02975400 -0.05543700 -0.00312800
v 0.02975400 -0.05456800 -0.00486100
v 0.03323100 -0.05369900 -0.00138000
v 0.03149300 -0.05543700 0.13766600
v 0.02975400 -0.04066200 -0.00572800
v 0.02975400 -0.04066200 0.13941300
v 0.03323100 -0.04066200 -0.00224700
v 0.03323100 -0.05369900 0.13766600
v 0.02975400 -0.05543700 0.13766600
v 0.03323100 -0.04066200 0.13679900
v 0.03149300 -0.05543700 -0.00224700
v 0.03236100 -0.05369900 -0.00399500
v 0.03583900 0.03496300 0.08813500
v -0.02240000 0.03669900 0.03859800
v -0.02240000 0.03409300 0.04033400
v -0.02240000 0.04017700 0.08725700
v 0.03496700 0.04017700 0.03946600
v 0.03583900 0.03148500 0.04294300
v -0.02240000 0.03148500 0.08725700
v 0.03496700 0.04017700 0.08813500
v -0.02240000 0.04017700 0.03859800
v 0.03583900 0.03148500 0.08813500
v -0.02240000 0.03322500 0.04120200
v 0.03409400 0.03669900 0.03859800
v -0.01978900 0.03148500 0.07595800
v -0.01196700 0.03148500 0.08813500
v 0.02888400 0.03148500 0.04294300
v -0.01109500 0.03583100 0.08813500
v 0.03409400 0.04017700 0.03859800
v 0.03496700 0.03409300 0.04033400
v -0.03109200 0.05582300 -0.00226300
v -0.03283100 0.04626200 0.01251700
v -0.03022300 0.04626200 0.01251700
v -0.02935400 0.05582300 0.11682000
v -0.03283100 0.04974000 0.11682000
v -0.03022300 0.04626200 0.09682100
v -0.03283100 0.05408400 0.11682000
v -0.02935400 0.04974000 -0.00574200
v -0.03283100 0.05408400 -0.00226300
v -0.02935400 0.05582300 -0.00312700
v -0.03283100 0.04626200 0.09769600
v -0.02935400 0.05321500 0.11682000
v -0.03109200 0.05582300 0.11682000
v -0.03283100 0.04974000 -0.00312700
v -0.03022300 0.04974000 0.11682000
v -0.02413800 0.04973900 -0.00748000
v -0.01457700 0.05582300 0.11682000
v -0.01457700 0.05582300 -0.00661000
v -0.02935400 0.05582300 -0.00400000
v -0.01457700 0.05321500 0.11682000
v -0.01457700 0.04973900 -0.00835000
v -0.02935400 0.04973900 -0.00226100
v -0.01805500 0.05408400 -0.00835000
v -0.02935400 0.05408400 -0.00574000
v -0.03022100 -0.05369900 -0.00574100
v -0.01110100 -0.04066200 -0.00400400
v -0.01110100 -0.05196200 -0.00400400
v -0.03283100 -0.04066200 0.00034200
v -0.01197300 -0.04066200 -0.00921900
v -0.02413700 -0.05543700 0.00034200
v -0.03022100 -0.04066200 -0.00574100
v -0.01371100 -0.05196200 -0.00921900
v -0.03283100 -0.05369900 0.00034200
v -0.02413700 -0.05543700 -0.00487200
v -0.03283100 -0.05369900 -0.00313500
v -0.02413500 -0.04066200 -0.00748000
v -0.01110100 -0.04935300 -0.00921900
v -0.03022100 -0.04066200 0.00034200
v -0.03108900 -0.05543700 -0.00313500
v -0.01979000 -0.05370000 -0.00834100
v -0.01110100 -0.05283200 0.08726600
v -0.01110100 -0.05543900 0.08726600
v -0.02413700 -0.05283200 0.08726600
v -0.01110100 -0.05196200 -0.00921900
v -0.02413700 -0.05543900 -0.00573400
v -0.01110100 -0.05543900 -0.00747200
v -0.02413700 -0.05196200 -0.00747200
v -0.02413700 -0.05543900 0.08726600
v -0.01110100 -0.05196200 0.07074700
v -0.02413700 -0.05196200 0.03858900
v -0.02935400 -0.04066200 0.13941500
v -0.03283100 -0.05196200 0.08726600
v -0.03283100 -0.04066200 0.08726600
v -0.03283100 -0.05196200 0.13854200
v -0.03022300 -0.05196200 0.08726600
v -0.02935400 -0.05196200 0.13941500
v -0.03283100 -0.04066200 0.13767400
v -0.03022300 -0.04066200 0.08726600
v -0.02935400 -0.04066200 0.12811300
v -0.01110000 -0.04413900 0.10986600
v -0.01979200 -0.04413900 0.08900600
v -0.01979200 -0.04153300 0.08900600
v 0.00628500 -0.04500700 0.09074400
v 0.00454200 -0.04066200 0.10986600
v 0.00454200 -0.04848500 0.10551800
v -0.02848400 -0.04413900 0.10899600
v -0.01979200 -0.04848500 0.09161400
v 0.00628500 -0.04066200 0.09074400
v -0.02674500 -0.04066200 0.10551800
v -0.02500600 -0.04674600 0.10638600
v 0.00628500 -0.04413900 0.10986600
v -0.02674500 -0.04413900 0.09856700
v 0.00454200 -0.04848500 0.10030300
v -0.02413800 -0.04066200 0.10899600
v -0.00675700 -0.04848500 0.10551800
v -0.02674500 -0.04066200 0.10117100
v 0.00541400 -0.04587700 0.09074400
v -0.02674500 -0.04674600 0.10204100
v -0.01370700 -0.04848500 0.09161400
v -0.01979200 -0.04848500 0.09682900
v -0.01892400 -0.04066200 0.09422400
v 0.02280100 -0.04066200 0.13767800
v 0.02888400 -0.05196200 0.12898600
v 0.02193100 -0.04414000 0.10986600
v 0.02975400 -0.04066200 0.12898600
v 0.02280100 -0.05196200 0.13767800
v 0.02975400 -0.05196200 0.13767800
v 0.02714500 -0.04153200 0.11334800
v 0.02975400 -0.04066200 0.13767800
v 0.02193100 -0.04153200 0.10986600
v 0.02975400 -0.05196200 0.12898600
v 0.02801500 -0.04414000 0.11508500
v 0.02193100 -0.04414000 0.12811700
v 0.02454000 -0.05196200 0.13159400
v -0.01196500 0.04017700 -0.00921200
v 0.01410500 0.05582300 0.07161900
v -0.01457400 0.05582300 0.07161900
v 0.01236700 0.04017700 0.07074300
v 0.01410500 0.05582300 -0.00660100
v -0.01457400 0.05582300 -0.00660900
v -0.01457400 0.04017700 0.06814100
v 0.01410500 0.04017700 -0.00486600
v 0.00367700 0.04973800 -0.01443500
v -0.01457400 0.04017700 -0.00313000
v 0.00628300 0.04017700 -0.01355900
v 0.01410500 0.04017700 0.06987600
v -0.00414600 0.04017700 -0.01443500
v -0.01196500 0.04017700 0.07074300
v -0.00414600 0.04973800 -0.01443500
v 0.01410500 0.05060700 -0.00921200
v -0.01370600 0.05060700 -0.00921200
v 0.01150000 0.05582300 -0.00747700
v -0.01457400 0.05321500 0.07161900
v 0.01236700 0.04017700 -0.00834400
v 0.02019300 0.05060800 -0.00835000
v 0.02975400 0.05582300 0.11682000
v 0.01410800 0.05582300 0.11682000
v 0.01758800 0.05582300 -0.00661000
v 0.02975400 0.04973900 -0.00139100
v 0.02975400 0.05582300 -0.00400000
v 0.01410800 0.05321500 0.11682000
v 0.01410800 0.04973900 -0.00835000
v 0.02975400 0.05321500 0.11682000
v 0.01410800 0.05582300 -0.00661000
v 0.02975400 0.04973900 -0.00574000
v 0.01845500 0.05408400 -0.00835000
v 0.03062400 0.05582300 0.11682000
v 0.03062400 0.04626200 0.01251700
v 0.03323100 0.04626200 0.01251700
v 0.03062400 0.05582300 -0.00312700
v 0.03323100 0.05321500 0.11682000
v 0.03062400 0.04626200 0.09769600
v 0.03323100 0.05321500 -0.00226300
v 0.02975400 0.04974000 -0.00574200
v 0.03323100 0.04626200 0.09682100
v 0.02975400 0.05582300 -0.00312700
v 0.03062400 0.04974000 0.11682000
v 0.03323100 0.04974000 0.11682000
v 0.03323100 0.04974000 -0.00226300
v -0.03022200 0.04017700 0.12464400
v -0.02066100 0.04886900 0.13941800
v -0.02066100 0.04017700 0.13941800
v -0.03283100 0.04886900 0.13854900
v -0.03022200 0.04886900 0.12464400
v -0.03283100 0.04017700 0.13768000
v -0.03283100 0.04886900 0.12464400
v -0.03283100 0.04017700 0.12464400
v -0.02414000 0.04017700 0.13246400
v -0.03109000 0.04017700 0.13941800
v -0.02414000 0.04886900 0.13246400
v -0.02151700 0.04017700 0.14202600
v 0.02018200 0.05582300 0.14029000
v 0.02018200 0.05408300 0.14202600
v 0.02887900 0.04017700 0.13942000
v -0.02760300 0.05408300 0.13942000
v -0.00327500 0.05408300 0.14376500
v 0.00802100 0.04017700 0.14376500
v -0.02847900 0.04017700 0.13942000
v 0.02800400 0.05408300 0.13942000
v -0.02151700 0.05321300 0.14202600
v -0.00849100 0.04017700 0.14376500
v -0.01978200 0.05582300 0.13942000
v 0.02539800 0.04017700 0.14115900
v 0.01670700 0.05321300 0.14289600
v 0.02887900 0.05321300 0.14029000
v -0.02847900 0.05321300 0.14029000
v -0.01456600 0.05582300 0.14115900
v 0.00802100 0.05321300 0.14376500
v -0.01630600 0.05321300 0.14289600
v 0.00280800 0.05582300 0.13941700
v -0.03283100 0.04974000 0.11682200
v -0.03283100 0.04886900 0.12464600
v -0.03109000 0.05582300 0.13681000
v 0.00280800 0.05582300 0.11682200
v -0.02065600 0.04886900 0.13941700
v -0.03109000 0.05582300 0.11682200
v 0.00280800 0.05321500 0.11682200
v 0.00280800 0.05321500 0.13941700
v -0.03195800 0.04886900 0.13941700
v -0.03283100 0.05321500 0.13854800
v -0.02413400 0.05582300 0.13941700
v -0.03022100 0.04886900 0.12464600
v -0.03283100 0.05408500 0.11682200
v 0.02801600 -0.04153200 0.10464900
v 0.00628500 -0.04413900 0.09074300
v 0.00802500 -0.05109200 0.09248200
v 0.00628500 -0.04153200 0.10986600
v 0.02279800 -0.04935300 0.10464900
v 0.02106000 -0.04153200 0.09074300
v 0.01932000 -0.05109200 0.09248200
v 0.00628500 -0.04066300 0.09248200
v 0.00715500 -0.04500800 0.10986600
v 0.02279600 -0.04153200 0.10986600
v 0.00802500 -0.05109200 0.09769900
v 0.02627600 -0.04413900 0.09769900
v 0.02366400 -0.04066300 0.10464900
v 0.02192600 -0.04587700 0.10986600
v 0.02453800 -0.04935300 0.09943600
v 0.00715500 -0.04066300 0.10812700
v 0.02801600 -0.04413900 0.10464900
v 0.02366400 -0.04066300 0.09856700
v 0.02453900 0.04017700 0.13159800
v 0.03323100 0.04886900 0.13768000
v 0.03149100 0.04886900 0.13941800
v 0.03062100 0.04886900 0.12464400
v 0.02106200 0.04886900 0.13941800
v 0.03236200 0.04017700 0.13854900
v 0.03323100 0.04017700 0.12464400
v 0.02106200 0.04017700 0.13941800
v 0.03323100 0.04886900 0.12464400
v 0.02453900 0.04886900 0.13159800
v 0.03062100 0.04017700 0.12464400
v -0.02848400 -0.04414000 0.10899700
v -0.00153800 -0.04153300 0.13767800
v -0.00675300 -0.04066200 0.12637500
v -0.00849400 -0.05196200 0.11334800
v -0.01892300 -0.05196200 0.12811900
v -0.00240900 -0.04066200 0.10986700
v -0.02500500 -0.04153300 0.12464000
v -0.02674400 -0.04935400 0.11073700
v -0.02413800 -0.04066200 0.10899700
v -0.00153800 -0.04414000 0.13767800
v -0.00849400 -0.04153300 0.13767800
v -0.00153800 -0.04414000 0.11247800
v -0.00849400 -0.05196200 0.12117000
v -0.01110200 -0.04414000 0.10899700
v -0.02674400 -0.04414000 0.12116400
v -0.00153800 -0.04587800 0.12204000
v -0.02239700 -0.04414000 0.12811900
v -0.01979100 -0.05196200 0.11855900
v -0.00849400 -0.04414000 0.13767800
v -0.02848400 -0.04153300 0.11508300
v -0.02674400 -0.04935400 0.11508300
v -0.02065900 -0.05022300 0.12811900
v -0.00327900 -0.04414000 0.10986700
v 0.03322800 0.05321500 0.13767900
v 0.00281100 0.05321500 0.11682200
v 0.00281100 0.05582300 0.11682200
v 0.00281100 0.05321500 0.13941700
v 0.03322800 0.04974000 0.11682200
v 0.02106000 0.04886900 0.13941700
v 0.03062000 0.05582300 0.11682200
v 0.02453700 0.05582300 0.13941700
v 0.00281100 0.05582300 0.13941700
v 0.03148900 0.04886900 0.13941700
v 0.03062000 0.04886900 0.12464600
v 0.03062000 0.05582300 0.13767900
v 0.03322800 0.05321500 0.11682200
v 0.03322800 0.04886900 0.13767900
v 0.02627700 0.04017700 0.13072700
v 0.02193100 0.03148500 0.09856600
v 0.02193100 0.03496300 0.09856600
v 0.02193100 0.03148500 0.12202900
v 0.02540700 0.03148500 0.10726400
v 0.02627700 0.03148500 0.13072700
v 0.02367000 0.04017700 0.13072700
v 0.02367000 0.03583100 0.10117900
v 0.02367000 0.03148500 0.13072700
v 0.02193100 0.03583100 0.12116000
v -0.03283100 -0.05370000 0.00034200
v -0.02413800 -0.05283100 0.08726600
v -0.02413800 -0.05543900 0.08726600
v -0.02413800 -0.05543900 0.00034200
v -0.03109100 -0.05543900 0.08726600
v -0.03283100 -0.05109300 0.00034200
v -0.03283100 -0.05109300 0.08726600
v -0.02413800 -0.05196200 0.02816500
v -0.03109100 -0.05543900 0.00034200
v -0.02413800 -0.05283100 0.00034200
v -0.03022200 -0.05109300 0.08726600
v -0.03283100 -0.05370000 0.08726600
v -0.03022200 -0.05109300 0.00034200
v -0.02413700 -0.04848300 0.06987800
v -0.01110100 -0.04066200 0.07074800
v -0.01544800 -0.04066200 0.07596600
v -0.01110100 -0.05196200 0.07074800
v -0.01457900 -0.04066200 0.05423900
v -0.01110100 -0.05196200 0.05684500
v -0.02413700 -0.04414000 0.07596600
v -0.01979000 -0.05022300 0.07509400
v -0.01110100 -0.04066200 0.05423900
v -0.01370900 -0.05196200 0.05684500
v -0.02065900 -0.04066200 0.07074800
v -0.02413700 -0.04414000 0.06987800
v -0.01544800 -0.04848300 0.07596600
v -0.01457900 -0.04414000 0.05423900
v -0.02413700 -0.04848300 0.07596600
v -0.02935400 -0.05196200 0.13941800
v -0.01110200 -0.04066200 0.14289700
v -0.01110200 -0.04066200 0.14028800
v -0.02935400 -0.04066200 0.13507400
v -0.01110200 -0.05196200 0.14028800
v -0.02413700 -0.05196200 0.13507400
v -0.02848200 -0.04066200 0.14028800
v -0.01631700 -0.05196200 0.14289700
v -0.02413700 -0.04066200 0.13507400
v -0.02935400 -0.05196200 0.13507400
v -0.01631700 -0.04066200 0.14289700
v -0.01110200 -0.05196200 0.14289700
v 0.02019300 -0.05456800 -0.00747900
v 0.02975400 -0.04066200 -0.00139700
v 0.02975400 -0.04066200 -0.00574200
v 0.01497700 -0.04066200 -0.00574200
v 0.01497700 -0.05543700 -0.00052700
v 0.02975400 -0.05543700 -0.00052700
v 0.01497700 -0.05369900 -0.00835000
v 0.02975400 -0.05369900 -0.00574200
v 0.01932500 -0.04066200 -0.00835000
v 0.01497700 -0.05283000 -0.00052700
v 0.02801400 -0.05369900 -0.00661000
v 0.01497700 -0.04066200 -0.00835000
v 0.02019300 -0.05543700 -0.00661000
v 0.01497700 -0.05283200 -0.00052700
v 0.02975400 -0.05283200 0.07509600
v 0.02975400 -0.05543900 0.07509600
v 0.01497700 -0.05543900 0.07509600
v 0.02975400 -0.05543900 -0.00052700
v 0.01497700 -0.05283200 0.07509600
v 0.02975400 -0.05196200 0.02642500
v 0.01497700 -0.05543900 -0.00052700
v 0.01497700 -0.05196200 0.03858800
v 0.02975400 -0.05283200 -0.00052700
v 0.02975400 -0.05196200 0.04118600
v 0.01497700 -0.05196200 0.02816500
v 0.01497500 0.03148500 0.13072300
v -0.01370400 0.03148500 0.08813900
v -0.01631200 0.03148500 0.08987700
v 0.00193500 0.04017700 0.10552300
v -0.02066000 0.03496300 0.12550800
v 0.02105900 0.03148500 0.09509300
v 0.02019100 0.03583100 0.12550800
v 0.01410700 0.03583100 0.08901000
v -0.01979200 0.03583100 0.09422600
v -0.02240000 0.03148500 0.12203100
v -0.01457600 0.03583100 0.13072300
v -0.00240400 0.04017700 0.11420600
v 0.02193100 0.03583100 0.09770200
v -0.01283600 0.03583100 0.08813900
v 0.01410700 0.03583100 0.13072300
v -0.01544400 0.03148500 0.13072300
v 0.02193100 0.03148500 0.12289800
v -0.02240000 0.03583100 0.12116000
v -0.02240000 0.03148500 0.09770200
v 0.01323500 0.03148500 0.08813900
v 0.00454300 0.04017700 0.11160100
v -0.00414000 0.04017700 0.10726100
v -0.02240000 0.03583100 0.09856900
v 0.02193100 0.03583100 0.12203100
v 0.01236700 0.03583100 0.08813900
v 0.02367100 0.03756900 0.14289400
v 0.02280300 0.03148500 0.13072700
v 0.01671900 0.03148500 0.13594500
v 0.03583500 0.03148500 0.14115600
v 0.03496700 0.04017700 0.13072700
v 0.01497900 0.04017700 0.13768300
v 0.01497900 0.03148500 0.14637200
v 0.03496700 0.04017700 0.13855000
v 0.03583500 0.03148500 0.13072700
v 0.02280300 0.04017700 0.13072700
v 0.01497900 0.04017700 0.14289400
v 0.01497900 0.03148500 0.13768300
v -0.00414600 0.04017700 0.10725900
v 0.00454600 0.04539200 0.11160400
v 0.00367600 0.04539200 0.11334200
v 0.00454600 0.04017700 0.11160400
v -0.00240600 0.04017700 0.11421200
v -0.00240600 0.04539200 0.10552000
v -0.00414600 0.04539200 0.11247300
v 0.00193800 0.04017700 0.10552000
v 0.00454600 0.04539200 0.10812700
v 0.01410500 0.05582300 0.11681500
v 0.01410500 0.05321500 0.11681500
v -0.01457400 0.05582300 0.11681500
v -0.01457400 0.05321500 0.11681500
v 0.01410500 0.05321500 0.07161900
v -0.03022300 -0.04066300 0.06901200
v -0.03283000 -0.05109100 0.00034200
v -0.03022300 -0.05109100 0.00034200
v -0.03283000 -0.05109100 0.06901200
v -0.03283000 -0.04066300 0.00034200
v -0.03022300 -0.04066300 0.00034200
v -0.03022300 -0.05109100 0.06901200
v -0.03283000 -0.04066300 0.06901200
v -0.02413800 -0.04414000 0.07596600
v -0.03283100 -0.05109100 0.06901200
v -0.03283100 -0.04066300 0.06901200
v -0.03283100 -0.04066300 0.08726600
v -0.03022200 -0.05109100 0.08726600
v -0.02413800 -0.04848400 0.06988200
v -0.02587800 -0.04066300 0.06988200
v -0.03283100 -0.05109100 0.08726600
v -0.03022200 -0.04066300 0.08726600
v -0.02587800 -0.05022200 0.07422900
v -0.02413800 -0.04848400 0.07596600
v 0.02975400 0.03148500 0.09856600
v 0.03583900 0.03583100 0.13072700
v 0.03496900 0.04017700 0.13072700
v 0.02975400 0.04017700 0.09856600
v 0.03583900 0.03148500 0.09856600
v 0.03496900 0.04017700 0.09856600
v 0.03583900 0.03148500 0.13072700
v 0.02627700 0.04017700 0.12638000
v 0.03583900 0.03669900 0.10726400
v 0.02627700 0.03148500 0.12638000
v -0.01370700 -0.05196200 0.05075700
v -0.01196900 -0.05196200 -0.00400400
v -0.01110000 -0.05196200 -0.00400400
v -0.01457700 -0.04066200 -0.00313200
v -0.01110000 -0.04066200 0.05423500
v -0.01110000 -0.04066200 -0.00400400
v -0.01457700 -0.04066200 0.05423500
v -0.01457700 -0.05196200 -0.00052600
v -0.01110000 -0.05196200 0.05162400
v -0.01457700 -0.05196200 0.04988500
v -0.01805500 -0.05196200 0.12812000
v -0.02413700 -0.04066200 0.13507200
v -0.02413700 -0.04066200 0.13246500
v -0.01110200 -0.04153200 0.12812000
v -0.02935400 -0.04066200 0.12899000
v -0.02413700 -0.05196200 0.13507200
v -0.02935400 -0.05196200 0.12899000
v -0.02935400 -0.04066200 0.13507200
v -0.01110200 -0.04414000 0.12985900
v -0.02935400 -0.05196200 0.13507200
v -0.01544800 -0.05109100 0.12899000
v -0.02152800 -0.04153200 0.12812000
v -0.01023100 -0.04153200 0.08205100
v 0.01671200 -0.04066200 0.08813300
v 0.02106200 -0.04153200 0.09074200
v 0.00193900 -0.05196200 0.08379000
v -0.00936100 -0.04240100 0.09074200
v 0.00627900 -0.04066200 0.08031200
v -0.00153700 -0.05196200 0.08813300
v 0.01584200 -0.04674500 0.08639600
v -0.00936100 -0.04066200 0.09074200
v -0.00588400 -0.04587800 0.08031200
v 0.00627900 -0.04587800 0.08031200
v 0.01497200 -0.04587800 0.09074200
v 0.01497200 -0.04240100 0.08379000
v -0.00936100 -0.04066200 0.08031200
v -0.00240400 -0.05196200 0.08379000
v -0.00588400 -0.04587800 0.09074200
v 0.00193900 -0.05196200 0.08813300
v 0.02106200 -0.04414000 0.08987200
v 0.00802800 -0.05196200 0.14376600
v 0.02975400 -0.04066200 0.13942000
v 0.02975400 -0.04066200 0.13768100
v -0.01110000 -0.04066200 0.14029000
v 0.02192800 -0.05196200 0.13768100
v -0.01110000 -0.05196200 0.14029000
v -0.00848800 -0.04066200 0.14376600
v 0.02888200 -0.05196200 0.14029000
v 0.01671300 -0.04066200 0.14289600
v -0.00848800 -0.05196200 0.14376600
v 0.02975400 -0.05196200 0.13768100
v 0.02192800 -0.04066200 0.13768100
v 0.00802800 -0.04066200 0.14376600
v -0.01110000 -0.04066200 0.14289600
v 0.01671300 -0.05196200 0.14289600
v 0.03583900 0.03583100 0.09856600
v 0.02280000 0.03148500 0.08813600
v 0.02280000 0.03148500 0.08900600
v 0.02280000 0.04017700 0.08813600
v 0.03583900 0.03148500 0.08813600
v 0.02888600 0.03148500 0.09856600
v 0.03496700 0.04017700 0.08813600
v 0.02888600 0.04017700 0.09856600
v 0.03496700 0.04017700 0.09856600
v -0.01370500 0.03148500 0.13072700
v -0.01544600 0.04017700 0.13768100
v 0.00541300 0.03496300 0.13507300
v -0.02240000 0.03148500 0.13768100
v -0.02240000 0.04017700 0.13246600
v 0.01323600 0.03583100 0.13072700
v 0.01410800 0.03148500 0.13159700
v -0.02240000 0.03148500 0.13246600
v 0.00541300 0.03148500 0.13507300
v -0.02240000 0.04017700 0.13768100
v -0.01283700 0.03583100 0.13072700
v -0.01544600 0.03148500 0.13768100
v -0.00588100 0.03756900 0.14550400
v -0.02240000 0.03148500 0.14463300
v 0.01497700 0.03148500 0.13768100
v 0.01497700 0.04017700 0.13768100
v 0.01497700 0.03148500 0.14637300
v 0.01323600 0.04017700 0.14376400
v -0.02240000 0.04017700 0.14202900
v -0.00588100 0.03235400 0.14811200
v 0.00628400 0.03235400 0.14811200
v -0.01283600 0.04017700 0.14376400
f 11 3 18
f 1 6 7
f 3 5 8
f 4 7 9
f 3 8 9
f 8 4 9
f 6 10 11
f 5 3 11
f 10 5 11
f 1 7 12
f 7 4 12
f 4 8 12
f 8 1 12
f 6 1 13
f 5 10 13
f 10 6 13
f 6 2 14
f 7 6 14
f 13 1 15
f 5 13 15
f 2 3 16
f 3 9 16
f 9 7 16
f 14 2 16
f 7 14 16
f 1 8 17
f 8 5 17
f 15 1 17
f 5 15 17
f 3 2 18
f 2 6 18
f 6 11 18
f 41 36 45
f 21 20 22
f 23 19 24
f 21 22 25
f 22 20 26
f 19 23 27
f 24 19 28
f 25 22 30
f 24 28 31
f 25 30 31
f 20 21 32
f 26 20 32
f 23 24 33
f 22 26 33
f 19 27 34
f 27 32 34
f 27 23 35
f 23 33 35
f 21 25 36
f 25 29 36
f 24 31 37
f 31 30 37
f 28 19 38
f 19 29 38
f 31 28 38
f 30 22 39
f 33 24 39
f 22 33 39
f 24 37 39
f 37 30 39
f 19 34 40
f 32 21 41
f 34 32 41
f 21 36 41
f 26 32 42
f 33 26 42
f 32 35 42
f 35 33 42
f 29 25 43
f 25 31 43
f 38 29 43
f 31 38 43
f 32 27 44
f 27 35 44
f 35 32 44
f 29 19 45
f 36 29 45
f 19 40 45
f 40 34 45
f 34 41 45
f 58 50 59
f 47 48 49
f 47 49 50
f 48 47 51
f 46 51 52
f 51 47 52
f 50 49 53
f 51 46 54
f 53 49 54
f 49 48 55
f 48 51 55
f 54 49 55
f 51 54 55
f 47 50 56
f 52 47 56
f 54 46 57
f 53 54 57
f 46 52 58
f 56 50 58
f 52 56 58
f 50 53 59
f 57 46 59
f 53 57 59
f 46 58 59
f 79 68 81
f 60 61 62
f 62 63 66
f 65 64 67
f 61 65 67
f 64 65 68
f 68 66 69
f 66 64 69
f 64 68 69
f 62 66 70
f 66 68 70
f 61 60 71
f 63 62 72
f 61 67 72
f 62 61 73
f 72 62 73
f 61 72 73
f 64 63 74
f 67 64 74
f 63 72 74
f 72 67 74
f 63 64 75
f 66 63 75
f 64 66 75
f 68 65 76
f 76 71 77
f 60 68 77
f 71 60 77
f 68 76 77
f 65 61 78
f 61 71 78
f 71 65 78
f 60 62 79
f 62 70 79
f 70 68 79
f 65 71 80
f 76 65 80
f 71 76 80
f 68 60 81
f 60 79 81
f 87 86 92
f 82 85 86
f 83 84 87
f 82 86 87
f 87 84 88
f 82 88 89
f 85 82 89
f 88 85 89
f 82 87 90
f 87 88 90
f 88 82 90
f 84 83 91
f 86 85 91
f 83 86 91
f 88 84 91
f 85 88 91
f 86 83 92
f 83 87 92
f 99 106 109
f 95 94 96
f 94 95 86
f 86 95 97
f 95 96 98
f 97 95 98
f 94 86 99
f 86 97 99
f 99 97 100
f 97 98 100
f 93 99 100
f 96 94 101
f 94 99 101
f 93 100 102
f 98 96 103
f 96 102 103
f 102 96 104
f 93 102 104
f 99 93 105
f 104 99 105
f 93 104 105
f 104 96 106
f 99 104 106
f 102 100 107
f 100 103 107
f 103 102 107
f 100 98 108
f 103 100 108
f 98 103 108
f 96 101 109
f 101 99 109
f 106 96 109
f 121 123 126
f 111 114 115
f 112 111 115
f 112 115 116
f 114 111 117
f 114 117 118
f 116 110 118
f 111 112 119
f 112 113 119
f 117 111 119
f 113 117 119
f 117 113 120
f 118 117 120
f 116 118 120
f 113 112 122
f 112 116 122
f 116 120 122
f 116 115 123
f 121 116 123
f 120 113 124
f 113 122 124
f 122 120 124
f 110 116 125
f 114 118 125
f 118 110 125
f 121 114 125
f 116 121 125
f 115 114 126
f 114 121 126
f 123 115 126
f 139 135 149
f 129 128 127
f 128 129 133
f 129 127 134
f 132 130 134
f 133 131 135
f 133 129 136
f 134 130 136
f 128 133 137
f 133 135 137
f 131 132 138
f 132 135 138
f 135 131 138
f 127 128 139
f 133 136 140
f 136 130 140
f 130 131 141
f 131 133 141
f 140 130 141
f 133 140 141
f 131 130 142
f 130 132 142
f 132 131 142
f 137 135 143
f 132 134 144
f 135 132 144
f 129 134 145
f 136 129 145
f 134 136 145
f 128 137 146
f 139 128 146
f 137 143 146
f 143 139 146
f 134 127 147
f 127 135 147
f 144 134 147
f 135 144 147
f 135 139 148
f 143 135 148
f 139 143 148
f 135 127 149
f 127 139 149
f 150 155 157
f 152 151 153
f 153 150 97
f 152 97 154
f 151 152 154
f 97 150 154
f 153 151 155
f 150 153 155
f 152 153 156
f 153 97 156
f 97 152 156
f 151 154 157
f 154 150 157
f 155 151 157
f 174 167 178
f 160 159 164
f 162 161 165
f 161 163 166
f 158 165 166
f 164 159 168
f 158 164 168
f 165 158 168
f 159 160 169
f 160 166 169
f 167 159 169
f 161 162 170
f 165 161 171
f 161 166 171
f 162 165 172
f 168 162 172
f 165 168 172
f 163 161 173
f 169 163 173
f 167 169 173
f 161 170 173
f 170 167 173
f 159 167 174
f 168 159 174
f 162 168 174
f 160 164 175
f 164 158 175
f 166 160 175
f 158 166 175
f 166 165 176
f 165 171 176
f 171 166 176
f 166 163 177
f 169 166 177
f 163 169 177
f 170 162 178
f 167 170 178
f 162 174 178
f 188 184 194
f 180 179 182
f 183 184 185
f 179 180 186
f 184 183 187
f 181 185 188
f 185 184 188
f 181 180 189
f 180 182 189
f 185 181 189
f 185 189 190
f 182 183 190
f 183 185 190
f 189 182 190
f 182 179 191
f 183 182 191
f 183 191 192
f 179 187 192
f 187 183 192
f 191 179 192
f 179 186 193
f 186 184 193
f 184 187 193
f 187 179 193
f 180 181 194
f 186 180 194
f 184 186 194
f 181 188 194
f 205 198 208
f 196 197 198
f 197 196 201
f 200 197 201
f 195 200 201
f 196 198 202
f 198 199 202
f 198 197 203
f 197 200 204
f 203 197 204
f 195 199 205
f 199 198 205
f 199 195 206
f 201 196 206
f 195 201 206
f 196 202 206
f 202 199 206
f 200 203 207
f 204 200 207
f 203 204 207
f 200 195 208
f 198 203 208
f 203 200 208
f 195 205 208
f 224 225 230
f 210 211 214
f 210 213 215
f 214 211 216
f 212 214 216
f 212 216 217
f 217 216 218
f 212 217 219
f 213 210 220
f 220 214 221
f 212 213 221
f 214 212 221
f 213 220 221
f 210 215 222
f 216 211 223
f 218 216 223
f 211 218 223
f 209 217 224
f 217 218 224
f 218 211 225
f 224 218 225
f 209 215 226
f 215 213 226
f 217 209 226
f 219 217 226
f 210 214 227
f 220 210 227
f 214 220 227
f 213 212 228
f 212 219 228
f 226 213 228
f 219 226 228
f 211 210 229
f 210 222 229
f 222 225 229
f 225 211 229
f 215 209 230
f 222 215 230
f 209 224 230
f 225 222 230
f 238 247 248
f 233 232 234
f 232 233 235
f 233 234 235
f 236 231 237
f 235 234 238
f 234 237 238
f 232 235 239
f 236 232 239
f 231 236 239
f 237 231 240
f 238 237 240
f 231 239 242
f 241 231 242
f 240 231 243
f 238 240 243
f 232 236 244
f 237 232 244
f 236 237 244
f 239 235 245
f 235 241 245
f 242 239 245
f 241 242 245
f 234 232 246
f 232 237 246
f 237 234 246
f 231 241 247
f 243 231 247
f 238 243 247
f 235 238 248
f 241 235 248
f 247 241 248
f 252 260 261
f 251 250 254
f 249 254 255
f 254 250 255
f 254 249 256
f 253 252 257
f 249 255 257
f 255 253 257
f 252 256 257
f 250 253 258
f 253 255 258
f 255 250 258
f 256 249 259
f 249 257 259
f 257 256 259
f 250 251 260
f 252 253 260
f 253 250 260
f 251 254 261
f 256 252 261
f 254 256 261
f 260 251 261
f 273 266 279
f 263 264 265
f 266 262 267
f 265 264 268
f 262 266 269
f 266 265 269
f 263 265 270
f 265 266 270
f 267 262 271
f 268 267 271
f 262 269 271
f 268 264 272
f 264 263 273
f 263 270 273
f 267 268 274
f 268 272 274
f 265 268 275
f 268 271 275
f 271 269 275
f 272 267 276
f 267 274 276
f 274 272 276
f 269 265 277
f 265 275 277
f 275 269 277
f 270 266 278
f 266 273 278
f 273 270 278
f 266 267 279
f 272 264 279
f 267 272 279
f 264 273 279
f 285 291 294
f 281 282 285
f 284 283 286
f 281 284 286
f 282 281 287
f 285 282 287
f 281 286 288
f 286 280 288
f 287 288 289
f 280 283 289
f 283 287 289
f 288 280 289
f 284 281 290
f 281 285 290
f 283 284 291
f 287 283 291
f 285 287 291
f 283 280 292
f 280 286 292
f 286 283 292
f 287 281 293
f 281 288 293
f 288 287 293
f 284 290 294
f 290 285 294
f 291 284 294
f 298 302 303
f 283 296 297
f 283 297 298
f 296 283 299
f 297 296 299
f 297 299 300
f 283 298 291
f 299 283 291
f 299 291 301
f 300 299 301
f 295 300 301
f 291 298 301
f 298 297 302
f 297 300 302
f 300 295 302
f 295 301 303
f 301 298 303
f 302 295 303
f 312 314 318
f 307 305 308
f 306 305 309
f 307 308 310
f 309 307 312
f 306 309 313
f 311 306 313
f 304 311 313
f 310 304 314
f 307 310 314
f 312 307 314
f 304 310 315
f 310 308 315
f 308 311 315
f 311 304 315
f 305 306 316
f 308 305 316
f 311 308 316
f 306 311 316
f 305 307 317
f 309 305 317
f 307 309 317
f 309 312 318
f 313 309 318
f 304 313 318
f 314 304 318
f 322 328 329
f 321 320 322
f 320 321 323
f 319 323 325
f 323 321 325
f 321 324 325
f 324 319 325
f 323 319 326
f 324 322 326
f 319 324 326
f 321 322 327
f 324 321 327
f 322 324 327
f 322 320 328
f 320 323 328
f 323 326 328
f 328 326 329
f 326 322 329
f 337 330 338
f 332 331 333
f 331 332 334
f 333 331 334
f 330 333 335
f 333 334 335
f 330 332 336
f 332 333 336
f 333 330 336
f 332 330 337
f 334 332 337
f 334 337 338
f 330 335 338
f 335 334 338
f 355 347 360
f 340 341 342
f 342 341 347
f 343 347 348
f 343 339 350
f 339 344 350
f 344 342 350
f 342 347 350
f 347 343 350
f 341 340 351
f 340 346 351
f 342 344 352
f 344 346 352
f 339 343 353
f 345 339 353
f 343 348 353
f 348 345 353
f 344 339 354
f 339 345 354
f 346 344 354
f 345 349 354
f 348 347 355
f 345 348 355
f 341 351 355
f 351 345 355
f 340 342 356
f 342 352 356
f 349 345 357
f 351 346 357
f 345 351 357
f 346 340 358
f 352 346 358
f 340 356 358
f 356 352 358
f 346 354 359
f 354 349 359
f 349 357 359
f 357 346 359
f 347 341 360
f 341 355 360
f 362 365 373
f 365 362 366
f 361 365 366
f 364 361 368
f 366 364 368
f 361 366 368
f 361 364 369
f 367 363 369
f 364 367 369
f 362 363 370
f 366 362 370
f 364 366 370
f 363 367 371
f 367 364 371
f 370 363 371
f 364 370 371
f 365 361 372
f 363 365 372
f 361 369 372
f 369 363 372
f 363 362 373
f 365 363 373
f 384 389 393
f 376 375 378
f 376 378 379
f 374 377 380
f 376 379 380
f 377 374 381
f 378 375 381
f 374 380 383
f 380 379 383
f 381 374 384
f 375 377 385
f 381 375 385
f 377 381 385
f 384 374 386
f 382 384 386
f 380 377 387
f 382 386 388
f 378 381 389
f 382 378 389
f 384 382 389
f 374 383 390
f 383 379 390
f 386 374 390
f 379 388 390
f 388 386 390
f 379 378 391
f 378 382 391
f 388 379 391
f 382 388 391
f 375 376 392
f 377 375 392
f 376 380 392
f 387 377 392
f 380 387 392
f 381 384 393
f 389 381 393
f 404 394 405
f 396 395 397
f 395 398 399
f 397 395 399
f 395 396 400
f 398 400 401
f 400 396 401
f 398 395 402
f 395 400 402
f 400 398 402
f 396 397 403
f 401 396 403
f 399 398 404
f 398 401 404
f 401 394 404
f 397 399 405
f 394 401 405
f 403 397 405
f 401 403 405
f 399 404 405
f 413 412 418
f 409 406 410
f 407 408 411
f 409 410 412
f 410 408 412
f 408 407 413
f 407 411 413
f 409 412 413
f 406 409 395
f 410 406 395
f 408 410 414
f 411 408 414
f 409 413 415
f 395 409 415
f 413 395 415
f 410 395 416
f 413 411 402
f 395 413 402
f 416 395 402
f 411 416 402
f 414 410 417
f 411 414 417
f 410 416 417
f 416 411 417
f 412 408 418
f 408 413 418
f 427 423 429
f 422 420 423
f 419 421 424
f 423 419 425
f 422 423 425
f 424 422 425
f 424 425 426
f 419 424 426
f 425 419 426
f 421 419 427
f 420 421 427
f 419 423 427
f 421 420 428
f 420 422 428
f 424 421 428
f 422 424 428
f 423 420 429
f 420 427 429
f 446 439 448
f 432 431 435
f 430 433 436
f 433 430 437
f 434 433 437
f 433 434 438
f 430 436 440
f 436 435 440
f 431 438 441
f 438 434 441
f 436 433 442
f 436 442 443
f 443 442 444
f 431 432 444
f 438 431 444
f 433 438 444
f 442 433 444
f 432 443 444
f 437 430 445
f 434 437 445
f 430 439 445
f 435 431 446
f 431 441 446
f 441 434 446
f 434 445 446
f 445 439 446
f 432 435 447
f 435 436 447
f 443 432 447
f 436 443 447
f 439 430 448
f 430 440 448
f 440 435 448
f 435 446 448
f 459 452 462
f 452 449 453
f 452 453 455
f 453 450 455
f 453 449 456
f 450 453 456
f 454 456 457
f 449 454 457
f 456 449 457
f 451 454 458
f 454 449 458
f 450 451 459
f 451 458 459
f 459 458 460
f 449 452 460
f 458 449 460
f 452 459 460
f 451 450 461
f 454 451 461
f 450 456 461
f 456 454 461
f 455 450 462
f 452 455 462
f 450 459 462
f 470 475 480
f 465 464 469
f 464 468 469
f 464 466 470
f 468 464 470
f 466 471 472
f 464 465 473
f 466 464 473
f 465 469 473
f 469 467 473
f 471 466 473
f 467 471 473
f 468 463 474
f 469 468 474
f 472 463 475
f 471 467 476
f 472 471 476
f 467 469 477
f 469 474 477
f 470 466 478
f 466 472 478
f 475 470 478
f 472 475 478
f 463 472 479
f 474 463 479
f 476 467 479
f 472 476 479
f 467 477 479
f 477 474 479
f 463 468 480
f 468 470 480
f 475 463 480
f 484 487 491
f 483 482 484
f 483 484 485
f 482 483 486
f 486 481 487
f 482 486 487
f 485 481 488
f 483 485 488
f 486 483 488
f 481 486 488
f 484 482 489
f 482 487 489
f 487 484 489
f 484 481 490
f 481 485 490
f 485 484 490
f 481 484 491
f 487 481 491
f 505 497 514
f 494 493 497
f 494 497 500
f 498 494 500
f 493 494 502
f 494 498 502
f 501 493 502
f 497 493 503
f 493 501 503
f 496 495 504
f 501 496 504
f 495 499 505
f 499 492 505
f 492 500 505
f 500 497 505
f 495 503 507
f 503 501 507
f 504 495 507
f 501 504 507
f 502 498 508
f 498 506 508
f 495 496 509
f 499 495 509
f 496 501 510
f 501 502 510
f 502 508 510
f 500 492 511
f 498 500 511
f 506 498 511
f 506 511 512
f 492 499 512
f 509 496 512
f 499 509 512
f 511 492 512
f 508 506 513
f 496 510 513
f 510 508 513
f 506 512 513
f 512 496 513
f 497 503 514
f 503 495 514
f 495 505 514
f 524 525 528
f 517 516 518
f 516 517 519
f 518 516 520
f 519 517 521
f 518 520 522
f 521 517 522
f 517 518 523
f 522 517 523
f 518 522 523
f 522 520 524
f 515 522 524
f 516 519 525
f 520 516 525
f 524 520 525
f 515 521 526
f 522 515 526
f 521 522 526
f 515 519 527
f 521 515 527
f 519 521 527
f 519 515 528
f 515 524 528
f 525 519 528
f 532 535 538
f 531 530 532
f 532 530 533
f 533 529 534
f 532 533 534
f 534 529 535
f 530 531 536
f 529 533 536
f 533 530 536
f 535 529 536
f 531 535 536
f 532 534 537
f 535 532 537
f 534 535 537
f 531 532 538
f 535 531 538
f 549 546 551
f 540 541 542
f 541 540 543
f 542 541 543
f 542 539 544
f 543 540 545
f 544 539 545
f 540 542 546
f 539 542 547
f 543 539 547
f 542 543 547
f 542 544 548
f 546 542 548
f 545 540 549
f 544 545 549
f 540 546 549
f 539 543 550
f 545 539 550
f 543 545 550
f 548 544 551
f 546 548 551
f 544 549 551
f 559 564 566
f 553 554 555
f 554 553 556
f 553 555 557
f 556 553 560
f 553 557 560
f 557 555 561
f 555 559 561
f 559 552 561
f 554 556 562
f 558 554 562
f 558 562 563
f 556 552 563
f 552 558 563
f 562 556 563
f 555 554 564
f 554 558 564
f 559 555 564
f 552 556 565
f 556 560 565
f 560 557 565
f 561 552 565
f 557 561 565
f 558 552 566
f 552 559 566
f 564 558 566
f 568 574 578
f 568 569 570
f 569 568 571
f 569 571 572
f 571 567 572
f 568 570 573
f 570 567 573
f 567 571 574
f 573 567 574
f 570 569 575
f 569 572 575
f 572 570 575
f 567 570 576
f 570 572 576
f 572 567 576
f 568 573 577
f 574 568 577
f 573 574 577
f 571 568 578
f 574 571 578
f 589 586 591
f 580 581 582
f 581 580 584
f 583 582 585
f 581 584 586
f 582 581 587
f 580 582 588
f 582 583 588
f 584 580 588
f 583 584 588
f 579 585 589
f 581 586 589
f 587 581 589
f 585 587 589
f 585 582 590
f 582 587 590
f 587 585 590
f 584 583 591
f 585 579 591
f 583 585 591
f 586 584 591
f 579 589 591
f 600 598 603
f 594 593 595
f 593 594 596
f 594 595 596
f 595 593 597
f 592 595 597
f 593 596 598
f 595 592 599
f 592 596 599
f 596 595 599
f 592 597 600
f 596 592 601
f 592 598 601
f 598 596 601
f 597 593 602
f 593 598 602
f 600 597 602
f 598 600 602
f 598 592 603
f 592 600 603
f 623 617 628
f 606 605 604
f 604 605 609
f 606 604 613
f 611 607 616
f 609 611 616
f 605 606 617
f 606 612 617
f 604 610 618
f 614 604 618
f 615 614 618
f 613 604 619
f 608 613 619
f 614 608 619
f 604 614 619
f 604 609 620
f 610 604 620
f 609 616 620
f 613 608 621
f 608 614 621
f 614 615 621
f 612 606 622
f 606 613 622
f 613 621 622
f 609 605 623
f 611 609 623
f 605 617 623
f 607 615 624
f 616 607 624
f 618 610 624
f 615 618 624
f 615 607 625
f 607 617 625
f 617 612 625
f 621 615 625
f 621 625 626
f 612 622 626
f 622 621 626
f 625 612 626
f 610 620 627
f 620 616 627
f 616 624 627
f 624 610 627
f 607 611 628
f 617 607 628
f 611 623 628
f 635 634 640
f 631 630 632
f 631 632 635
f 632 629 635
f 629 632 636
f 632 633 636
f 633 634 636
f 632 630 637
f 633 632 637
f 630 633 637
f 630 631 638
f 633 630 638
f 634 633 638
f 631 634 638
f 634 635 639
f 635 629 639
f 629 636 639
f 636 634 639
f 634 631 640
f 631 635 640
f 644 648 649
f 642 643 644
f 641 644 645
f 644 643 645
f 643 642 646
f 646 641 647
f 641 645 647
f 645 643 647
f 643 646 647
f 644 641 648
f 641 646 648
f 648 646 649
f 642 644 649
f 646 642 649
f 652 375 376
f 650 651 375
f 651 650 652
f 650 375 652
f 392 651 653
f 652 392 653
f 651 652 653
f 651 392 654
f 375 651 654
f 392 375 654
f 375 392 376
f 392 652 376
f 659 658 662
f 656 657 658
f 657 656 659
f 656 658 659
f 655 657 660
f 659 655 660
f 657 659 660
f 657 655 661
f 658 657 661
f 655 658 661
f 658 655 662
f 655 659 662
f 667 672 673
f 665 664 666
f 664 665 668
f 668 665 669
f 665 666 669
f 663 668 669
f 666 664 670
f 667 666 670
f 664 667 670
f 667 663 671
f 666 667 671
f 669 666 671
f 663 669 671
f 667 664 672
f 664 668 672
f 672 668 673
f 663 667 673
f 668 663 673
f 534 681 683
f 675 676 534
f 534 674 678
f 674 677 678
f 534 676 529
f 676 677 529
f 677 676 679
f 678 677 679
f 675 534 680
f 678 675 680
f 534 678 680
f 677 674 681
f 534 529 681
f 529 677 681
f 676 675 682
f 675 678 682
f 679 676 682
f 678 679 682
f 674 534 683
f 681 674 683
f 690 691 693
f 684 685 686
f 688 686 689
f 686 685 689
f 685 687 689
f 687 688 689
f 688 687 690
f 685 684 691
f 687 685 691
f 690 687 691
f 684 686 692
f 686 688 692
f 690 684 692
f 688 690 692
f 684 690 693
f 691 684 693
f 694 700 705
f 696 695 697
f 695 696 698
f 696 697 698
f 694 699 700
f 695 698 701
f 699 695 701
f 698 700 701
f 697 695 702
f 695 699 702
f 700 699 703
f 699 701 703
f 701 700 703
f 694 697 704
f 699 694 704
f 697 702 704
f 702 699 704
f 697 694 705
f 698 697 705
f 700 698 705
f 722 713 723
f 708 707 714
f 706 710 714
f 710 708 714
f 707 711 714
f 713 709 716
f 715 711 716
f 709 715 716
f 708 710 717
f 707 708 718
f 711 707 718
f 716 711 718
f 713 716 718
f 706 714 719
f 714 711 719
f 715 706 719
f 711 715 719
f 710 706 720
f 709 712 720
f 712 710 720
f 706 715 720
f 715 709 720
f 710 712 721
f 717 710 721
f 712 717 721
f 712 709 722
f 709 713 722
f 717 712 722
f 717 722 723
f 708 717 723
f 718 708 723
f 713 718 723
f 731 732 738
f 725 726 727
f 728 724 729
f 727 728 729
f 725 727 730
f 724 728 731
f 725 730 732
f 731 725 732
f 729 724 733
f 724 730 733
f 726 725 734
f 728 726 734
f 725 731 734
f 731 728 734
f 727 726 735
f 728 727 735
f 726 728 735
f 730 724 736
f 732 730 736
f 724 732 736
f 727 729 737
f 730 727 737
f 729 733 737
f 733 730 737
f 724 731 738
f 732 724 738
f 745 746 747
f 740 741 742
f 741 740 743
f 740 742 743
f 741 743 744
f 739 743 745
f 743 742 745
f 742 741 746
f 741 744 746
f 744 739 746
f 745 742 746
f 743 739 678
f 739 744 678
f 744 743 678
f 739 745 747
f 746 739 747
f 751 756 759
f 752 749 753
f 749 750 753
f 753 750 754
f 751 748 754
f 748 753 754
f 748 751 755
f 752 748 755
f 751 752 755
f 750 749 756
f 754 750 756
f 751 754 756
f 751 749 757
f 752 751 757
f 749 752 757
f 748 752 758
f 752 753 758
f 753 748 758
f 749 751 759
f 756 749 759
f 767 760 769
f 761 751 762
f 751 761 757
f 762 751 757
f 762 757 763
f 761 762 764
f 762 763 764
f 764 763 765
f 763 757 765
f 765 757 766
f 757 761 766
f 766 761 767
f 761 764 767
f 760 767 768
f 764 765 768
f 765 760 768
f 767 764 768
f 760 765 769
f 765 766 769
f 766 767 769

